<?xml version="1.0" encoding="utf-8"?>
<!-- Generator: Adobe Illustrator 23.0.0, SVG Export Plug-In . SVG Version: 6.00 Build 0)  -->
<svg version="1.1" id="레이어_1" xmlns="http://www.w3.org/2000/svg" xmlns:xlink="http://www.w3.org/1999/xlink" x="0px"
	 y="0px" viewBox="0 0 180 180" style="enable-background:new 0 0 180 180;" xml:space="preserve">
<style type="text/css">
	.st0{fill:#8B9EFF;}
	.st1{fill:#FFFFFF;}
	.st2{fill:#1D9BF0;}
	.st3{clip-path:url(#SVGID_2_);fill:#3E82F1;}
	.st4{clip-path:url(#SVGID_4_);fill:#32A753;}
	.st5{clip-path:url(#SVGID_6_);fill:#F9BB00;}
	.st6{clip-path:url(#SVGID_8_);fill:#E74133;}
	.st7{fill:#222222;}
</style>
<circle class="st0" cx="90" cy="90" r="89"/>
<path class="st1" d="M106.4,46.8l-1.4,1.6c17.5,5.3,25.6,13.1,25.6,13.1c-10.7-5.9-21.2-8.7-31-9.9c-7.4-0.8-14.5-0.6-20.8,0.2
	c-0.6,0-1.1,0.1-1.7,0.2c-3.6,0.3-12.3,1.6-23.3,6.5c-3.8,1.7-6.1,3-6.1,3s8.5-8.1,27.1-13.5l-1-1.2c0,0-14.1-0.3-28.9,10.8
	c0,0-14.8,26.8-14.8,60c0,0,8.6,14.9,31.4,15.6c0,0,3.8-4.6,6.9-8.5c-13.1-3.9-18-12.1-18-12.1s1,0.7,2.9,1.7
	c0.1,0.1,0.2,0.2,0.4,0.3c0.3,0.2,0.6,0.3,0.9,0.5c2.6,1.4,5.1,2.6,7.5,3.5c4.2,1.6,9.3,3.3,15.1,4.4c7.7,1.4,16.8,2,26.6,0.1
	c4.8-0.8,9.8-2.3,14.9-4.4c3.6-1.3,7.6-3.3,11.8-6.1c0,0-5.1,8.4-18.6,12.2c3.1,3.9,6.8,8.3,6.8,8.3c22.7-0.7,31.5-15.6,31.5-15.6
	c0-33.1-14.8-60-14.8-60C120.4,46.5,106.4,46.8,106.4,46.8z M70.8,108c-5.8,0-10.5-5.1-10.5-11.4s4.6-11.4,10.5-11.4
	s10.6,5.1,10.5,11.4C81.3,102.9,76.6,108,70.8,108z M108.3,108c-5.8,0-10.5-5.1-10.5-11.4s4.6-11.4,10.5-11.4s10.5,5.1,10.5,11.4
	S114.2,108,108.3,108z"/>
</svg>
