<?xml version="1.0" encoding="utf-8"?>
<!-- Generator: Adobe Illustrator 23.0.0, SVG Export Plug-In . SVG Version: 6.00 Build 0)  -->
<svg version="1.1" id="레이어_1" xmlns="http://www.w3.org/2000/svg" xmlns:xlink="http://www.w3.org/1999/xlink" x="0px"
	 y="0px" viewBox="0 0 180 180" style="enable-background:new 0 0 180 180;" xml:space="preserve">
<style type="text/css">
	.st0{fill:#8B9EFF;}
	.st1{fill:#FFFFFF;}
	.st2{fill:#1D9BF0;}
	.st3{clip-path:url(#SVGID_2_);fill:#3E82F1;}
	.st4{clip-path:url(#SVGID_4_);fill:#32A753;}
	.st5{clip-path:url(#SVGID_6_);fill:#F9BB00;}
	.st6{clip-path:url(#SVGID_8_);fill:#E74133;}
	.st7{fill:#222222;}
</style>
<g>
	<g>
		<defs>
			<path id="SVGID_1_" d="M177.2,92c0-6.3-0.6-12.4-1.6-18.2H91.8v34.4h47.9c-2.1,11.1-8.3,20.6-17.8,26.9v22.3h28.8
				C167.5,141.9,177.2,119.1,177.2,92L177.2,92L177.2,92z M177.2,92"/>
		</defs>
		<clipPath id="SVGID_2_">
			<use xlink:href="#SVGID_1_"  style="overflow:visible;"/>
		</clipPath>
		<rect id="XMLID_26_" x="42.3" y="24.4" class="st3" width="184.3" height="182.5"/>
	</g>
	<g>
		<defs>
			<path id="SVGID_3_" d="M91.8,179c24,0,44.2-8,58.9-21.6l-28.8-22.3c-8,5.3-18.2,8.5-30.1,8.5c-23.2,0-42.8-15.7-49.8-36.7H12.2
				V130C26.9,159.1,57,179,91.8,179L91.8,179L91.8,179z M91.8,179"/>
		</defs>
		<clipPath id="SVGID_4_">
			<use xlink:href="#SVGID_3_"  style="overflow:visible;"/>
		</clipPath>
		<rect id="XMLID_23_" x="-37.2" y="57.5" class="st4" width="237.3" height="171"/>
	</g>
	<g>
		<defs>
			<path id="SVGID_5_" d="M42,106.9c-1.8-5.3-2.8-11-2.8-16.9c0-5.9,1-11.6,2.8-16.9V50H12.2c-6,12-9.5,25.6-9.5,40s3.4,28,9.5,40
				L42,106.9L42,106.9L42,106.9z M42,106.9"/>
		</defs>
		<clipPath id="SVGID_6_">
			<use xlink:href="#SVGID_5_"  style="overflow:visible;"/>
		</clipPath>
		<rect id="XMLID_20_" x="-46.7" y="0.6" class="st5" width="138.1" height="178.8"/>
	</g>
	<g>
		<defs>
			<path id="SVGID_7_" d="M91.8,36.4c13.1,0,24.8,4.5,34,13.3l25.5-25.5C135.9,9.8,115.8,1,91.8,1C57,1,26.9,20.9,12.2,50L42,73.1
				C49,52.1,68.6,36.4,91.8,36.4L91.8,36.4L91.8,36.4z M91.8,36.4"/>
		</defs>
		<clipPath id="SVGID_8_">
			<use xlink:href="#SVGID_7_"  style="overflow:visible;"/>
		</clipPath>
		<rect id="XMLID_17_" x="-37.2" y="-48.4" class="st6" width="238" height="171"/>
	</g>
</g>
</svg>
