<?xml version="1.0" encoding="utf-8"?>
<!-- Generator: Adobe Illustrator 23.0.0, SVG Export Plug-In . SVG Version: 6.00 Build 0)  -->
<svg version="1.1" id="레이어_1" xmlns="http://www.w3.org/2000/svg" xmlns:xlink="http://www.w3.org/1999/xlink" x="0px"
	 y="0px" viewBox="0 0 180 180" style="enable-background:new 0 0 180 180;" xml:space="preserve">
<style type="text/css">
	.st0{fill:#8B9EFF;}
	.st1{fill:#FFFFFF;}
	.st2{fill:#1D9BF0;}
	.st3{clip-path:url(#SVGID_2_);fill:#3E82F1;}
	.st4{clip-path:url(#SVGID_4_);fill:#32A753;}
	.st5{clip-path:url(#SVGID_6_);fill:#F9BB00;}
	.st6{clip-path:url(#SVGID_8_);fill:#E74133;}
	.st7{fill:#222222;}
</style>
<g>
	<path class="st7" d="M21,75.2c0.3,0,25.5,1.6,39.2,10.3c0.6,0.4,1.2,0.5,1.8,0.5c1.1,0,2.2-0.6,2.8-1.6c1-1.6,0.5-3.6-1-4.6
		c-15.2-9.6-41.3-11.2-42.4-11.3c-1.9-0.1-3.4,1.3-3.6,3.2C17.7,73.5,19.1,75.1,21,75.2z"/>
	<path class="st7" d="M63.8,102.1c-15.2-9.6-41.3-11.2-42.4-11.3c-1.8-0.1-3.4,1.3-3.6,3.2c-0.1,1.9,1.3,3.4,3.2,3.6
		c0.3,0,25.5,1.6,39.2,10.3c0.6,0.4,1.2,0.5,1.8,0.5c1.1,0,2.2-0.6,2.8-1.6C65.8,105.2,65.4,103.1,63.8,102.1z"/>
	<path class="st7" d="M21,119.8c0.3,0,25.5,1.6,39.2,10.3c0.6,0.4,1.2,0.5,1.8,0.5c1.1,0,2.2-0.6,2.8-1.6c1-1.6,0.5-3.6-1-4.6
		c-15.2-9.6-41.3-11.2-42.4-11.3c-1.9-0.1-3.4,1.3-3.6,3.2C17.7,118.1,19.1,119.7,21,119.8z"/>
	<path class="st7" d="M134,113.1c-1.1,0.1-27.2,1.7-42.4,11.3c-1.6,1-2,3.1-1,4.6c0.6,1,1.7,1.6,2.8,1.6c0.6,0,1.2-0.2,1.8-0.5
		c13.7-8.7,39-10.3,39.2-10.3c1.9-0.1,3.3-1.7,3.2-3.6C137.5,114.4,135.9,113,134,113.1z"/>
	<path class="st7" d="M135.4,70.7C135.4,70.7,135.4,70.7,135.4,70.7c-2.4,0-4.7,0.9-6.4,2.6c-1.7,1.7-2.6,4-2.6,6.4
		c0,4.9,4,8.9,9,8.9c4.9,0,8.9-4,8.9-9C144.4,74.7,140.4,70.7,135.4,70.7z M135.4,82.7c-1.7,0-3.1-1.4-3.1-3.1
		c0-0.9,0.3-1.7,0.9-2.3c0.6-0.6,1.4-0.9,2.2-0.9l0-2.9v2.9c1.7,0,3.1,1.4,3.1,3.1C138.5,81.4,137.2,82.7,135.4,82.7z"/>
	<path class="st7" d="M180,53.9c-0.1-0.4-0.1-0.8-0.1-1.1c-0.1-0.8-0.2-1.7-0.3-2.5c-1.8-11.4-7.2-20.8-16.2-28.1
		c-6.4-5.2-13.7-8.3-21.8-9.4c-2.1-0.3-4.3-0.4-6.4-0.4c-9.7,0-18.6,3-26.5,9C99.8,28,94.2,36.8,91.8,47.8c-0.3,1.3-0.4,2.5-0.6,3.7
		c-0.1,0.5-0.1,1.1-0.2,1.6c0,0.1,0,0.1,0,0.2c0,0.1-0.1,0.2-0.1,0.3c0,0.2-0.1,0.5-0.1,0.7v0.3c-0.3,0.1-0.6,0.2-0.8,0.3
		c-4.6,2.4-8.7,5.3-12.3,8.5C58.3,46.3,29.3,43.7,13.5,43.7c-6.3,0-10.3,0.4-10.4,0.4c-1.7,0.2-3,1.6-3,3.3v94.8
		c0,1,0.4,1.9,1.1,2.5c0.7,0.6,1.7,0.9,2.6,0.8c0,0,0.1,0,0.3,0c-0.1,0.2-0.1,0.5-0.1,0.8v9.2c0,0.9,0.4,1.8,1,2.4
		c0.6,0.6,1.5,1,2.4,1c0.5,0,46.6-1,67.5,8.5c0.5,0.2,0.9,0.3,1.4,0.3c0.4,0,0.8-0.1,1.2-0.2c0.4,0.1,0.8,0.2,1.2,0.2
		c0.5,0,0.9-0.1,1.4-0.3c20.9-9.5,67-8.5,67.5-8.5c0.9,0,1.8-0.3,2.4-1c0.6-0.6,1-1.5,1-2.4v-9.2c0-0.3,0-0.5-0.1-0.8
		c0.5,0,0.8,0.1,0.8,0.1c1,0.1,1.9-0.2,2.6-0.8c0.7-0.6,1.1-1.5,1.1-2.5V97.7c0-0.3,0-0.6-0.1-0.9c8.8-4.3,15.7-11.3,20.5-21
		c2.3-4.6,3.7-9.8,4.1-15.3c0-0.1,0-0.2,0.1-0.3c0.1-0.3,0.1-0.6,0.1-0.8v-5.2C180,54.2,180,54,180,53.9z M6.7,50.6
		c1.7-0.1,4-0.2,6.7-0.2c34.3,0,52.4,11.3,60.5,18.7v86c-19.2-14.4-45.6-16.7-60.5-16.7c-2.7,0-5,0.1-6.7,0.2V50.6z M10.7,152.1
		v-5.8c0-0.4-0.1-0.7-0.2-1.1c0.9,0,1.9,0,3,0c24.5,0,40.7,5.7,50.9,11.7C44.9,152.3,19.8,152,10.7,152.1z M144.2,146.3v5.8
		c-9,0-33.6,0.3-52.9,4.7c18.3-10.6,41.5-11.7,53.1-11.5C144.3,145.5,144.2,145.9,144.2,146.3z M148.7,138.6
		c-4.8-0.2-13.7-0.4-24.2,0.9c-17.8,2.2-32.8,7.8-43.7,16.2V69.8c3-2.9,6.6-5.5,10.5-7.8c0.1,0.5,0.1,1,0.2,1.6
		c1.9,12,7.8,21.8,17.6,29.2c0.7,0.6,1.5,1.1,2.3,1.6c-8.1,2-14.7,4.6-19.7,7.7c-1.6,1-2,3.1-1,4.6c0.6,1,1.7,1.6,2.8,1.6
		c0.6,0,1.2-0.2,1.8-0.5c5.1-3.2,12.5-5.9,21.8-7.8c1-0.2,1.7-0.8,2.2-1.6c3.7,1.4,7.6,2.4,11.7,2.8c0.4,0,0.7,0.1,1.1,0.1l0.5,0.1
		c0.1,0,0.3,0,0.4,0h5.1c0.1,0,0.3,0,0.4,0c0.4,0,0.7-0.1,1.1-0.1c0.8-0.1,1.7-0.2,2.6-0.4c2.3-0.4,4.4-0.9,6.5-1.5V138.6z
		 M173.3,59c-0.1,0.2-0.1,0.5-0.1,0.9c-0.3,4.7-1.5,9.1-3.4,13C163.7,85,154.3,92,141,94.3c-0.7,0.1-1.5,0.2-2.3,0.3
		c-0.3,0-0.6,0.1-0.9,0.1h-4.7l-0.3,0c-0.4-0.1-0.8-0.1-1.2-0.1c-7-0.8-13.2-3.2-18.6-7.2c-8.4-6.3-13.3-14.5-15-24.8
		c-0.1-0.8-0.2-1.5-0.3-2.3c0-0.3-0.1-0.6-0.1-0.9v-4.5c0-0.2,0.1-0.4,0.1-0.7c0.1-0.6,0.2-1.2,0.2-1.8c0.1-1.1,0.3-2.1,0.5-3.1
		c2-9.3,6.8-16.8,14.3-22.5c8.2-6.2,17.6-8.6,28-7.3c6.8,0.9,13,3.6,18.4,7.9c7.6,6.2,12.2,14.2,13.8,23.9c0.1,0.8,0.2,1.5,0.3,2.3
		c0,0.3,0.1,0.6,0.1,0.9V59z"/>
	<path class="st7" d="M144.4,34.5c0-0.4,0-0.9-0.1-1.6c-0.8-4.3-4.5-7.3-8.9-7.3c-0.3,0-0.7,0-1,0.1c-4.6,0.5-8,4.5-7.8,9.2
		c0.1,1.8,0.2,3.5,0.3,5.2c0,0.7,0.1,1.5,0.1,2.2l0.2,2.9c0.3,5.8,0.6,11.7,1,17.5c0.2,3.7,3,6.6,6.8,7c0.2,0,0.5,0,0.7,0
		c3.4,0,6.3-2.4,7.1-5.6c0.2-1.1,0.3-2.1,0.3-3c0-0.2,0-0.4,0-0.6c0.1-2.3,0.3-4.6,0.4-6.8c0.1-1.4,0.2-2.9,0.2-4.3
		c0.2-3.9,0.4-7.9,0.7-12l0.1-2.3c0-0.1,0-0.2,0-0.4C144.4,34.6,144.4,34.6,144.4,34.5z M138.4,37c-0.2,4.1-0.5,8-0.7,12
		c-0.1,1.4-0.2,2.9-0.2,4.3c-0.1,2.3-0.2,4.5-0.4,6.8c0,0.2,0,0.4,0,0.7c0,0.7-0.1,1.4-0.2,2c-0.2,0.7-0.9,1.2-1.5,1.1
		c-1-0.1-1.5-0.7-1.6-1.5c-0.3-5.8-0.6-11.7-1-17.5l-0.2-2.9c0-0.8-0.1-1.5-0.1-2.3c-0.1-1.7-0.2-3.4-0.3-5.1
		c-0.1-1.6,1.1-3.1,2.6-3.2c0.1,0,0.3,0,0.4,0c1.6,0,2.8,1,3.1,2.6c0,0.1,0,0.4,0,0.6c0,0.1,0,0.2,0,0.2L138.4,37z"/>
</g>
</svg>
