<?xml version="1.0" encoding="utf-8"?>
<!-- Generator: Adobe Illustrator 23.0.0, SVG Export Plug-In . SVG Version: 6.00 Build 0)  -->
<svg version="1.1" id="레이어_1" xmlns="http://www.w3.org/2000/svg" xmlns:xlink="http://www.w3.org/1999/xlink" x="0px"
	 y="0px" viewBox="0 0 24 24" style="enable-background:new 0 0 24 24;" xml:space="preserve">
<style type="text/css">
	.st0{fill:#222222;}
</style>
<path class="st0" d="M22,13H2c-0.5,0-1-0.4-1-1l0,0c0-0.5,0.4-1,1-1h20c0.5,0,1,0.4,1,1l0,0C23,12.6,22.6,13,22,13z"/>
<path class="st0" d="M22,5H2C1.4,5,1,4.6,1,4l0,0c0-0.5,0.4-1,1-1h20c0.5,0,1,0.4,1,1l0,0C23,4.6,22.6,5,22,5z"/>
<path class="st0" d="M22,21H2c-0.5,0-1-0.4-1-1l0,0c0-0.5,0.4-1,1-1h20c0.5,0,1,0.4,1,1l0,0C23,20.6,22.6,21,22,21z"/>
</svg>
