<?xml version="1.0" encoding="utf-8"?>
<!-- Generator: Adobe Illustrator 23.0.0, SVG Export Plug-In . SVG Version: 6.00 Build 0)  -->
<svg version="1.1" id="레이어_1" xmlns="http://www.w3.org/2000/svg" xmlns:xlink="http://www.w3.org/1999/xlink" x="0px"
	 y="0px" viewBox="0 0 24 24" style="enable-background:new 0 0 24 24;" xml:space="preserve">
<style type="text/css">
	.st0{fill:#8B9EFF;}
	.st1{fill:#FFFFFF;}
	.st2{fill:#1D9BF0;}
	.st3{clip-path:url(#SVGID_2_);fill:#3E82F1;}
	.st4{clip-path:url(#SVGID_4_);fill:#32A753;}
	.st5{clip-path:url(#SVGID_6_);fill:#F9BB00;}
	.st6{clip-path:url(#SVGID_8_);fill:#E74133;}
	.st7{fill:#222222;}
</style>
<g>
	<path class="st7" d="M22.6,2.8L2.8,22.6c-0.4,0.4-1,0.4-1.4,0h0c-0.4-0.4-0.4-1,0-1.4L21.2,1.4c0.4-0.4,1-0.4,1.4,0v0
		C23,1.8,23,2.4,22.6,2.8z"/>
	<path class="st7" d="M21.2,22.6L1.4,2.8C1,2.4,1,1.8,1.4,1.4l0,0c0.4-0.4,1-0.4,1.4,0l19.8,19.8c0.4,0.4,0.4,1,0,1.4l0,0
		C22.2,23,21.6,23,21.2,22.6z"/>
</g>
</svg>
