<?xml version="1.0" encoding="utf-8"?>
<!-- Generator: Adobe Illustrator 23.0.0, SVG Export Plug-In . SVG Version: 6.00 Build 0)  -->
<svg version="1.1" id="레이어_1" xmlns="http://www.w3.org/2000/svg" xmlns:xlink="http://www.w3.org/1999/xlink" x="0px"
	 y="0px" viewBox="0 0 180 180" style="enable-background:new 0 0 180 180;" xml:space="preserve">
<style type="text/css">
	.st0{fill:#8B9EFF;}
	.st1{fill:#FFFFFF;}
	.st2{fill:#1D9BF0;}
	.st3{clip-path:url(#SVGID_2_);fill:#3E82F1;}
	.st4{clip-path:url(#SVGID_4_);fill:#32A753;}
	.st5{clip-path:url(#SVGID_6_);fill:#F9BB00;}
	.st6{clip-path:url(#SVGID_8_);fill:#E74133;}
	.st7{fill:#222222;}
</style>
<g>
	<g>
		<path class="st7" d="M154.5,87.4c-0.4-8.7-2.6-17-6.2-24.5c-0.9-1.8-1.8-3.5-2.9-5.2c-10.5-17-28.9-28.6-50.1-29.5
			c-0.9,0-1.7-0.1-2.6-0.1c-0.9,0-1.7,0-2.6,0.1c-21.2,0.9-39.7,12.5-50.1,29.5c-1,1.7-2,3.4-2.9,5.2c-3.6,7.5-5.8,15.7-6.2,24.5
			c0,0.9-0.1,1.7-0.1,2.6c0,0.9,0,1.7,0.1,2.6c0.4,8.7,2.6,17,6.2,24.5c0.9,1.8,1.8,3.5,2.9,5.2c9.8,16,26.8,27.2,46.4,29.2
			c1.2,0.1,2.5,0.2,3.7,0.3c0.9,0,1.7,0.1,2.6,0.1c0.9,0,1.7,0,2.6-0.1c1.3-0.1,2.5-0.1,3.7-0.3c19.6-2,36.6-13.2,46.4-29.2
			c1-1.7,2-3.4,2.9-5.2c3.6-7.5,5.8-15.7,6.2-24.5c0-0.9,0.1-1.7,0.1-2.6C154.6,89.1,154.5,88.3,154.5,87.4z M139.2,57.7h-13.9
			c-1.5-3.8-3.2-7.4-5.1-10.7c-2.4-4-5.1-7.5-8.1-10.2C123.1,40.8,132.6,48.2,139.2,57.7z M125.7,87.4H95.3V62.9h26.3
			C124.1,70.4,125.5,78.7,125.7,87.4z M121.9,117.1H95.3V92.6h30.5C125.6,101.3,124.2,109.6,121.9,117.1z M59.6,92.6h30.5v24.5H63.5
			C61.2,109.6,59.8,101.3,59.6,92.6z M63.8,62.9h26.3v24.5H59.7C59.9,78.7,61.3,70.4,63.8,62.9z M90.1,57.7H65.7
			c1.2-2.8,2.5-5.5,4-8c5.6-9.3,12.8-14.9,20.4-16V57.7z M115.7,49.7c1.5,2.5,2.8,5.2,4,8H95.3v-24
			C102.9,34.8,110.1,40.3,115.7,49.7z M73.3,36.8c-2.9,2.8-5.6,6.2-8.1,10.2c-2,3.3-3.7,6.9-5.1,10.7H46.2
			C52.8,48.2,62.2,40.8,73.3,36.8z M42.9,62.9h15.4c-2.3,7.6-3.6,15.9-3.9,24.5H36.1C36.5,78.6,38.9,70.2,42.9,62.9z M36.1,92.6
			h18.3c0.2,8.6,1.4,16.9,3.7,24.5H42.9C38.9,109.8,36.5,101.4,36.1,92.6z M46.2,122.3h13.6c1.5,4.1,3.3,7.9,5.4,11.4
			c2.1,3.5,4.4,6.5,6.9,9.1C61.6,138.7,52.6,131.5,46.2,122.3z M69.7,131c-1.6-2.7-3.1-5.6-4.3-8.7h24.7v24.3
			c-0.9,0-1.8-0.1-2.7-0.2C80.8,144.5,74.6,139.2,69.7,131z M95.3,146.6v-24.3H120c-1.2,3.1-2.7,6-4.3,8.7
			c-4.9,8.2-11.1,13.5-17.7,15.4C97.1,146.5,96.2,146.6,95.3,146.6z M113.3,142.8c2.5-2.5,4.8-5.6,6.9-9.1c2.1-3.5,3.9-7.3,5.4-11.4
			h13.6C132.8,131.5,123.8,138.7,113.3,142.8z M142.4,117.1h-15.1c2.2-7.6,3.5-15.9,3.7-24.5h18.3
			C148.9,101.4,146.5,109.8,142.4,117.1z M130.9,87.4c-0.2-8.6-1.6-16.9-3.9-24.5h15.4c4,7.3,6.5,15.7,6.8,24.5H130.9z"/>
	</g>
	<path class="st7" d="M177.6,149.1l-2.8-23.2c-0.1-1-0.7-1.9-1.6-2.5c-0.9-0.5-1.9-0.7-2.9-0.3l-22.1,7.5c-1.8,0.6-2.7,2.5-2.1,4.3
		c0.6,1.8,2.5,2.7,4.3,2.1l13.5-4.6c-0.1,0.1-0.1,0.2-0.2,0.3c-11.9,19.9-31.7,34-54.3,38.7c-23.3,4.9-47.7-0.5-66.7-14.7
		c-18.6-13.9-30.7-35-33.1-58c-2.5-23.6,5.2-47.1,21.1-64.6C46.5,16.8,68.9,6.8,92.4,6.8c1.9,0,3.4-1.5,3.4-3.4
		c0-1.9-1.5-3.4-3.4-3.4C67,0,42.7,10.8,25.7,29.6C8.5,48.5,0.2,74,2.9,99.5c2.6,24.9,15.7,47.7,35.8,62.7
		C54.3,173.9,73.2,180,92.4,180c6.1,0,12.3-0.6,18.4-1.9c24.2-5,45.5-20.1,58.4-41.3l1.6,13.1c0.2,1.7,1.7,3,3.4,3
		c0.1,0,0.3,0,0.4,0C176.5,152.7,177.8,151,177.6,149.1z"/>
</g>
</svg>
