<?xml version="1.0" encoding="utf-8"?>
<!-- Generator: Adobe Illustrator 23.0.0, SVG Export Plug-In . SVG Version: 6.00 Build 0)  -->
<svg version="1.1" id="레이어_1" xmlns="http://www.w3.org/2000/svg" xmlns:xlink="http://www.w3.org/1999/xlink" x="0px"
	 y="0px" viewBox="0 0 192 100" style="enable-background:new 0 0 192 100;" xml:space="preserve">
<style type="text/css">
	.st0{fill:#FFFFFF;}
	.st1{fill:#606060;}
	.st2{fill:url(#SVGID_1_);}
	.st3{fill:url(#SVGID_2_);}
	.st4{fill:url(#SVGID_3_);}
	.st5{fill:url(#SVGID_4_);}
	.st6{fill:url(#SVGID_5_);}
	.st7{fill:url(#SVGID_6_);}
	.st8{fill:url(#SVGID_7_);}
	.st9{fill:url(#SVGID_8_);}
	.st10{fill:url(#SVGID_9_);}
	.st11{fill:none;}
	.st12{fill:#55BCE3;}
	.st13{fill:none;stroke:#231815;stroke-miterlimit:10;}
	.st14{fill:#49DEB1;}
	.st15{fill:#4E92DD;}
	.st16{fill:#E4E1F2;}
	.st17{fill:#231815;}
	.st18{fill:#3E3A39;}
	.st19{fill:#595757;}
	.st20{fill:#878787;}
	.st21{fill:#6F7DE7;}
	.st22{fill:#6C79E1;}
	.st23{fill:#CED1F4;}
	.st24{fill:#4952B8;}
	.st25{fill:#5267E3;}
	.st26{fill:#A8B4FF;}
	.st27{fill:url(#SVGID_10_);}
	.st28{fill:url(#SVGID_11_);}
	.st29{fill:url(#SVGID_12_);}
	.st30{fill:url(#SVGID_13_);}
	.st31{fill:url(#SVGID_14_);}
	.st32{fill:url(#SVGID_15_);}
	.st33{fill:url(#SVGID_16_);}
	.st34{fill:url(#SVGID_17_);}
	.st35{fill:url(#SVGID_18_);}
	.st36{fill:url(#SVGID_19_);}
	.st37{fill:url(#SVGID_20_);}
	.st38{fill:url(#SVGID_21_);}
	.st39{fill:url(#SVGID_22_);}
	.st40{fill:url(#SVGID_23_);}
	.st41{fill:url(#SVGID_24_);}
	.st42{fill:url(#SVGID_25_);}
	.st43{fill:url(#SVGID_26_);}
	.st44{fill:url(#SVGID_27_);}
	.st45{fill:url(#SVGID_28_);}
	.st46{fill:url(#SVGID_29_);}
	.st47{fill:url(#SVGID_30_);}
	.st48{fill:url(#SVGID_31_);}
	.st49{fill:url(#SVGID_32_);}
	.st50{fill:url(#SVGID_33_);}
	.st51{fill:url(#SVGID_34_);}
	.st52{fill:url(#SVGID_35_);}
	.st53{fill:url(#SVGID_36_);}
	.st54{fill:url(#SVGID_37_);}
	.st55{fill:url(#SVGID_38_);}
	.st56{fill:url(#SVGID_39_);}
	.st57{fill:url(#SVGID_40_);}
	.st58{fill:url(#SVGID_41_);}
	.st59{fill:url(#SVGID_42_);}
	.st60{fill:url(#SVGID_43_);}
	.st61{fill:url(#SVGID_44_);}
	.st62{fill:url(#SVGID_45_);}
	.st63{fill:url(#SVGID_46_);}
	.st64{fill:url(#SVGID_47_);}
	.st65{fill:url(#SVGID_48_);}
	.st66{fill:url(#SVGID_49_);}
	.st67{fill:url(#SVGID_50_);}
	.st68{fill:url(#SVGID_51_);}
	.st69{fill:url(#SVGID_52_);}
	.st70{fill:url(#SVGID_53_);}
	.st71{fill:url(#SVGID_54_);}
	.st72{fill:url(#SVGID_55_);}
	.st73{fill:url(#SVGID_56_);}
	.st74{fill:url(#SVGID_57_);}
	.st75{fill:url(#SVGID_58_);}
	.st76{fill:url(#SVGID_59_);}
	.st77{fill:url(#SVGID_60_);}
	.st78{fill:url(#SVGID_61_);}
	.st79{fill:url(#SVGID_62_);}
	.st80{fill:url(#SVGID_63_);}
	.st81{fill:url(#SVGID_64_);}
	.st82{fill:url(#SVGID_65_);}
	.st83{fill:#666666;}
	.st84{fill:#CBCBCB;}
	.st85{fill:url(#SVGID_66_);}
	.st86{fill:url(#SVGID_67_);}
	.st87{fill:url(#SVGID_68_);}
	.st88{fill:url(#SVGID_69_);}
	.st89{fill:url(#SVGID_70_);}
	.st90{fill:url(#SVGID_71_);}
	.st91{fill:url(#SVGID_72_);}
	.st92{fill:url(#SVGID_73_);}
	.st93{fill:url(#SVGID_74_);}
	.st94{fill:url(#SVGID_75_);}
	.st95{fill:url(#SVGID_76_);}
	.st96{fill:url(#SVGID_77_);}
	.st97{fill:url(#SVGID_78_);}
	.st98{fill:#111111;}
	.st99{fill:url(#SVGID_79_);}
	.st100{fill:url(#SVGID_80_);}
	.st101{fill:url(#SVGID_81_);}
	.st102{fill:url(#SVGID_82_);}
	.st103{fill:url(#SVGID_83_);}
	.st104{fill:url(#SVGID_84_);}
	.st105{fill:url(#SVGID_85_);}
	.st106{fill:url(#SVGID_86_);}
	.st107{fill:url(#SVGID_87_);}
	.st108{fill:url(#SVGID_88_);}
	.st109{fill:url(#SVGID_89_);}
	.st110{fill:url(#SVGID_90_);}
	.st111{fill:url(#SVGID_91_);}
	.st112{fill:url(#SVGID_92_);}
	.st113{fill:url(#SVGID_93_);}
	.st114{fill:url(#SVGID_94_);}
	.st115{fill:url(#SVGID_95_);}
	.st116{fill:url(#SVGID_96_);}
	.st117{fill:#FFEFE5;}
	.st118{fill:#FFC9C9;}
	.st119{fill:url(#SVGID_99_);}
	.st120{fill:url(#SVGID_100_);}
	.st121{fill:#A9A9A9;}
	.st122{fill:url(#SVGID_101_);}
	.st123{fill:url(#SVGID_102_);}
	.st124{fill:url(#SVGID_103_);}
	.st125{fill:url(#SVGID_104_);}
	.st126{fill:url(#SVGID_105_);}
	.st127{fill:url(#SVGID_106_);}
	.st128{fill:url(#SVGID_107_);}
	.st129{fill:url(#SVGID_108_);}
	.st130{fill:url(#SVGID_109_);}
	.st131{fill:url(#SVGID_110_);}
	.st132{fill:url(#SVGID_111_);}
	.st133{fill:url(#SVGID_112_);}
	.st134{fill:url(#SVGID_113_);}
	.st135{fill:url(#SVGID_114_);}
	.st136{fill:url(#SVGID_115_);}
	.st137{fill:url(#SVGID_116_);}
	.st138{fill:url(#SVGID_117_);}
	.st139{fill:url(#SVGID_118_);}
	.st140{fill:url(#SVGID_119_);}
	.st141{fill:url(#SVGID_120_);}
	.st142{fill:url(#SVGID_121_);}
	.st143{fill:url(#SVGID_122_);}
	.st144{fill:url(#SVGID_123_);}
	.st145{fill:url(#SVGID_124_);}
	.st146{fill:url(#SVGID_125_);}
	.st147{fill:url(#SVGID_126_);}
	.st148{fill:url(#SVGID_127_);}
	.st149{fill:url(#SVGID_128_);}
	.st150{fill:url(#SVGID_129_);}
	.st151{fill:url(#SVGID_130_);}
	.st152{fill:url(#SVGID_131_);}
	.st153{fill:url(#SVGID_132_);}
	.st154{fill:url(#SVGID_133_);}
	.st155{fill:url(#SVGID_134_);}
	.st156{fill:url(#SVGID_135_);}
	.st157{fill:url(#SVGID_136_);}
	.st158{fill:url(#SVGID_137_);}
	.st159{fill:url(#SVGID_138_);}
	.st160{fill:url(#SVGID_139_);}
	.st161{fill:url(#SVGID_140_);}
	.st162{fill:url(#SVGID_141_);}
	.st163{fill:url(#SVGID_142_);}
	.st164{fill:url(#SVGID_143_);}
	.st165{fill:url(#SVGID_144_);}
	.st166{fill:url(#SVGID_145_);}
	.st167{clip-path:url(#SVGID_148_);fill:url(#SVGID_149_);}
	.st168{fill:url(#SVGID_150_);}
	.st169{fill:url(#SVGID_151_);}
	.st170{fill:url(#SVGID_152_);}
	.st171{fill:url(#SVGID_153_);}
	.st172{fill:url(#SVGID_154_);}
	.st173{fill:url(#SVGID_155_);}
	.st174{fill:url(#SVGID_156_);}
	.st175{fill:url(#SVGID_157_);}
	.st176{fill:url(#SVGID_158_);}
	.st177{clip-path:url(#SVGID_160_);}
	.st178{clip-path:url(#SVGID_163_);fill:url(#SVGID_164_);}
	.st179{opacity:0.5;}
	.st180{clip-path:url(#SVGID_166_);}
	.st181{clip-path:url(#SVGID_168_);}
	.st182{fill:url(#SVGID_169_);}
	.st183{fill:url(#SVGID_170_);}
	.st184{fill:url(#SVGID_171_);}
	.st185{fill:url(#SVGID_172_);}
	.st186{fill:url(#SVGID_173_);}
	.st187{fill:url(#SVGID_174_);}
	.st188{fill:url(#SVGID_175_);}
	.st189{fill:url(#SVGID_176_);}
	.st190{fill:url(#SVGID_177_);}
	.st191{enable-background:new    ;}
	.st192{fill:url(#SVGID_178_);}
	.st193{fill:url(#SVGID_179_);}
	.st194{fill:url(#SVGID_180_);}
	.st195{fill:url(#SVGID_181_);}
	.st196{fill:url(#SVGID_182_);}
	.st197{fill:url(#SVGID_183_);}
	.st198{fill:url(#SVGID_184_);}
	.st199{fill:url(#SVGID_185_);}
	.st200{fill:url(#SVGID_186_);}
	.st201{fill:url(#SVGID_187_);}
	.st202{fill:url(#SVGID_188_);}
	.st203{fill:url(#SVGID_189_);}
	.st204{fill:url(#SVGID_190_);}
	.st205{fill:url(#SVGID_191_);}
	.st206{fill:url(#SVGID_192_);}
	.st207{fill:url(#SVGID_193_);}
	.st208{fill:url(#SVGID_194_);}
	.st209{fill:url(#SVGID_195_);}
	.st210{fill:url(#SVGID_196_);}
	.st211{fill:url(#SVGID_197_);}
	.st212{fill:url(#SVGID_198_);}
	.st213{fill:url(#SVGID_199_);}
	.st214{fill:url(#SVGID_200_);}
	.st215{fill:url(#SVGID_201_);}
	.st216{fill:url(#SVGID_202_);}
	.st217{fill:url(#SVGID_203_);}
	.st218{fill:url(#SVGID_204_);}
	.st219{fill:url(#SVGID_205_);}
	.st220{fill:url(#SVGID_206_);}
	.st221{fill:url(#SVGID_207_);}
	.st222{fill:url(#SVGID_208_);}
	.st223{fill:url(#SVGID_209_);}
	.st224{fill:url(#SVGID_210_);}
	.st225{fill:url(#SVGID_211_);}
	.st226{fill:url(#SVGID_212_);}
	.st227{fill:url(#SVGID_213_);}
	.st228{fill:url(#SVGID_214_);}
	.st229{fill:url(#SVGID_215_);}
	.st230{fill:url(#SVGID_216_);}
	.st231{fill:url(#SVGID_217_);}
	.st232{fill:url(#SVGID_218_);}
	.st233{fill:url(#SVGID_219_);}
	.st234{fill:url(#SVGID_220_);}
	.st235{fill:url(#SVGID_221_);}
	.st236{clip-path:url(#SVGID_224_);fill:url(#SVGID_225_);}
	.st237{fill:url(#SVGID_226_);}
	.st238{fill:url(#SVGID_227_);}
	.st239{fill:url(#SVGID_228_);}
	.st240{fill:url(#SVGID_229_);}
	.st241{fill:url(#SVGID_230_);}
	.st242{fill:url(#SVGID_231_);}
	.st243{fill:url(#SVGID_232_);}
	.st244{fill:url(#SVGID_233_);}
	.st245{fill:url(#SVGID_234_);}
	.st246{clip-path:url(#SVGID_236_);}
	.st247{clip-path:url(#SVGID_239_);fill:url(#SVGID_240_);}
	.st248{fill:url(#SVGID_241_);}
	.st249{fill:url(#SVGID_242_);}
	.st250{fill:url(#SVGID_243_);}
	.st251{fill:url(#SVGID_244_);}
	.st252{fill:url(#SVGID_245_);}
	.st253{fill:url(#SVGID_246_);}
	.st254{fill:url(#SVGID_247_);}
	.st255{fill:url(#SVGID_248_);}
	.st256{fill:url(#SVGID_249_);}
	.st257{fill:url(#SVGID_250_);}
	.st258{fill:url(#SVGID_251_);}
	.st259{fill:url(#SVGID_252_);}
	.st260{fill:url(#SVGID_253_);}
	.st261{fill:url(#SVGID_254_);}
	.st262{fill:url(#SVGID_255_);}
	.st263{fill:url(#SVGID_256_);}
	.st264{fill:url(#SVGID_257_);}
	.st265{fill:url(#SVGID_258_);}
	.st266{fill:url(#SVGID_259_);}
	.st267{fill:url(#SVGID_260_);}
	.st268{fill:url(#SVGID_261_);}
	.st269{fill:url(#SVGID_262_);}
	.st270{fill:url(#SVGID_263_);}
	.st271{fill:url(#SVGID_264_);}
	.st272{fill:url(#SVGID_265_);}
	.st273{fill:url(#SVGID_266_);}
	.st274{fill:url(#SVGID_267_);}
	.st275{fill:url(#SVGID_268_);}
	.st276{fill:url(#SVGID_269_);}
	.st277{fill:url(#SVGID_270_);}
	.st278{fill:url(#SVGID_271_);}
	.st279{fill:url(#SVGID_272_);}
	.st280{fill:url(#SVGID_273_);}
	.st281{fill:url(#SVGID_274_);}
	.st282{fill:url(#SVGID_275_);}
	.st283{clip-path:url(#SVGID_278_);fill:url(#SVGID_279_);}
	.st284{fill:url(#SVGID_280_);}
	.st285{fill:url(#SVGID_281_);}
	.st286{fill:url(#SVGID_282_);}
	.st287{fill:url(#SVGID_283_);}
	.st288{fill:url(#SVGID_284_);}
	.st289{fill:url(#SVGID_285_);}
	.st290{fill:url(#SVGID_286_);}
	.st291{fill:url(#SVGID_287_);}
	.st292{fill:url(#SVGID_288_);}
	.st293{clip-path:url(#SVGID_290_);}
	.st294{clip-path:url(#SVGID_293_);fill:url(#SVGID_294_);}
	.st295{clip-path:url(#SVGID_296_);}
	.st296{clip-path:url(#SVGID_298_);}
	.st297{fill:url(#SVGID_299_);}
	.st298{fill:url(#SVGID_300_);}
	.st299{fill:url(#SVGID_301_);}
	.st300{fill:url(#SVGID_302_);}
	.st301{fill:url(#SVGID_303_);}
	.st302{fill:url(#SVGID_304_);}
	.st303{fill:url(#SVGID_305_);}
	.st304{fill:url(#SVGID_306_);}
	.st305{fill:url(#SVGID_307_);}
	.st306{fill:url(#SVGID_308_);}
	.st307{fill:url(#SVGID_309_);}
	.st308{fill:url(#SVGID_310_);}
	.st309{fill:url(#SVGID_311_);}
	.st310{fill:url(#SVGID_312_);}
	.st311{fill:url(#SVGID_313_);}
	.st312{opacity:0.7;}
	.st313{fill:url(#SVGID_314_);}
	.st314{fill:url(#SVGID_315_);}
	.st315{fill:url(#SVGID_316_);}
	.st316{fill:url(#SVGID_317_);}
	.st317{fill:url(#SVGID_318_);}
	.st318{fill:url(#SVGID_319_);}
	.st319{fill:url(#SVGID_320_);}
	.st320{fill:url(#SVGID_321_);}
	.st321{fill:url(#SVGID_322_);}
	.st322{fill:url(#SVGID_323_);}
	.st323{fill:url(#SVGID_324_);}
	.st324{fill:url(#SVGID_325_);}
	.st325{opacity:0.6;}
	.st326{clip-path:url(#SVGID_327_);}
	.st327{clip-path:url(#SVGID_329_);}
	.st328{clip-path:url(#SVGID_331_);}
	.st329{fill:url(#SVGID_332_);}
	.st330{fill:url(#SVGID_333_);}
	.st331{fill:url(#SVGID_334_);}
	.st332{fill:url(#SVGID_335_);}
	.st333{fill:url(#SVGID_336_);}
	.st334{fill:url(#SVGID_337_);}
	.st335{fill:url(#SVGID_338_);}
	.st336{fill:url(#SVGID_339_);}
	.st337{fill:url(#SVGID_340_);}
	.st338{fill:url(#SVGID_341_);}
	.st339{fill:url(#SVGID_342_);}
	.st340{fill:url(#SVGID_343_);}
	.st341{fill:url(#SVGID_344_);}
	.st342{fill:url(#SVGID_345_);}
	.st343{fill:url(#SVGID_346_);}
	.st344{fill:url(#SVGID_347_);}
	.st345{fill:url(#SVGID_348_);}
	.st346{fill:url(#SVGID_349_);}
	.st347{fill:url(#SVGID_350_);}
	.st348{fill:url(#SVGID_351_);}
	.st349{fill:url(#SVGID_352_);}
	.st350{fill:url(#SVGID_353_);}
	.st351{fill:url(#SVGID_354_);}
	.st352{fill:url(#SVGID_355_);}
	.st353{fill:url(#SVGID_356_);}
	.st354{fill:url(#SVGID_357_);}
	.st355{fill:url(#SVGID_358_);}
	.st356{fill:url(#SVGID_359_);}
	.st357{fill:url(#SVGID_360_);}
	.st358{fill:url(#SVGID_361_);}
	.st359{fill:url(#SVGID_362_);}
	.st360{fill:url(#SVGID_363_);}
	.st361{fill:url(#SVGID_364_);}
	.st362{fill:url(#SVGID_365_);}
	.st363{fill:url(#SVGID_366_);}
	.st364{fill:url(#SVGID_367_);}
	.st365{fill:url(#SVGID_368_);}
	.st366{fill:url(#SVGID_369_);}
	.st367{fill:url(#SVGID_370_);}
	.st368{fill:url(#SVGID_371_);}
	.st369{clip-path:url(#SVGID_374_);fill:url(#SVGID_375_);}
	.st370{fill:url(#SVGID_376_);}
	.st371{fill:url(#SVGID_377_);}
	.st372{fill:url(#SVGID_378_);}
	.st373{fill:url(#SVGID_379_);}
	.st374{fill:url(#SVGID_380_);}
	.st375{fill:url(#SVGID_381_);}
	.st376{fill:url(#SVGID_382_);}
	.st377{fill:url(#SVGID_383_);}
	.st378{fill:url(#SVGID_384_);}
	.st379{clip-path:url(#SVGID_386_);}
	.st380{clip-path:url(#SVGID_389_);fill:url(#SVGID_390_);}
	.st381{fill:url(#SVGID_391_);}
	.st382{fill:url(#SVGID_392_);}
	.st383{fill:url(#SVGID_393_);}
	.st384{fill:url(#SVGID_394_);}
	.st385{fill:url(#SVGID_395_);}
	.st386{fill:url(#SVGID_396_);}
	.st387{fill:url(#SVGID_397_);}
	.st388{fill:url(#SVGID_398_);}
	.st389{fill:url(#SVGID_399_);}
	.st390{fill:url(#SVGID_400_);}
	.st391{fill:url(#SVGID_401_);}
	.st392{clip-path:url(#SVGID_403_);}
	.st393{clip-path:url(#SVGID_405_);}
	.st394{clip-path:url(#SVGID_407_);}
	.st395{fill:url(#SVGID_408_);}
	.st396{fill:url(#SVGID_409_);}
	.st397{fill:url(#SVGID_410_);}
	.st398{fill:url(#SVGID_411_);}
	.st399{fill:url(#SVGID_412_);}
	.st400{fill:url(#SVGID_413_);}
	.st401{fill:url(#SVGID_414_);}
	.st402{fill:url(#SVGID_415_);}
	.st403{fill:url(#SVGID_416_);}
	.st404{fill:url(#SVGID_417_);}
	.st405{fill:#DDDDDD;}
	.st406{clip-path:url(#SVGID_419_);fill:#DDDDDD;}
	.st407{clip-path:url(#SVGID_421_);fill:#DDDDDD;}
	.st408{clip-path:url(#SVGID_423_);fill:#DDDDDD;}
	.st409{clip-path:url(#SVGID_425_);fill:#DDDDDD;}
	.st410{clip-path:url(#SVGID_427_);fill:#DDDDDD;}
	.st411{clip-path:url(#SVGID_429_);fill:#DDDDDD;}
</style>
<g>
	<g class="st325">
		
			<image style="overflow:visible;" width="1085" height="701" xlink:href="E524AC59.png"  transform="matrix(0.24 0 0 0.24 -34.0517 -34.0087)">
		</image>
	</g>
	<g class="st325">
		
			<image style="overflow:visible;" width="385" height="405" xlink:href="E524AC5B.png"  transform="matrix(0.24 0 0 0.24 133.9483 -27.2887)">
		</image>
	</g>
	<g>
		<path class="st0" d="M190.3,66.3l-6.2-9.1l-16-2.7l0.3-2.1l-0.2-0.2l2.7-21.8l-7.8-8.1l-0.2-0.5c0,0,1.1,0,1.2-0.2
			c0-0.2-0.5-0.3-0.5-0.3s0.4-0.3,0-0.7c-0.3-0.4-1.4-0.4-1.4-0.4c0.1-0.1-0.2-0.7-0.2-0.7s0.7,0.1,0.7,0c0.1-0.1-1.1-1.2-1.1-1.2
			l-0.3-0.8c0,0,1.3,0.6,1.4,0.4c0.1-0.2-0.9-0.8-0.9-0.8s0.4,0,0.5-0.1c0.1-0.1-0.9-0.7-0.9-0.7s-0.3-4.1-0.4-3.4
			c-0.2,0.7-0.2,2.9-0.2,2.9s-2,0.6-1.9,0.9c0.2,0.3,0.6,0.1,0.6,0.1s-0.3,0.6,0.2,0.9c0.5,0.3,0.7,0,0.7,0c0.1,0.4-0.3,1.6-0.3,1.6
			s-0.8-0.1-1.1,0.1c-0.3,0.2-0.7,1.1-0.7,1.1c0-0.1-0.8-0.6-0.8-0.6s0.5-0.2,0.5-0.4c0-0.2-1.4-0.7-1.7-1.2c-0.4-0.4-1.1-2-1.1-2
			c0.3,0.1,0.4-0.2,0.4-0.2s0.5,0.5,0.9,0.6c0.4,0.1,0-0.3,0-0.3c0.1,0,0.5-0.2,0.5-0.2c0.4,0.1,0.6-0.3,0.1-0.5
			c-0.5-0.2-1.7-0.6-1.9-0.9c-0.2-0.3-0.2-0.9-0.2-0.9s0.4,0.3,0.5,0.1c0.1-0.3-0.5-1-0.6-1.4c-0.1-0.4,0.7-0.6,0.7-0.6
			c1.8,1.1,1,0.1,1,0.1c0.6,0.1,0.8-0.3,0.8-0.3c0.5,0.1,1.1-0.3,0.4-0.5c-0.6-0.2-2.6-1.1-2.7-1.7c-0.2-1.3-0.3-5.7-0.4-7.5
			c0-0.9-0.6,3.6-0.6,3.6s-0.5,0.5-0.3,0.9c0.1,0.3,0.3,0.3,0.3,0.3c-0.7,1.3-0.2,1.4-0.2,1.4c-0.3,0.9-2.4,1.3-2.4,1.3
			s-1.3,0.3-1.1,0.5c0.1,0.2,0.4,0.3,0.4,0.3s-1.7,1-1.1,1.3c0.6,0.3,0.8-0.1,0.8-0.1c0.4,0.2,0.9,0.1,0.9,0.1s0.1,0.6,0.4,0.7
			c0.4,0.2,0.4-0.3,0.4-0.3c0.1,0.1,0.7,0.3,0.7,0.3s-0.4,0.6-0.3,0.7c0.1,0.1,0.6,0,0.6,0c-0.1,0.5-0.7,0.8-0.8,0.9
			c0,0.1-2.3,0.5-2.4,0.8c-0.1,0.3,0.5,0.3,0.5,0.3s-1.5,0.8-1.4,0.9c0.1,0.1,0.5,0,0.5,0s-0.3,0.7-0.1,0.7c0.2,0,0.4-0.3,0.4-0.3
			c0.3,0.1,0.7,0.1,0.7,0.1s-0.1,0.4,0.2,0.6c0.3,0.2,0.6-0.2,0.6-0.2c0.3,0,0.7,0.4,0.7,0.4s-3.4,1.7-3.2,1.9
			c0.1,0.3,0.7-0.1,0.7-0.1c0.4,0.1,0.6,0,0.6,0c0.2,0.4,0.4,0.5,0.4,0.5s-1.1,0.8-0.8,0.9c0.4,0.1,0.6-0.1,0.6-0.1s-0.6,2-1.3,1.8
			c-0.7-0.1-2-1-2-1s0.6,0,0.8,0c0.2-0.1-0.3-0.4-0.6-0.7c0,0,0.6-0.1,0.4-0.4s-1.4-1.2-1.7-1.9c-0.3-0.7-0.3-1.4-0.3-1.4
			s0.6,0.5,1.1,0.5c0.4,0.1,0.2-0.3,0.2-0.3s0.6,0.5,1,0.5c0.5,0-0.2-0.5-0.2-0.5c0.6-0.1,0.3-0.3,0.3-0.3s-0.7-0.2-1.5-0.7
			c-0.8-0.5-1.2-1.4-1.2-1.4c0.5,0.1,0.6-0.2,0.6-0.2s0.4,0.5,0.7,0.4c0.3-0.1-0.3-0.5-0.3-0.5c0.4,0.2,0.6-0.2,0.4-0.2
			c-0.1,0-1.3-1.1-1.5-1.5c-0.2-0.4-0.4-2.1-0.4-2.1s-0.1,2.1-0.2,2.7s-1.9,1.1-1.9,1.3c0.1,0.2,0.4,0.1,0.4,0.1s-0.1,0.6,0.1,0.7
			c0.2,0.1,0.3-0.3,0.3-0.3c0.2,0.1,0.8,0,0.8,0c-0.1,0.4-0.8,0.8-0.8,0.8s-0.7,0.2-0.7,0.4c0,0.2,0.5,0.4,0.5,0.4s-0.9,0.1-1,0.3
			c-0.1,0.2,0.5,0.2,0.5,0.2s-0.7,0.3-1.2,0s-0.5-0.6-0.5-0.6c0.4,0.1,0.1-0.4,0.1-0.4c-0.6-0.4-1-1.3-1-1.3s0.8,0.5,1,0.2
			c0.1-0.3-0.5-0.6-0.5-0.6c0.1-0.3-0.9-0.9-0.9-0.9c-0.1-0.4,0.2-0.7,0.2-0.7s0.8,0.3,1,0.1c0.2-0.3-0.7-0.9-0.7-0.9
			c0.1-0.1-0.7-0.8-0.7-0.8s0.5,0.1,0.7,0c0.2-0.1-0.4-0.5-0.4-0.5c0.3-0.2-1.1-0.7-1.1-0.8c-0.1-0.1-0.4-1.8-0.3-2.2
			c0.1-0.3,0.1-1.1,0.1-1.1s-0.2,0.7-0.4,0.9c-0.2,0.2-0.1,3.3-0.1,3.3s-1,0.6-1,0.9c0,0.3,0.5,0.2,0.5,0.2
			c-0.5,0.5-2.3,1.4-2.1,1.6c0.1,0.2,0.6-0.2,0.6-0.2s0.3,0.5,0.6,0.5c0.3,0.1,0.3-0.3,0.3-0.3c0.4,0.3,1.2,0.2,1.2,0.2
			s-0.4,0.5-0.4,0.7c0.1,0.2,0.6,0,0.6,0c-0.2,0.5-1.9,1-1.9,1s-1.7,0.1-1.7,0.2c0,0.1,0.8,0.2,0.8,0.2s-0.9,0.3-0.7,0.4
			c0.3,0.1,0.9,0.1,0.9,0.1s-0.2,0.5,0,0.6c0.2,0.2,0.6-0.1,0.6-0.1c0.2,0.1,0.5,0.2,0.5,0.2s-0.9,0.5-1,0.8c0,0.2,0.4,0.3,0.4,0.3
			s-2.2,0.9-2.6,0.6c-0.4-0.3-0.4-0.7-0.4-0.7c0.4-0.1,0.2-0.5-0.2-0.6c-0.6-0.2-1.5-0.8-1.5-0.8c-0.3-0.3-0.5-1.2-0.5-1.2
			s0.4,0.2,0.8,0.1c0,0,0.3,0.5,0.8,0.5s-0.1-0.4-0.1-0.4s0.6-0.1,0.1-0.3c-0.7-0.3-1.1-1.4-1.1-1.4s1.8,0.8,1.9,0.6
			c0-0.3-0.6-0.4-0.6-0.4c0.1-0.1-0.3-0.3-0.3-0.3s0.5,0.1,0.7,0c0.3-0.1,0.1-0.3,0.1-0.3c-0.8-0.2-2.4-1.2-2.4-1.2
			c0.2,0,0.3-0.2,0.3-0.2s0.5,0.3,0.6,0.2c0.2-0.1,0-0.5,0-0.5c0.6,0.1,0.2-0.4,0.2-0.4s-1-0.7-1.3-1.2C131,9.9,131,9.3,131,9.3
			s0.2,0.2,0.6,0.4c0.3,0.2,0.4,0,0.4,0s0.5,0.3,0.6,0.2s-0.2-0.5-0.2-0.5c-0.4-0.4-1.5-1.6-1.5-1.6s-0.2-3-0.3-3.3
			c-0.1-0.2-0.3,3.2-0.3,3.2s-1.8,1.1-1.8,1.4c0,0.2,0.4,0.1,0.4,0.1s-0.2,0.6,0,0.7c0.2,0.1,0.3-0.2,0.3-0.2c0.3,0.3,0.8,0,0.8,0
			c0.2,0.6-0.1,1.6-0.1,1.6c-0.6,0.2-2.9,1.1-2.7,1.2c0.3,0.1,0.4-0.1,0.4-0.1s-0.3,0.6-0.2,0.6c0.1,0,0.7-0.2,0.7-0.2
			s0.1,0.6,0.4,0.6c0.4,0,0.3-0.3,0.3-0.3c0.3,0.1,0.7,0.1,0.7,0.1c-0.1,0.6-1.1,0.9-1.1,0.9s-1,0.3-1,0.5c-0.1,0.2,0.6,0.4,0.6,0.4
			s-1.9,0.9-1.8,1c0.1,0.1,0.5,0,0.5,0c-0.1,0.2-1.1,0.7-1.1,0.7c0.2,0.2,0.9,0,0.9,0s0.2,0.3,0.6,0.4c0.4,0.1,0.6-0.2,0.6-0.2
			c0.4,0.1,0.7,0,0.7,0c-0.1,0.6-1.1,2.3-1.1,2.3c-0.8,0.3-1.9,0.4-1.9,0.4c0.1,0.1,0.2,0.1,0.3,0.1c0,0-0.1,0.2,0.1,0.3
			c0.2,0.1,0.7,0,0.7,0s-0.1,0.3,0.1,0.4c0.2,0.1,0.8,0.1,0.8,0.1c0,0.5-0.5,1.3-0.5,1.3c-1.2,0-3.4-0.9-3.4-0.9s0.7,0.2,0.9,0.2
			c0.2,0,0-0.3,0-0.3s0.3,0.1,0.3,0c0-0.1-0.9-0.7-1-0.9c-0.4-0.6-0.6-1.9-0.6-1.9c0.2,0.1,0.3-0.1,0.3-0.1s0.3,0.6,0.6,0.7
			c0.2,0.1,0.2-0.2,0.2-0.2s0.4,0.3,0.6,0.2c0.2,0-0.1-0.4-0.1-0.4c-0.9-0.9-1.2-1.5-1.2-1.5s-0.1-1.2-0.1-1.7
			c0-0.5-0.1-0.7-0.1-0.2c0,0.5,0,1.8-0.9,2c-0.9,0.1-1.3,0.9-1.1,1c0.2,0.1,0.4-0.1,0.4-0.1s0.1,0.4,0.2,0.4c0.2,0,0.1-0.2,0.1-0.2
			c0.3,0.1,0.6-0.1,0.6-0.1c0,0.5-0.1,1.9-0.1,1.9c-0.1,0-1.6,0.7-1.4,0.8c0.2,0.1,0.4,0,0.4,0s0,0.1,0.2,0.3c0.1,0.1,0.5,0,0.5,0
			c-0.1,0.3-0.6,0.7-0.6,0.7s-1.8-0.9-2.2-1.3c-0.4-0.4-0.7-1.8-0.7-1.8s0.6,0.4,0.8,0.5c0.2,0.1,0.3-0.2,0.3-0.2s0.5,0.5,0.7,0.5
			c0.2,0-0.1-0.4-0.1-0.4s0.4,0.1,0.3-0.2c-0.5-0.8-1.8-1.9-1.8-1.9l-0.2-0.7c0,0,0.2,0.2,0.5,0.3c0.3,0.1,0.3-0.2,0.3-0.2
			s0.3,0.3,0.4,0c0.1-0.2-0.7-0.7-0.7-0.7s0.2,0.1,0.4,0c0.3-0.1-0.5-0.8-0.5-0.8s-0.1-0.9-0.2-1.8c0-0.9-0.2-2.1-0.2-1.7
			c0,1-0.5,2.7-0.5,2.7s-1,0.1-1,0.3c0,0.1,0.5,0.1,0.5,0.1c-0.6,0-1.1,0.6-1,0.6c0.2,0.1,0.3,0,0.3,0s0,0.5,0.1,0.4
			c0.2,0,0.3-0.1,0.3-0.1s0.1,0.1,0.3,0.2c0.2,0,0.5-0.2,0.5-0.2c0,0.3-0.1,1.2-0.1,1.2c-0.7,0.2-1.9,0.8-1.8,1c0.1,0.1,0.4,0,0.5,0
			c0.1,0-0.1,0.4,0.1,0.5c0.2,0.1,0.3-0.1,0.3-0.1c0.2,0.2,0.9,0,0.9,0c0,0.5-0.1,1.6-0.1,1.6s-1.3,0.5-1.2,0.6
			c0.1,0.1,0.3,0.1,0.3,0.1s0,0.3,0.2,0.4c0.2,0.1,0.4-0.1,0.4-0.1c0,0.5-0.5,1.4-0.5,1.4c-0.6,0.2-1.8-0.2-1.8-0.2s0.4-0.1,0.4-0.2
			c0-0.1-0.5-0.4-0.5-0.4c-0.8-0.7-0.8-1.4-0.8-1.4s0.3,0.3,0.7,0.3c0.4,0,0.1-0.3,0.1-0.3s0.7,0.3,0.8,0.2c0-0.1-0.6-0.5-0.6-0.5
			s0.5-0.1,0.3-0.2c-0.2-0.2-0.8-0.7-0.9-1c-0.1-0.2-0.2-2.6-0.2-2.6s0-0.6,0,0.1c-0.1,0.7-0.5,2.5-0.5,2.5c-0.1,0-1.8,1.1-1.7,1.2
			c0.1,0.1,0.3-0.1,0.3-0.1s0,0.4,0.2,0.4c0.2,0.1,0.4,0,0.4,0c0.2,0.1,0.5,0,0.5,0c-0.3,1.4-2,1.9-2,1.9c-0.2-0.1-0.4-0.5-0.4-0.5
			s0.5,0,0.5-0.1c0-0.1-0.4-0.6-0.5-0.8c-0.3-0.5-0.5-2.6-0.5-2.6s-0.1,2-0.9,2.4c-0.8,0.4-1.2,0.4-1.2,0.4c0.3,0.3,0.7,0.2,0.7,0.2
			s-0.3,0.2-0.1,0.4c0.2,0.2,0.5,0,0.5,0c-0.1,0.3-0.6,0.8-0.6,0.8c-0.1-0.3-1-0.7-1.4-1.3c-0.4-0.6-0.3-1.3-0.3-1.3
			s0.3,0.1,0.5,0.1c0.2,0,0.2-0.2,0.2-0.2s0.4,0.2,0.6,0.1c0.2-0.1-0.1-0.3-0.1-0.3c0.2-0.3-0.4-0.5-0.7-0.7c-0.3-0.2-0.8-1-0.9-1.7
			c0-0.7,0-1.1,0-1.1c0.4,0.1,0.4-0.3,0.4-0.3s0.8,0.1,0.8,0c-0.1-0.1-1.1-1-1.2-1.3c-0.1-0.2-0.1-1.1-0.1-1.5
			c0,0.5-0.1,1.2-0.2,1.3c-0.1,0.2-1.6,0.5-1.5,0.7c0,0.2,0.7,0.1,0.7,0.1s-0.2,0.2,0.1,0.2c0.3,0,0.5-0.2,0.5-0.2
			c0,0.7-0.8,2.1-0.8,2.1s-0.6,0.3-0.6,0.5c0,0.1,0.3,0.3,0.3,0.3s-0.1,0.1-0.5,0.2c-0.4,0.1-0.2,0.4-0.2,0.4s-0.3,0.1-0.2,0.2
			c0.1,0.1,0.6,0.2,0.6,0.2s-0.1,0.2,0.2,0.3c0.5,0.1,0.8-0.1,0.8-0.1c0.1,0.5-0.1,1.1-0.1,1.1s-1,0.4-0.8,0.5
			c0.2,0.1,0.4,0.1,0.4,0.1s-0.7,0.4-0.7,0.5c0,0.1,0.5,0.2,0.5,0.2c-0.3,0.3-1.9,0.6-1.9,0.6c-0.2-0.4-0.6-1.3-0.6-1.3
			s0.8,0.7,1,0.6c0.2,0,0-0.2,0-0.2s0.5,0,0.4-0.2c-0.1-0.2-0.4-0.3-0.9-0.9c-0.5-0.6-0.6-1.3-0.6-1.3s0.4,0,0.5-0.1
			c0.1-0.1,0.1-0.2,0.1-0.2s0.3,0.2,0.3,0c0-0.2-0.8-1-0.8-1c-0.1-0.3-0.2-1.7-0.2-1.7s0,1.3-0.1,1.4c-0.1,0.1-0.8,0.4-0.7,0.5
			c0.1,0.1,0.4,0.2,0.4,0.2s-0.6,0.3-0.5,0.4c0.1,0.1,0.6,0,0.6,0c0.1,0.3-0.1,1-0.1,1c-0.5,0.2-1.1,0.4-1,0.6
			c0.1,0.1,0.4,0.1,0.4,0.1c0,0.3,0.6,0.5,0.6,0.5c-0.3,0.3-1.6,0.3-1.6,0.3c0-0.3-0.4-0.4-0.4-0.4s0.4-0.1,0.4-0.3
			c0-0.2-1-0.7-1.2-1c-0.4-0.4-0.4-1.7-0.4-1.7s0.8,0.3,1,0.2c0.2,0-0.4-0.6-0.4-0.6s0.4-0.1,0.4-0.3c0-0.2-0.8-0.9-0.9-1.1
			s-0.3-1.8-0.3-1.8s0,2.1-0.2,2.5c-0.2,0.4-1.3,0.5-1.2,0.8C97.6,16.1,98,16,98,16s-0.9,0.7-0.7,0.8c0.2,0.1,0.5-0.1,0.5-0.1
			c0.1,0.1-0.3,0.8-0.3,0.8l-1.6,0.1c0.2-0.1-0.3-0.6-0.3-0.6s0.5,0.1,0.6-0.2c0.1-0.3-1.2-1.4-1.2-1.4s0.7,0.2,0.7,0
			c0.1-0.2-1-2-1-2c0.4,0,0.2-0.6,0.2-0.6s0.2,0.1,0.5-0.1c0.2-0.2-0.7-1.7-0.8-1.9c0.1,0.1,0.7,0.2,0.6-0.1
			c-0.2-0.4-0.9-1.1-0.9-1.1l-0.1-2l-0.3,1.3c0,0-0.5,0.7-0.5,0.9c0,0.2,0.4,0.2,0.4,0.2l-0.2,0.5c0,0-2.1,0.9-1.9,1.1
			c0.2,0.2,0.5,0.1,0.5,0.1s0.3,0.6,0.5,0.6c0.2,0,1-0.1,1-0.1c0.1,0.3-0.4,2-0.4,2c-0.3,0.4-1.1,0.6-1.5,0.7c-0.5-0.6-0.8-1-0.8-1
			s-0.1-1.3-0.1-1.9c0-0.5-0.1-0.8-0.1-0.2c0,0.5,0,2-1,2.1c-1,0.1-1.4,1-1.2,1.1c0.2,0.1,0.4-0.1,0.4-0.1s0.1,0.4,0.3,0.5
			c0.2,0,0.2-0.2,0.2-0.2c0.3,0.1,0.6-0.1,0.6-0.1c0,0.5-0.1,2.1-0.1,2.1c-0.1,0-1.8,0.8-1.6,0.9c0.2,0.1,0.4-0.1,0.4-0.1
			s0,0.2,0.2,0.3c0.2,0.1,0.6,0.1,0.6,0.1c-0.2,0.4-0.6,0.8-0.6,0.8s-2-0.9-2.4-1.4C86,17.5,85.6,16,85.6,16s0.7,0.5,0.9,0.5
			c0.3,0.1,0.3-0.2,0.3-0.2s0.6,0.5,0.7,0.5c0.2,0-0.1-0.4-0.1-0.4s0.5,0.1,0.3-0.2c-0.5-0.8-2-2.1-2-2.1l-0.2-0.8
			c0,0,0.2,0.2,0.5,0.3c0.3,0.1,0.3-0.2,0.3-0.2s0.3,0.3,0.4,0c0.1-0.3-0.7-0.7-0.7-0.7s0.2,0.1,0.4,0c0.2-0.1-0.1-0.5-0.4-0.7
			l1-1.3L74.6,4.4L46.7,2l-3.4,5l-6.5-3.4L8.9,2L2,87.4L12.7,93l25.4-1l0.6-6.6l0.7,1.1l9.4,4.9l26.9-4.9l3.2,3.3l0.7,0.3
			c0.6,0.3,1.3,0.6,2.1,0.9c0.8,0.3,1.6,0.6,2.4,0.9c0.8,0.3,1.7,0.5,2.7,0.8c1,0.2,2.1,0.4,3,0.4c2,0,4-0.3,5.8-0.8
			c0.5-0.2,1.1-0.4,1.6-0.6c0.1-0.1,0.3-0.1,0.5-0.2c0.4-0.2,0.7-0.3,1.1-0.5c0.1-0.1,0.2-0.1,0.4-0.2c0.1-0.1,0.2-0.1,0.3-0.2
			c0.5-0.3,0.9-0.6,1.4-0.9l0.1-0.1c0.1-0.1,0.3-0.2,0.4-0.4c0,0,0.2-0.1,0.2-0.2l3.4,3.5l13.7-0.7l0.2-1l2.1,2.2l18.3-0.4l0.1,0.1
			h13.5l0.5,0.5l3.9-0.8l2.4,2.5l0.4,0.5l2.8,0.4l19.8,2.6l3.5-13.6l-2.6-3.8l4.9-4.3L190.3,66.3z M91,15.3c0,0,0.4,0.7,0.6,0.8
			c0.2,0.1,0.2-0.2,0.2-0.2s0.1,0.1,0.3,0.2c0,0,0,0.1,0,0.1c0.2,0.5,1.5,0.1,1.5,0.1c0,0.5-1.1,1.7-1.1,1.7s-0.2,0.1-0.4,0.2
			c-0.3-0.2-0.6-0.5-0.7-0.6c-0.4-0.7-0.7-2-0.7-2C90.8,15.5,91,15.3,91,15.3z"/>
		<path class="st0" d="M175.3,12.5c-0.8-0.9-1.4-2.1-1.5-3.7c0,0-0.3,2.6-3.8,4.5c0,0,3.7,0.5,2.3,2.1c3.2,0.6,1.1,2.8,1,2.9
			c0,0,3,0.9,0.4,2.9c0,0,2.9,0.9-0.5,5.5l0,0l0,0l0,0l0,0c5.4-1.8,5.4,1.2,5.4,1.2c2.7-1.8,2.6,1.3,2.6,1.3
			c0.1-0.1,2.8-1.4,2.4,1.9c2-0.9,1.2,2.8,1.2,2.8c2.9-2.7,5.5-2.2,5.5-2.2c-4.3-1.8-4.1-6.6-4.1-6.6c-2.3,0.9-5.2,0-6.8-0.7
			c0.3-0.2,0.6-0.5,0.8-0.8c0.2,0,1.2-0.3,2.1-1.7c0,0-0.5-0.4-1.5,0.2c0-0.3-0.1-0.5-0.2-0.7c-0.2-0.2-0.4-0.4-0.6-0.5
			c1-0.9,0.7-1.4,0.7-1.4c-1.6,0.4-2.2,1.3-2.2,1.4c-0.4,0.1-0.7,0.3-1.1,0.5c-0.3-1.7-0.1-4.9,1.4-6.8
			C178.7,14.7,176.7,14.2,175.3,12.5 M180.1,23c0,0-0.3,0.4-0.4,0.3c-0.1-0.1-0.1-0.1-0.4-0.4C178.9,22.5,179.9,22.8,180.1,23z
			 M178.9,21.3c0.1,0.3,0,1.3-0.1,0.9c-0.2-0.4-0.3-0.4-0.3-0.5C178.4,21.4,178.9,21.3,178.9,21.3z"/>
		<linearGradient id="SVGID_1_" gradientUnits="userSpaceOnUse" x1="150.7857" y1="45.1035" x2="150.7857" y2="26.4125">
			<stop  offset="0" style="stop-color:#837BFF"/>
			<stop  offset="1" style="stop-color:#3129CB"/>
		</linearGradient>
		<polygon class="st2" points="145.5,26.4 150.5,31.6 156.1,45.1 151.1,39.9 		"/>
		<linearGradient id="SVGID_2_" gradientUnits="userSpaceOnUse" x1="162.0901" y1="57.5059" x2="162.0901" y2="26.8626">
			<stop  offset="0" style="stop-color:#837BFF"/>
			<stop  offset="1" style="stop-color:#3129CB"/>
		</linearGradient>
		<polygon class="st3" points="161.2,26.9 166.1,32 163,57.5 158,52.3 		"/>
		<linearGradient id="SVGID_3_" gradientUnits="userSpaceOnUse" x1="159.5395" y1="78.3036" x2="159.5395" y2="58.4343">
			<stop  offset="0" style="stop-color:#837BFF"/>
			<stop  offset="1" style="stop-color:#3129CB"/>
		</linearGradient>
		<path class="st4" d="M164.6,68.9c0-0.1,0-0.2,0-0.3c0-0.2,0-0.5-0.1-0.7c0-0.1-0.1-0.3-0.1-0.4c0-0.2-0.1-0.4-0.1-0.6
			c0-0.1-0.1-0.3-0.1-0.4c0-0.1-0.1-0.3-0.1-0.4c0-0.1-0.1-0.2-0.1-0.3c-0.2-0.4-0.4-0.8-0.6-1.1c0,0,0,0,0-0.1
			c-0.1-0.1-0.1-0.2-0.2-0.2c-0.1-0.2-0.3-0.4-0.5-0.6c-0.1-0.1-0.2-0.2-0.3-0.3l-5-5.2c0.3,0.3,0.5,0.6,0.7,0.9
			c0.1,0.1,0.1,0.1,0.2,0.2c0.2,0.4,0.5,0.8,0.7,1.2c0.1,0.2,0.2,0.4,0.2,0.6c0,0.1,0.1,0.3,0.1,0.4c0.1,0.2,0.1,0.4,0.1,0.6
			c0,0.1,0.1,0.3,0.1,0.4c0,0.2,0,0.5,0.1,0.7c0,0.1,0,0.2,0,0.3c0,0.4,0,0.7,0,1.1c0,0.4-0.1,0.9-0.1,1.3c0,0,0,0.1,0,0.1
			c-0.1,0.4-0.2,0.9-0.3,1.3c-0.1,0.4-0.2,0.7-0.4,1c0,0.1-0.1,0.2-0.1,0.3c-0.1,0.3-0.3,0.6-0.5,0.9c-0.2,0.3-0.4,0.6-0.7,0.9
			c0,0-0.1,0.1-0.1,0.1c-0.2,0.3-0.5,0.5-0.7,0.8c-0.3,0.2-0.5,0.5-0.8,0.7c-0.4,0.3-0.9,0.6-1.4,0.9l5,5.2c0.5-0.3,0.9-0.6,1.4-0.9
			c0,0,0.1-0.1,0.1-0.1c0.2-0.2,0.5-0.4,0.7-0.6c0.1-0.1,0.2-0.2,0.3-0.3c0.2-0.2,0.3-0.3,0.5-0.5c0,0,0.1-0.1,0.1-0.1c0,0,0,0,0,0
			c0.2-0.2,0.3-0.4,0.5-0.6c0.1-0.1,0.1-0.2,0.2-0.3c0.1-0.2,0.2-0.3,0.3-0.5c0.1-0.1,0.1-0.3,0.2-0.4c0-0.1,0.1-0.2,0.1-0.3
			c0,0,0-0.1,0.1-0.1c0.1-0.3,0.2-0.6,0.3-0.9c0,0,0-0.1,0-0.1c0.1-0.4,0.2-0.7,0.2-1.1c0,0,0-0.1,0-0.1c0.1-0.3,0.1-0.7,0.1-1.1
			c0-0.1,0-0.1,0-0.2C164.6,69.6,164.6,69.3,164.6,68.9z"/>
		<linearGradient id="SVGID_4_" gradientUnits="userSpaceOnUse" x1="158.9219" y1="86.2715" x2="158.9219" y2="73.1465">
			<stop  offset="0" style="stop-color:#837BFF"/>
			<stop  offset="1" style="stop-color:#3129CB"/>
		</linearGradient>
		<polygon class="st5" points="154.5,73.1 159.5,78.3 163.4,86.3 158.4,81.1 		"/>
		<linearGradient id="SVGID_5_" gradientUnits="userSpaceOnUse" x1="94.8222" y1="44.757" x2="94.8222" y2="27.163">
			<stop  offset="0" style="stop-color:#837BFF"/>
			<stop  offset="1" style="stop-color:#3129CB"/>
		</linearGradient>
		<polygon class="st6" points="90.8,27.2 95.8,32.3 98.8,44.8 93.8,39.6 		"/>
		<linearGradient id="SVGID_6_" gradientUnits="userSpaceOnUse" x1="90.6105" y1="58.4068" x2="90.6105" y2="41.0666">
			<stop  offset="0" style="stop-color:#837BFF"/>
			<stop  offset="1" style="stop-color:#3129CB"/>
		</linearGradient>
		<polygon class="st7" points="88.6,41.1 93.5,46.2 92.7,58.4 87.7,53.2 		"/>
		<linearGradient id="SVGID_7_" gradientUnits="userSpaceOnUse" x1="85.8138" y1="58.6721" x2="85.8138" y2="53.2497">
			<stop  offset="0" style="stop-color:#837BFF"/>
			<stop  offset="1" style="stop-color:#3129CB"/>
		</linearGradient>
		<polygon class="st8" points="87.7,53.2 92.7,58.4 84,58.7 79,53.5 		"/>
		<linearGradient id="SVGID_8_" gradientUnits="userSpaceOnUse" x1="94.9479" y1="56.7093" x2="94.9479" y2="51.5522">
			<stop  offset="0" style="stop-color:#837BFF"/>
			<stop  offset="1" style="stop-color:#3129CB"/>
		</linearGradient>
		<polygon class="st9" points="94.1,51.6 99.1,56.7 95.8,56.7 90.8,51.6 		"/>
		<linearGradient id="SVGID_9_" gradientUnits="userSpaceOnUse" x1="98.9456" y1="56.7093" x2="98.9456" y2="39.8311">
			<stop  offset="0" style="stop-color:#837BFF"/>
			<stop  offset="1" style="stop-color:#3129CB"/>
		</linearGradient>
		<polygon class="st10" points="98.8,39.8 103.8,45 99.1,56.7 94.1,51.6 		"/>
		<linearGradient id="SVGID_10_" gradientUnits="userSpaceOnUse" x1="104.4996" y1="59.5383" x2="104.4996" y2="54.0003">
			<stop  offset="0" style="stop-color:#837BFF"/>
			<stop  offset="1" style="stop-color:#3129CB"/>
		</linearGradient>
		<polygon class="st27" points="106.3,54 111.3,59.2 102.7,59.5 97.7,54.4 		"/>
		<linearGradient id="SVGID_11_" gradientUnits="userSpaceOnUse" x1="110.6199" y1="59.1574" x2="110.6199" y2="26.4125">
			<stop  offset="0" style="stop-color:#837BFF"/>
			<stop  offset="1" style="stop-color:#3129CB"/>
		</linearGradient>
		<polygon class="st28" points="110,26.4 114.9,31.6 111.3,59.2 106.3,54 		"/>
		<linearGradient id="SVGID_12_" gradientUnits="userSpaceOnUse" x1="123.2357" y1="49.5415" x2="123.2357" y2="36.7823">
			<stop  offset="0" style="stop-color:#837BFF"/>
			<stop  offset="1" style="stop-color:#3129CB"/>
		</linearGradient>
		<path class="st29" d="M128.9,42.9l-5-5.2c-0.2-0.2-0.4-0.4-0.7-0.6c-0.4-0.2-0.9-0.4-1.5-0.4c-0.6,0-1.1,0.1-1.6,0.3
			c-0.1,0.1-0.3,0.1-0.4,0.2c-0.1,0-0.1,0.1-0.2,0.1c-0.1,0-0.1,0.1-0.2,0.1c0,0-0.1,0.1-0.1,0.1c-0.1,0.1-0.3,0.2-0.4,0.3
			c0,0,0,0,0,0c-0.1,0.1-0.1,0.1-0.2,0.2c-0.1,0.1-0.2,0.2-0.3,0.4c0,0,0,0,0,0c0,0,0,0,0,0.1c-0.1,0.1-0.1,0.2-0.2,0.3
			c-0.1,0.1-0.1,0.2-0.2,0.3c0,0,0,0,0,0.1c-0.1,0.2-0.1,0.4-0.2,0.6c0,0,0,0,0,0.1c0,0.2-0.1,0.4-0.1,0.6c0,0.1,0,0.1,0,0.2
			c0,0,0,0,0,0.1c0,0.5,0,1.1,0.1,1.6c0.1,0.3,0.1,0.5,0.2,0.8c0,0,0,0,0,0c0.1,0.2,0.2,0.5,0.3,0.7c0,0,0,0,0,0
			c0.1,0.1,0.2,0.3,0.3,0.4c0,0,0.1,0.1,0.1,0.1l5,5.2c-0.2-0.2-0.3-0.3-0.4-0.5c-0.1-0.2-0.3-0.4-0.3-0.7c-0.1-0.2-0.2-0.5-0.2-0.8
			c-0.1-0.5-0.1-1.1-0.1-1.6c0-0.1,0-0.2,0-0.3c0-0.2,0.1-0.4,0.1-0.6c0.1-0.2,0.1-0.5,0.2-0.7c0.1-0.2,0.2-0.4,0.4-0.7
			c0,0,0,0,0-0.1c0.1-0.2,0.3-0.4,0.5-0.6c0.2-0.2,0.3-0.3,0.5-0.4c0.1,0,0.1-0.1,0.2-0.1c0.2-0.1,0.4-0.2,0.6-0.3
			c0.5-0.2,1-0.3,1.6-0.3c0.6,0,1.1,0.1,1.5,0.4C128.4,42.5,128.7,42.6,128.9,42.9L128.9,42.9C128.9,42.9,128.9,42.9,128.9,42.9z"/>
		<linearGradient id="SVGID_13_" gradientUnits="userSpaceOnUse" x1="125.4104" y1="58.2563" x2="125.4104" y2="31.6888">
			<stop  offset="0" style="stop-color:#837BFF"/>
			<stop  offset="1" style="stop-color:#3129CB"/>
		</linearGradient>
		<path class="st30" d="M137.8,40.7c-0.1-0.3-0.2-0.5-0.3-0.8c0,0,0-0.1,0-0.1c-0.2-0.5-0.5-1-0.8-1.5c0,0,0-0.1-0.1-0.1
			c0-0.1-0.1-0.1-0.1-0.2c-0.2-0.2-0.3-0.4-0.5-0.6c-0.1-0.1-0.1-0.2-0.2-0.2c-0.1-0.1-0.1-0.2-0.2-0.3c0,0-0.1-0.1-0.1-0.1l-5-5.2
			c0,0,0.1,0.1,0.1,0.1c0.1,0.2,0.3,0.3,0.4,0.5c0.2,0.2,0.3,0.4,0.5,0.6c0.1,0.1,0.1,0.2,0.2,0.3c0.3,0.5,0.6,1,0.8,1.5
			c0.1,0.3,0.2,0.6,0.3,0.9c0.5,1.5,0.6,3.1,0.5,5c0,0.5-0.1,1-0.2,1.6c0,0.1-0.1,0.2-0.1,0.4c-0.1,0.5-0.2,0.9-0.3,1.4
			c-0.1,0.4-0.3,0.9-0.5,1.3c-0.1,0.2-0.2,0.4-0.3,0.6c-0.2,0.4-0.4,0.7-0.6,1.1c-0.2,0.4-0.5,0.7-0.7,1.1c-0.1,0.1-0.2,0.3-0.3,0.4
			c-0.3,0.4-0.6,0.8-1,1.1c-0.4,0.4-0.8,0.7-1.2,1.1c-0.4,0.3-0.9,0.6-1.3,0.9c-0.3,0.2-0.6,0.3-1,0.5c-0.2,0.1-0.3,0.2-0.5,0.2
			c-0.5,0.2-1,0.4-1.5,0.5c-1.1,0.3-2.2,0.5-3.3,0.5c-1.1,0-2.2-0.2-3.2-0.4c-1-0.3-1.9-0.7-2.8-1.2c-0.8-0.5-1.5-1-2.1-1.7l5,5.2
			c0.6,0.6,1.3,1.2,2.1,1.7c0.9,0.5,1.8,0.9,2.8,1.2c1,0.3,2.1,0.4,3.2,0.4c1.2,0,2.3-0.1,3.3-0.5c0.5-0.2,1-0.3,1.5-0.5
			c0.2-0.1,0.3-0.2,0.5-0.2c0.3-0.1,0.6-0.3,0.9-0.5c0,0,0,0,0.1,0c0.5-0.3,0.9-0.6,1.3-0.9c0,0,0,0,0,0c0.4-0.3,0.7-0.6,1.1-0.9
			c0,0,0.1-0.1,0.1-0.1c0.3-0.3,0.6-0.6,0.9-0.9c0-0.1,0.1-0.1,0.1-0.2c0.1-0.1,0.2-0.3,0.3-0.4c0.1-0.2,0.3-0.3,0.4-0.5
			c0.1-0.2,0.2-0.4,0.4-0.6c0.1-0.2,0.2-0.4,0.4-0.6c0.1-0.2,0.1-0.3,0.2-0.5c0.1-0.2,0.2-0.4,0.3-0.6c0-0.1,0.1-0.2,0.1-0.3
			c0.1-0.3,0.3-0.7,0.4-1c0.1-0.2,0.1-0.5,0.2-0.7c0.1-0.2,0.1-0.5,0.1-0.7c0-0.1,0.1-0.2,0.1-0.4c0.1-0.5,0.1-0.9,0.2-1.4
			c0-0.1,0-0.1,0-0.2C138.4,43.9,138.3,42.2,137.8,40.7z"/>
		<linearGradient id="SVGID_14_" gradientUnits="userSpaceOnUse" x1="145.4005" y1="58.6721" x2="145.4005" y2="39.5999">
			<stop  offset="0" style="stop-color:#837BFF"/>
			<stop  offset="1" style="stop-color:#3129CB"/>
		</linearGradient>
		<polygon class="st31" points="143.8,39.6 148.8,44.8 147,58.7 142,53.5 		"/>
		<linearGradient id="SVGID_15_" gradientUnits="userSpaceOnUse" x1="140.2757" y1="58.6721" x2="140.2757" y2="53.5151">
			<stop  offset="0" style="stop-color:#837BFF"/>
			<stop  offset="1" style="stop-color:#3129CB"/>
		</linearGradient>
		<polygon class="st32" points="142,53.5 147,58.7 138.5,58.7 133.6,53.5 		"/>
		<linearGradient id="SVGID_16_" gradientUnits="userSpaceOnUse" x1="155.5744" y1="58.4068" x2="155.5744" y2="52.3488">
			<stop  offset="0" style="stop-color:#837BFF"/>
			<stop  offset="1" style="stop-color:#3129CB"/>
		</linearGradient>
		<polygon class="st33" points="158,52.3 163,57.5 153.1,58.4 148.1,53.2 		"/>
		<linearGradient id="SVGID_17_" gradientUnits="userSpaceOnUse" x1="98.4169" y1="69.2846" x2="98.4169" y2="56.4944">
			<stop  offset="0" style="stop-color:#837BFF"/>
			<stop  offset="1" style="stop-color:#3129CB"/>
		</linearGradient>
		<polygon class="st34" points="96.5,56.5 101.5,61.7 100.3,69.3 95.3,64.1 		"/>
		<linearGradient id="SVGID_18_" gradientUnits="userSpaceOnUse" x1="93.1754" y1="70.4077" x2="93.1754" y2="63.1115">
			<stop  offset="0" style="stop-color:#837BFF"/>
			<stop  offset="1" style="stop-color:#3129CB"/>
		</linearGradient>
		<path class="st35" d="M100.3,69.3l-5-5.2c-0.8-0.3-1.7-0.5-2.6-0.7c-0.9-0.2-1.8-0.3-2.7-0.3c-0.2,0-0.4,0-0.6,0
			c-0.3,0-0.5,0-0.8,0.1c-0.3,0-0.6,0.1-0.9,0.1c-0.3,0.1-0.6,0.2-0.8,0.3c-0.1,0-0.1,0.1-0.2,0.1c-0.1,0-0.1,0.1-0.2,0.1
			c0,0-0.1,0.1-0.1,0.1c0,0-0.1,0.1-0.1,0.1c0,0,0,0.1-0.1,0.1c0,0,0,0.1-0.1,0.1c0,0,0,0.1,0,0.1c0,0,0,0,0,0c0,0,0,0,0,0
			c0,0,0,0,0,0.1c0,0.1,0,0.1,0,0.2c0,0,0,0,0,0.1c0,0.1,0,0.3,0.1,0.4c0,0,0,0,0,0c0,0,0,0.1,0.1,0.1c0,0,0,0.1,0.1,0.1
			c0,0,0,0,0,0v0l5,5.2c-0.1-0.1-0.1-0.2-0.2-0.3c0-0.1-0.1-0.2-0.1-0.4c0-0.1,0-0.2,0.1-0.3c0,0,0,0,0,0c0-0.1,0.1-0.2,0.2-0.3
			c0.2-0.2,0.3-0.3,0.6-0.4c0.2-0.1,0.5-0.2,0.8-0.3c0.3-0.1,0.6-0.1,0.9-0.1c0.3,0,0.6-0.1,0.8-0.1c0.3,0,0.5,0,0.6,0
			c0.9,0,1.8,0.1,2.7,0.3C98.6,68.8,99.5,69,100.3,69.3L100.3,69.3L100.3,69.3z"/>
		<linearGradient id="SVGID_19_" gradientUnits="userSpaceOnUse" x1="86.3193" y1="78.0179" x2="86.3193" y2="70.2151">
			<stop  offset="0" style="stop-color:#837BFF"/>
			<stop  offset="1" style="stop-color:#3129CB"/>
		</linearGradient>
		<path class="st36" d="M88,72.9c-0.1-0.1-0.3-0.2-0.5-0.3c-0.2-0.1-0.5-0.2-0.8-0.2c-0.3-0.1-0.6-0.1-0.9-0.1c-0.3,0-0.6,0-0.8,0
			c-0.3,0-0.5,0-0.6,0c-1.1,0-2.1-0.2-2.9-0.6c-0.8-0.3-1.4-0.8-2-1.3l5,5.2c0.6,0.6,1.2,1,2,1.3c0.9,0.4,1.8,0.6,2.9,0.6
			c0.2,0,0.3,0,0.6,0c0.2,0,0.5,0,0.8,0c0.3,0,0.6,0.1,0.9,0.1c0.3,0.1,0.6,0.1,0.8,0.2c0.2,0.1,0.4,0.2,0.5,0.3L88,72.9z"/>
		<linearGradient id="SVGID_20_" gradientUnits="userSpaceOnUse" x1="102.6698" y1="70.1508" x2="102.6698" y2="64.6936">
			<stop  offset="0" style="stop-color:#837BFF"/>
			<stop  offset="1" style="stop-color:#3129CB"/>
		</linearGradient>
		<polygon class="st37" points="103,64.7 108,69.9 102.3,70.2 97.4,65 		"/>
		<linearGradient id="SVGID_21_" gradientUnits="userSpaceOnUse" x1="89.2957" y1="88.3736" x2="89.2957" y2="67.8146">
			<stop  offset="0" style="stop-color:#837BFF"/>
			<stop  offset="1" style="stop-color:#3129CB"/>
		</linearGradient>
		<path class="st38" d="M101.9,78.3c0-0.1,0-0.1,0-0.2c0.1-1,0-1.9-0.2-2.8c-0.1-0.2-0.1-0.5-0.2-0.7c0-0.1-0.1-0.2-0.1-0.3
			c-0.1-0.1-0.1-0.3-0.2-0.4c0-0.1-0.1-0.2-0.1-0.3c-0.1-0.2-0.3-0.4-0.4-0.6c0,0,0,0,0,0c-0.1-0.1-0.1-0.2-0.2-0.2l-5-5.2
			c0.1,0.1,0.1,0.2,0.2,0.2c0.2,0.2,0.4,0.5,0.6,0.8c0.1,0.1,0.1,0.2,0.2,0.4c0.1,0.3,0.3,0.6,0.4,1C96.9,71,97,72,96.9,73
			c0,0.3-0.1,0.6-0.1,1c0,0.1,0,0.2,0,0.3c-0.1,0.4-0.1,0.8-0.2,1.1c-0.1,0.4-0.2,0.8-0.4,1.2c-0.1,0.3-0.3,0.7-0.4,1
			c-0.2,0.3-0.4,0.6-0.6,0.9c0,0-0.1,0.1-0.1,0.1c-0.2,0.2-0.3,0.5-0.5,0.7c-0.1,0.1-0.2,0.2-0.2,0.3c-0.1,0.2-0.3,0.3-0.4,0.5
			c-0.2,0.2-0.3,0.3-0.5,0.4c-0.1,0.1-0.2,0.2-0.3,0.3c-0.3,0.3-0.7,0.5-1.1,0.7c-0.1,0.1-0.2,0.1-0.3,0.2c-0.3,0.1-0.5,0.3-0.8,0.4
			c-0.1,0.1-0.2,0.1-0.3,0.2c-0.4,0.2-0.8,0.3-1.2,0.4c-1.4,0.4-2.9,0.6-4.5,0.6c-0.6,0-1.3-0.1-2-0.2c-0.7-0.2-1.5-0.4-2.2-0.6
			c-0.7-0.2-1.4-0.5-2.1-0.8c-0.7-0.3-1.3-0.5-1.8-0.8l5,5.2c0.5,0.3,1.1,0.5,1.8,0.8c0.7,0.3,1.4,0.5,2.1,0.8
			c0.7,0.3,1.5,0.5,2.2,0.6c0.7,0.2,1.4,0.2,2,0.2c1.6,0,3.1-0.2,4.5-0.6c0.4-0.1,0.8-0.3,1.2-0.4c0.1,0,0.2-0.1,0.3-0.2
			c0.3-0.1,0.6-0.3,0.8-0.4c0.1,0,0.1-0.1,0.2-0.1c0,0,0.1-0.1,0.1-0.1c0.4-0.2,0.7-0.5,1.1-0.7c0,0,0,0,0,0
			c0.1-0.1,0.2-0.2,0.3-0.2c0.2-0.1,0.3-0.3,0.5-0.4c0,0,0,0,0,0c0.1-0.1,0.3-0.3,0.4-0.4c0.1-0.1,0.2-0.2,0.2-0.3c0,0,0,0,0,0
			c0.2-0.2,0.3-0.4,0.5-0.7c0,0,0.1-0.1,0.1-0.1c0,0,0,0,0,0c0.2-0.3,0.4-0.6,0.5-0.9c0,0,0,0,0,0c0.2-0.3,0.3-0.6,0.4-0.9
			c0,0,0,0,0,0c0.1-0.4,0.3-0.8,0.4-1.2c0,0,0,0,0,0c0.1-0.4,0.2-0.7,0.2-1.1c0-0.1,0-0.2,0-0.3C101.8,78.8,101.9,78.6,101.9,78.3z"
			/>
		<linearGradient id="SVGID_22_" gradientUnits="userSpaceOnUse" x1="117.6484" y1="69.435" x2="117.6484" y2="64.0467">
			<stop  offset="0" style="stop-color:#837BFF"/>
			<stop  offset="1" style="stop-color:#3129CB"/>
		</linearGradient>
		<polygon class="st39" points="118,64 122.9,69.2 117.3,69.4 112.3,64.3 		"/>
		<linearGradient id="SVGID_23_" gradientUnits="userSpaceOnUse" x1="120.8254" y1="69.2038" x2="120.8254" y2="56.0788">
			<stop  offset="0" style="stop-color:#837BFF"/>
			<stop  offset="1" style="stop-color:#3129CB"/>
		</linearGradient>
		<polygon class="st40" points="118.7,56.1 123.7,61.2 122.9,69.2 118,64 		"/>
		<linearGradient id="SVGID_24_" gradientUnits="userSpaceOnUse" x1="108.1912" y1="87.669" x2="108.1912" y2="82.0962">
			<stop  offset="0" style="stop-color:#837BFF"/>
			<stop  offset="1" style="stop-color:#3129CB"/>
		</linearGradient>
		<polygon class="st41" points="109.7,82.1 114.7,87.3 106.7,87.7 101.7,82.5 		"/>
		<linearGradient id="SVGID_25_" gradientUnits="userSpaceOnUse" x1="113.5062" y1="87.2533" x2="113.5062" y2="64.2779">
			<stop  offset="0" style="stop-color:#837BFF"/>
			<stop  offset="1" style="stop-color:#3129CB"/>
		</linearGradient>
		<polygon class="st42" points="112.3,64.3 117.3,69.4 114.7,87.3 109.7,82.1 		"/>
		<linearGradient id="SVGID_26_" gradientUnits="userSpaceOnUse" x1="130.9318" y1="70.786" x2="130.9318" y2="63.2617">
			<stop  offset="0" style="stop-color:#837BFF"/>
			<stop  offset="1" style="stop-color:#3129CB"/>
		</linearGradient>
		<polygon class="st43" points="128.6,63.3 133.6,68.4 133.2,70.8 128.3,65.6 		"/>
		<linearGradient id="SVGID_27_" gradientUnits="userSpaceOnUse" x1="135.1105" y1="68.4188" x2="135.1105" y2="62.846">
			<stop  offset="0" style="stop-color:#837BFF"/>
			<stop  offset="1" style="stop-color:#3129CB"/>
		</linearGradient>
		<polygon class="st44" points="136.6,62.8 141.6,68 133.6,68.4 128.6,63.3 		"/>
		<linearGradient id="SVGID_28_" gradientUnits="userSpaceOnUse" x1="129.6964" y1="79.5509" x2="129.6964" y2="71.6454">
			<stop  offset="0" style="stop-color:#837BFF"/>
			<stop  offset="1" style="stop-color:#3129CB"/>
		</linearGradient>
		<polygon class="st45" points="127.4,71.6 132.4,76.8 132,79.6 127,74.4 		"/>
		<linearGradient id="SVGID_29_" gradientUnits="userSpaceOnUse" x1="132.7081" y1="76.8024" x2="132.7081" y2="71.4605">
			<stop  offset="0" style="stop-color:#837BFF"/>
			<stop  offset="1" style="stop-color:#3129CB"/>
		</linearGradient>
		<polygon class="st46" points="133,71.5 138,76.6 132.4,76.8 127.4,71.6 		"/>
		<linearGradient id="SVGID_30_" gradientUnits="userSpaceOnUse" x1="135.9421" y1="76.6176" x2="135.9421" y2="65.629">
			<stop  offset="0" style="stop-color:#837BFF"/>
			<stop  offset="1" style="stop-color:#3129CB"/>
		</linearGradient>
		<polygon class="st47" points="133.9,65.6 138.8,70.8 138,76.6 133,71.5 		"/>
		<g>
			<defs>
				<path id="SVGID_372_" d="M135,74.4l5,5.2c-0.2,1.4-0.3,2.7-0.5,4.1s-0.4,2.7-0.5,4.1l-5-5.2c0.2-1.4,0.3-2.7,0.5-4.1
					S134.8,75.8,135,74.4z"/>
			</defs>
			<linearGradient id="SVGID_31_" gradientUnits="userSpaceOnUse" x1="136.9675" y1="87.7382" x2="136.9675" y2="74.3939">
				<stop  offset="0" style="stop-color:#837BFF"/>
				<stop  offset="1" style="stop-color:#3129CB"/>
			</linearGradient>
			<use xlink:href="#SVGID_372_"  style="overflow:visible;fill:url(#SVGID_31_);"/>
			<clipPath id="SVGID_32_">
				<use xlink:href="#SVGID_372_"  style="overflow:visible;"/>
			</clipPath>
			<linearGradient id="SVGID_33_" gradientUnits="userSpaceOnUse" x1="156.6175" y1="87.5752" x2="156.6175" y2="70.8086">
				<stop  offset="0" style="stop-color:#837BFF"/>
				<stop  offset="1" style="stop-color:#3129CB"/>
			</linearGradient>
			<path style="clip-path:url(#SVGID_32_);fill:url(#SVGID_33_);" d="M154.1,70.8l6.3,6.5c-0.2,1.7-0.4,3.4-0.6,5.2
				c-0.2,1.7-0.4,3.4-0.6,5.1l-6.3-6.5c0.2-1.7,0.4-3.4,0.6-5.1C153.7,74.2,153.9,72.5,154.1,70.8"/>
		</g>
		<linearGradient id="SVGID_34_" gradientUnits="userSpaceOnUse" x1="128.3444" y1="88.1194" x2="128.3444" y2="82.5811">
			<stop  offset="0" style="stop-color:#837BFF"/>
			<stop  offset="1" style="stop-color:#3129CB"/>
		</linearGradient>
		<polygon class="st51" points="134,82.6 138.9,87.7 122.7,88.1 117.7,83 		"/>
		<linearGradient id="SVGID_35_" gradientUnits="userSpaceOnUse" x1="150.92" y1="67.8386" x2="150.92" y2="61.8295">
			<stop  offset="0" style="stop-color:#837BFF"/>
			<stop  offset="1" style="stop-color:#3129CB"/>
		</linearGradient>
		<path class="st52" d="M150.3,62.7c-0.2-0.2-0.5-0.4-0.8-0.6c-0.4-0.2-0.9-0.3-1.5-0.3c-0.2,0-0.5,0-0.7,0c-0.2,0-0.5,0.1-0.7,0.1
			v0l0,0l5,5.2c0.2-0.1,0.5-0.1,0.7-0.1c0.2,0,0.5,0,0.7,0c0.6,0,1.1,0.1,1.5,0.3c0.3,0.1,0.6,0.3,0.8,0.6L150.3,62.7z"/>
		<linearGradient id="SVGID_36_" gradientUnits="userSpaceOnUse" x1="148.6584" y1="74.1695" x2="148.6584" y2="62.0259">
			<stop  offset="0" style="stop-color:#837BFF"/>
			<stop  offset="1" style="stop-color:#3129CB"/>
		</linearGradient>
		<polygon class="st53" points="146.6,62 151.5,67.2 150.8,74.2 145.8,69 		"/>
		<linearGradient id="SVGID_37_" gradientUnits="userSpaceOnUse" x1="148.7998" y1="80.0011" x2="148.7998" y2="74.7632">
			<stop  offset="0" style="stop-color:#837BFF"/>
			<stop  offset="1" style="stop-color:#3129CB"/>
		</linearGradient>
		<polygon class="st54" points="147.5,74.8 152.5,79.9 150.1,80 145.1,74.8 		"/>
		<linearGradient id="SVGID_38_" gradientUnits="userSpaceOnUse" x1="142.7118" y1="87.819" x2="142.7118" y2="82.6619">
			<stop  offset="0" style="stop-color:#837BFF"/>
			<stop  offset="1" style="stop-color:#3129CB"/>
		</linearGradient>
		<polygon class="st55" points="144.3,82.7 149.2,87.8 141.2,87.8 136.2,82.7 		"/>
		<linearGradient id="SVGID_39_" gradientUnits="userSpaceOnUse" x1="147.1921" y1="87.819" x2="147.1921" y2="74.844">
			<stop  offset="0" style="stop-color:#837BFF"/>
			<stop  offset="1" style="stop-color:#3129CB"/>
		</linearGradient>
		<polygon class="st56" points="145.1,74.8 150.1,80 149.2,87.8 144.3,82.7 		"/>
		<linearGradient id="SVGID_40_" gradientUnits="userSpaceOnUse" x1="156.5961" y1="87.923" x2="156.5961" y2="81.1145">
			<stop  offset="0" style="stop-color:#837BFF"/>
			<stop  offset="1" style="stop-color:#3129CB"/>
		</linearGradient>
		<polygon class="st57" points="158.4,81.1 163.4,86.3 154.8,87.9 149.8,82.8 		"/>
		<linearGradient id="SVGID_41_" gradientUnits="userSpaceOnUse" x1="73.9979" y1="53.2831" x2="73.9979" y2="41.6939">
			<stop  offset="0" style="stop-color:#837BFF"/>
			<stop  offset="1" style="stop-color:#3129CB"/>
		</linearGradient>
		<polygon class="st58" points="71.7,41.7 76.7,46.9 76.3,53.3 71.3,48.1 		"/>
		<linearGradient id="SVGID_42_" gradientUnits="userSpaceOnUse" x1="67.7491" y1="53.2831" x2="67.7491" y2="47.8952">
			<stop  offset="0" style="stop-color:#837BFF"/>
			<stop  offset="1" style="stop-color:#3129CB"/>
		</linearGradient>
		<polygon class="st59" points="71.3,48.1 76.3,53.3 64.2,53.1 59.2,47.9 		"/>
		<g>
			<defs>
				<path id="SVGID_385_" d="M137.6,55.9l5,5.2c-0.2,1.2-0.3,2.3-0.4,3.5c-0.1,1.2-0.3,2.3-0.5,3.5l-5-5.2c0.2-1.2,0.3-2.3,0.5-3.5
					C137.2,58.2,137.4,57,137.6,55.9z"/>
			</defs>
			<use xlink:href="#SVGID_385_"  style="overflow:visible;"/>
			<clipPath id="SVGID_43_">
				<use xlink:href="#SVGID_385_"  style="overflow:visible;"/>
			</clipPath>
			<path style="clip-path:url(#SVGID_43_);" d="M157.4,47.5l6.3,6.5c-0.2,1.5-0.4,2.9-0.6,4.4c-0.2,1.5-0.4,2.9-0.6,4.4l-6.3-6.5
				c0.2-1.5,0.4-2.9,0.6-4.4C157,50.5,157.1,49,157.4,47.5"/>
		</g>
		<g>
			<defs>
				<path id="SVGID_387_" d="M137.6,55.9l5,5.2c-0.2,1.2-0.3,2.3-0.4,3.5c-0.1,1.2-0.3,2.3-0.5,3.5l-5-5.2c0.2-1.2,0.3-2.3,0.5-3.5
					C137.2,58.2,137.4,57,137.6,55.9z"/>
			</defs>
			<linearGradient id="SVGID_44_" gradientUnits="userSpaceOnUse" x1="139.5764" y1="68.0031" x2="139.5764" y2="55.8595">
				<stop  offset="0" style="stop-color:#837BFF"/>
				<stop  offset="1" style="stop-color:#3129CB"/>
			</linearGradient>
			<use xlink:href="#SVGID_387_"  style="overflow:visible;fill:url(#SVGID_44_);"/>
			<clipPath id="SVGID_45_">
				<use xlink:href="#SVGID_387_"  style="overflow:visible;"/>
			</clipPath>
			<linearGradient id="SVGID_46_" gradientUnits="userSpaceOnUse" x1="159.8954" y1="62.7788" x2="159.8954" y2="47.5209">
				<stop  offset="0" style="stop-color:#837BFF"/>
				<stop  offset="1" style="stop-color:#3129CB"/>
			</linearGradient>
			<path style="clip-path:url(#SVGID_45_);fill:url(#SVGID_46_);" d="M157.4,47.5l6.3,6.5c-0.2,1.5-0.4,2.9-0.6,4.4
				c-0.2,1.5-0.4,2.9-0.6,4.4l-6.3-6.5c0.2-1.5,0.4-2.9,0.6-4.4C157,50.5,157.1,49,157.4,47.5"/>
		</g>
		
			<linearGradient id="SVGID_47_" gradientUnits="userSpaceOnUse" x1="178.6486" y1="74.3322" x2="178.6486" y2="62.4078" gradientTransform="matrix(0.9856 0.1692 -0.1692 0.9856 18.332 -29.927)">
			<stop  offset="5.319149e-03" style="stop-color:#FFA613"/>
			<stop  offset="1" style="stop-color:#EC6E0A"/>
		</linearGradient>
		<polygon class="st64" points="181.5,61.4 185.5,67.3 184.2,74 180.2,68 		"/>
		
			<linearGradient id="SVGID_48_" gradientUnits="userSpaceOnUse" x1="173.8775" y1="85.9377" x2="173.8775" y2="69.1751" gradientTransform="matrix(0.9856 0.1692 -0.1692 0.9856 18.332 -29.927)">
			<stop  offset="5.319149e-03" style="stop-color:#FFA613"/>
			<stop  offset="1" style="stop-color:#EC6E0A"/>
		</linearGradient>
		<polygon class="st65" points="180.2,68 184.2,74 173,83.8 168.9,77.9 		"/>
		
			<linearGradient id="SVGID_49_" gradientUnits="userSpaceOnUse" x1="168.4062" y1="94.587" x2="168.4062" y2="88.7602" gradientTransform="matrix(0.9856 0.1692 -0.1692 0.9856 18.332 -29.927)">
			<stop  offset="5.319149e-03" style="stop-color:#FFA613"/>
			<stop  offset="1" style="stop-color:#EC6E0A"/>
		</linearGradient>
		<polygon class="st66" points="175.1,87.1 179.2,93 162.5,90.8 158.4,84.9 		"/>
		
			<linearGradient id="SVGID_50_" gradientUnits="userSpaceOnUse" x1="177.1419" y1="93.9172" x2="177.1419" y2="80.7806" gradientTransform="matrix(0.9856 0.1692 -0.1692 0.9856 18.332 -29.927)">
			<stop  offset="5.319149e-03" style="stop-color:#FFA613"/>
			<stop  offset="1" style="stop-color:#EC6E0A"/>
		</linearGradient>
		<polygon class="st67" points="177.1,79.3 181.2,85.2 179.2,93 175.1,87.1 		"/>
		<polygon points="172.2,66.8 174.5,72.4 167.2,71.8 163.1,65.9 		"/>
		
			<linearGradient id="SVGID_51_" gradientUnits="userSpaceOnUse" x1="165.1039" y1="75.1172" x2="165.1039" y2="69.2788" gradientTransform="matrix(0.9856 0.1692 -0.1692 0.9856 18.332 -29.927)">
			<stop  offset="5.319149e-03" style="stop-color:#FFA613"/>
			<stop  offset="1" style="stop-color:#EC6E0A"/>
		</linearGradient>
		<polygon class="st68" points="172.2,66.8 174.5,72.4 167.2,71.8 163.1,65.9 		"/>
		<g>
			<linearGradient id="SVGID_52_" gradientUnits="userSpaceOnUse" x1="37.4859" y1="34.7121" x2="37.4859" y2="8.1157">
				<stop  offset="0" style="stop-color:#FF2333"/>
				<stop  offset="1" style="stop-color:#FF6700"/>
			</linearGradient>
			<polygon class="st69" points="35.6,8.1 42.5,11.7 39.4,34.7 32.4,31.1 			"/>
		</g>
		<g>
			<linearGradient id="SVGID_53_" gradientUnits="userSpaceOnUse" x1="20.3634" y1="88.3736" x2="20.3634" y2="83.9847">
				<stop  offset="0" style="stop-color:#FF2333"/>
				<stop  offset="1" style="stop-color:#FF6700"/>
			</linearGradient>
			<polygon class="st70" points="27,84 34,87.6 13.7,88.4 6.8,84.8 			"/>
		</g>
		<g>
			<linearGradient id="SVGID_54_" gradientUnits="userSpaceOnUse" x1="31.5727" y1="87.5612" x2="31.5727" y2="60.9648">
				<stop  offset="0" style="stop-color:#FF2333"/>
				<stop  offset="1" style="stop-color:#FF6700"/>
			</linearGradient>
			<polygon class="st71" points="29.2,61 36.1,64.5 34,87.6 27,84 			"/>
		</g>
		<g>
			<linearGradient id="SVGID_55_" gradientUnits="userSpaceOnUse" x1="64.0747" y1="46.3136" x2="64.0747" y2="8.8278">
				<stop  offset="0" style="stop-color:#FF2333"/>
				<stop  offset="1" style="stop-color:#FF6700"/>
			</linearGradient>
			<polygon class="st72" points="73.3,8.8 80.3,12.4 54.8,46.3 47.9,42.7 			"/>
		</g>
		<g>
			<linearGradient id="SVGID_56_" gradientUnits="userSpaceOnUse" x1="57.4948" y1="86.5389" x2="57.4948" y2="78.791">
				<stop  offset="0" style="stop-color:#FF2333"/>
				<stop  offset="1" style="stop-color:#FF6700"/>
			</linearGradient>
			<polygon class="st73" points="65.4,78.8 72.4,82.4 49.6,86.5 42.6,83 			"/>
		</g>
		<g>
			<linearGradient id="SVGID_57_" gradientUnits="userSpaceOnUse" x1="60.1186" y1="82.3675" x2="60.1186" y2="42.737">
				<stop  offset="0" style="stop-color:#FF2333"/>
				<stop  offset="1" style="stop-color:#FF6700"/>
			</linearGradient>
			<polygon class="st74" points="47.9,42.7 54.8,46.3 72.4,82.4 65.4,78.8 			"/>
		</g>
		<g class="st325">
			<polygon points="145.5,26.4 150.5,31.6 156.1,45.1 151.1,39.9 			"/>
			<polygon points="161.2,26.9 166.1,32 163,57.5 158,52.3 			"/>
			<path d="M164.6,68.9c0-0.1,0-0.2,0-0.3c0-0.2,0-0.5-0.1-0.7c0-0.1-0.1-0.3-0.1-0.4c0-0.2-0.1-0.4-0.1-0.6c0-0.1-0.1-0.3-0.1-0.4
				c0-0.1-0.1-0.3-0.1-0.4c0-0.1-0.1-0.2-0.1-0.3c-0.2-0.4-0.4-0.8-0.6-1.1c0,0,0,0,0-0.1c-0.1-0.1-0.1-0.2-0.2-0.2
				c-0.1-0.2-0.3-0.4-0.5-0.6c-0.1-0.1-0.2-0.2-0.3-0.3l-5-5.2c0.3,0.3,0.5,0.6,0.7,0.9c0.1,0.1,0.1,0.1,0.2,0.2
				c0.2,0.4,0.5,0.8,0.7,1.2c0.1,0.2,0.2,0.4,0.2,0.6c0,0.1,0.1,0.3,0.1,0.4c0.1,0.2,0.1,0.4,0.1,0.6c0,0.1,0.1,0.3,0.1,0.4
				c0,0.2,0,0.5,0.1,0.7c0,0.1,0,0.2,0,0.3c0,0.4,0,0.7,0,1.1c0,0.4-0.1,0.9-0.1,1.3c0,0,0,0.1,0,0.1c-0.1,0.4-0.2,0.9-0.3,1.3
				c-0.1,0.4-0.2,0.7-0.4,1c0,0.1-0.1,0.2-0.1,0.3c-0.1,0.3-0.3,0.6-0.5,0.9c-0.2,0.3-0.4,0.6-0.7,0.9c0,0-0.1,0.1-0.1,0.1
				c-0.2,0.3-0.5,0.5-0.7,0.8c-0.3,0.2-0.5,0.5-0.8,0.7c-0.4,0.3-0.9,0.6-1.4,0.9l5,5.2c0.5-0.3,0.9-0.6,1.4-0.9
				c0,0,0.1-0.1,0.1-0.1c0.2-0.2,0.5-0.4,0.7-0.6c0.1-0.1,0.2-0.2,0.3-0.3c0.2-0.2,0.3-0.3,0.5-0.5c0,0,0.1-0.1,0.1-0.1c0,0,0,0,0,0
				c0.2-0.2,0.3-0.4,0.5-0.6c0.1-0.1,0.1-0.2,0.2-0.3c0.1-0.2,0.2-0.3,0.3-0.5c0.1-0.1,0.1-0.3,0.2-0.4c0-0.1,0.1-0.2,0.1-0.3
				c0,0,0-0.1,0.1-0.1c0.1-0.3,0.2-0.6,0.3-0.9c0,0,0-0.1,0-0.1c0.1-0.4,0.2-0.7,0.2-1.1c0,0,0-0.1,0-0.1c0.1-0.3,0.1-0.7,0.1-1.1
				c0-0.1,0-0.1,0-0.2C164.6,69.6,164.6,69.3,164.6,68.9z"/>
			<polygon points="154.5,73.1 159.5,78.3 163.4,86.3 158.4,81.1 			"/>
			<polygon points="90.8,27.2 95.8,32.3 98.8,44.8 93.8,39.6 			"/>
			<polygon points="88.6,41.1 93.5,46.2 92.7,58.4 87.7,53.2 			"/>
			<polygon points="87.7,53.2 92.7,58.4 84,58.7 79,53.5 			"/>
			<polygon points="94.1,51.6 99.1,56.7 95.8,56.7 90.8,51.6 			"/>
			<polygon points="98.8,39.8 103.8,45 99.1,56.7 94.1,51.6 			"/>
			<polygon points="106.3,54 111.3,59.2 102.7,59.5 97.7,54.4 			"/>
			<polygon points="110,26.4 114.9,31.6 111.3,59.2 106.3,54 			"/>
			<path d="M128.9,42.9l-5-5.2c-0.2-0.2-0.4-0.4-0.7-0.6c-0.4-0.2-0.9-0.4-1.5-0.4c-0.6,0-1.1,0.1-1.6,0.3c-0.1,0.1-0.3,0.1-0.4,0.2
				c-0.1,0-0.1,0.1-0.2,0.1c-0.1,0-0.1,0.1-0.2,0.1c0,0-0.1,0.1-0.1,0.1c-0.1,0.1-0.3,0.2-0.4,0.3c0,0,0,0,0,0
				c-0.1,0.1-0.1,0.1-0.2,0.2c-0.1,0.1-0.2,0.2-0.3,0.4c0,0,0,0,0,0c0,0,0,0,0,0.1c-0.1,0.1-0.1,0.2-0.2,0.3
				c-0.1,0.1-0.1,0.2-0.2,0.3c0,0,0,0,0,0.1c-0.1,0.2-0.1,0.4-0.2,0.6c0,0,0,0,0,0.1c0,0.2-0.1,0.4-0.1,0.6c0,0.1,0,0.1,0,0.2
				c0,0,0,0,0,0.1c0,0.5,0,1.1,0.1,1.6c0.1,0.3,0.1,0.5,0.2,0.8c0,0,0,0,0,0c0.1,0.2,0.2,0.5,0.3,0.7c0,0,0,0,0,0
				c0.1,0.1,0.2,0.3,0.3,0.4c0,0,0.1,0.1,0.1,0.1l5,5.2c-0.2-0.2-0.3-0.3-0.4-0.5c-0.1-0.2-0.3-0.4-0.3-0.7
				c-0.1-0.2-0.2-0.5-0.2-0.8c-0.1-0.5-0.1-1.1-0.1-1.6c0-0.1,0-0.2,0-0.3c0-0.2,0.1-0.4,0.1-0.6c0.1-0.2,0.1-0.5,0.2-0.7
				c0.1-0.2,0.2-0.4,0.4-0.7c0,0,0,0,0-0.1c0.1-0.2,0.3-0.4,0.5-0.6c0.2-0.2,0.3-0.3,0.5-0.4c0.1,0,0.1-0.1,0.2-0.1
				c0.2-0.1,0.4-0.2,0.6-0.3c0.5-0.2,1-0.3,1.6-0.3c0.6,0,1.1,0.1,1.5,0.4C128.4,42.5,128.7,42.6,128.9,42.9L128.9,42.9
				C128.9,42.9,128.9,42.9,128.9,42.9z"/>
			<path d="M137.8,40.7c-0.1-0.3-0.2-0.5-0.3-0.8c0,0,0-0.1,0-0.1c-0.2-0.5-0.5-1-0.8-1.5c0,0,0-0.1-0.1-0.1c0-0.1-0.1-0.1-0.1-0.2
				c-0.2-0.2-0.3-0.4-0.5-0.6c-0.1-0.1-0.1-0.2-0.2-0.2c-0.1-0.1-0.1-0.2-0.2-0.3c0,0-0.1-0.1-0.1-0.1l-5-5.2c0,0,0.1,0.1,0.1,0.1
				c0.1,0.2,0.3,0.3,0.4,0.5c0.2,0.2,0.3,0.4,0.5,0.6c0.1,0.1,0.1,0.2,0.2,0.3c0.3,0.5,0.6,1,0.8,1.5c0.1,0.3,0.2,0.6,0.3,0.9
				c0.5,1.5,0.6,3.1,0.5,5c0,0.5-0.1,1-0.2,1.6c0,0.1-0.1,0.2-0.1,0.4c-0.1,0.5-0.2,0.9-0.3,1.4c-0.1,0.4-0.3,0.9-0.5,1.3
				c-0.1,0.2-0.2,0.4-0.3,0.6c-0.2,0.4-0.4,0.7-0.6,1.1c-0.2,0.4-0.5,0.7-0.7,1.1c-0.1,0.1-0.2,0.3-0.3,0.4c-0.3,0.4-0.6,0.8-1,1.1
				c-0.4,0.4-0.8,0.7-1.2,1.1c-0.4,0.3-0.9,0.6-1.3,0.9c-0.3,0.2-0.6,0.3-1,0.5c-0.2,0.1-0.3,0.2-0.5,0.2c-0.5,0.2-1,0.4-1.5,0.5
				c-1.1,0.3-2.2,0.5-3.3,0.5c-1.1,0-2.2-0.2-3.2-0.4c-1-0.3-1.9-0.7-2.8-1.2c-0.8-0.5-1.5-1-2.1-1.7l5,5.2c0.6,0.6,1.3,1.2,2.1,1.7
				c0.9,0.5,1.8,0.9,2.8,1.2c1,0.3,2.1,0.4,3.2,0.4c1.2,0,2.3-0.1,3.3-0.5c0.5-0.2,1-0.3,1.5-0.5c0.2-0.1,0.3-0.2,0.5-0.2
				c0.3-0.1,0.6-0.3,0.9-0.5c0,0,0,0,0.1,0c0.5-0.3,0.9-0.6,1.3-0.9c0,0,0,0,0,0c0.4-0.3,0.7-0.6,1.1-0.9c0,0,0.1-0.1,0.1-0.1
				c0.3-0.3,0.6-0.6,0.9-0.9c0-0.1,0.1-0.1,0.1-0.2c0.1-0.1,0.2-0.3,0.3-0.4c0.1-0.2,0.3-0.3,0.4-0.5c0.1-0.2,0.2-0.4,0.4-0.6
				c0.1-0.2,0.2-0.4,0.4-0.6c0.1-0.2,0.1-0.3,0.2-0.5c0.1-0.2,0.2-0.4,0.3-0.6c0-0.1,0.1-0.2,0.1-0.3c0.1-0.3,0.3-0.7,0.4-1
				c0.1-0.2,0.1-0.5,0.2-0.7c0.1-0.2,0.1-0.5,0.1-0.7c0-0.1,0.1-0.2,0.1-0.4c0.1-0.5,0.1-0.9,0.2-1.4c0-0.1,0-0.1,0-0.2
				C138.4,43.9,138.3,42.2,137.8,40.7z"/>
			<polygon points="143.8,39.6 148.8,44.8 147,58.7 142,53.5 			"/>
			<polygon points="142,53.5 147,58.7 138.5,58.7 133.6,53.5 			"/>
			<polygon points="158,52.3 163,57.5 153.1,58.4 148.1,53.2 			"/>
			<polygon points="96.5,56.5 101.5,61.7 100.3,69.3 95.3,64.1 			"/>
			<path d="M100.3,69.3l-5-5.2c-0.8-0.3-1.7-0.5-2.6-0.7c-0.9-0.2-1.8-0.3-2.7-0.3c-0.2,0-0.4,0-0.6,0c-0.3,0-0.5,0-0.8,0.1
				c-0.3,0-0.6,0.1-0.9,0.1c-0.3,0.1-0.6,0.2-0.8,0.3c-0.1,0-0.1,0.1-0.2,0.1c-0.1,0-0.1,0.1-0.2,0.1c0,0-0.1,0.1-0.1,0.1
				c0,0-0.1,0.1-0.1,0.1c0,0,0,0.1-0.1,0.1c0,0,0,0.1-0.1,0.1c0,0,0,0.1,0,0.1c0,0,0,0,0,0c0,0,0,0,0,0c0,0,0,0,0,0.1
				c0,0.1,0,0.1,0,0.2c0,0,0,0,0,0.1c0,0.1,0,0.3,0.1,0.4c0,0,0,0,0,0c0,0,0,0.1,0.1,0.1c0,0,0,0.1,0.1,0.1c0,0,0,0,0,0v0l5,5.2
				c-0.1-0.1-0.1-0.2-0.2-0.3c0-0.1-0.1-0.2-0.1-0.4c0-0.1,0-0.2,0.1-0.3c0,0,0,0,0,0c0-0.1,0.1-0.2,0.2-0.3
				c0.2-0.2,0.3-0.3,0.6-0.4c0.2-0.1,0.5-0.2,0.8-0.3c0.3-0.1,0.6-0.1,0.9-0.1c0.3,0,0.6-0.1,0.8-0.1c0.3,0,0.5,0,0.6,0
				c0.9,0,1.8,0.1,2.7,0.3C98.6,68.8,99.5,69,100.3,69.3L100.3,69.3L100.3,69.3z"/>
			<path d="M88,72.9c-0.1-0.1-0.3-0.2-0.5-0.3c-0.2-0.1-0.5-0.2-0.8-0.2c-0.3-0.1-0.6-0.1-0.9-0.1c-0.3,0-0.6,0-0.8,0
				c-0.3,0-0.5,0-0.6,0c-1.1,0-2.1-0.2-2.9-0.6c-0.8-0.3-1.4-0.8-2-1.3l5,5.2c0.6,0.6,1.2,1,2,1.3c0.9,0.4,1.8,0.6,2.9,0.6
				c0.2,0,0.3,0,0.6,0c0.2,0,0.5,0,0.8,0c0.3,0,0.6,0.1,0.9,0.1c0.3,0.1,0.6,0.1,0.8,0.2c0.2,0.1,0.4,0.2,0.5,0.3L88,72.9z"/>
			<polygon points="103,64.7 108,69.9 102.3,70.2 97.4,65 			"/>
			<path d="M101.9,78.3c0-0.1,0-0.1,0-0.2c0.1-1,0-1.9-0.2-2.8c-0.1-0.2-0.1-0.5-0.2-0.7c0-0.1-0.1-0.2-0.1-0.3
				c-0.1-0.1-0.1-0.3-0.2-0.4c0-0.1-0.1-0.2-0.1-0.3c-0.1-0.2-0.3-0.4-0.4-0.6c0,0,0,0,0,0c-0.1-0.1-0.1-0.2-0.2-0.2l-5-5.2
				c0.1,0.1,0.1,0.2,0.2,0.2c0.2,0.2,0.4,0.5,0.6,0.8c0.1,0.1,0.1,0.2,0.2,0.4c0.1,0.3,0.3,0.6,0.4,1C96.9,71,97,72,96.9,73
				c0,0.3-0.1,0.6-0.1,1c0,0.1,0,0.2,0,0.3c-0.1,0.4-0.1,0.8-0.2,1.1c-0.1,0.4-0.2,0.8-0.4,1.2c-0.1,0.3-0.3,0.7-0.4,1
				c-0.2,0.3-0.4,0.6-0.6,0.9c0,0-0.1,0.1-0.1,0.1c-0.2,0.2-0.3,0.5-0.5,0.7c-0.1,0.1-0.2,0.2-0.2,0.3c-0.1,0.2-0.3,0.3-0.4,0.5
				c-0.2,0.2-0.3,0.3-0.5,0.4c-0.1,0.1-0.2,0.2-0.3,0.3c-0.3,0.3-0.7,0.5-1.1,0.7c-0.1,0.1-0.2,0.1-0.3,0.2
				c-0.3,0.1-0.5,0.3-0.8,0.4c-0.1,0.1-0.2,0.1-0.3,0.2c-0.4,0.2-0.8,0.3-1.2,0.4c-1.4,0.4-2.9,0.6-4.5,0.6c-0.6,0-1.3-0.1-2-0.2
				c-0.7-0.2-1.5-0.4-2.2-0.6c-0.7-0.2-1.4-0.5-2.1-0.8c-0.7-0.3-1.3-0.5-1.8-0.8l5,5.2c0.5,0.3,1.1,0.5,1.8,0.8
				c0.7,0.3,1.4,0.5,2.1,0.8c0.7,0.3,1.5,0.5,2.2,0.6c0.7,0.2,1.4,0.2,2,0.2c1.6,0,3.1-0.2,4.5-0.6c0.4-0.1,0.8-0.3,1.2-0.4
				c0.1,0,0.2-0.1,0.3-0.2c0.3-0.1,0.6-0.3,0.8-0.4c0.1,0,0.1-0.1,0.2-0.1c0,0,0.1-0.1,0.1-0.1c0.4-0.2,0.7-0.5,1.1-0.7c0,0,0,0,0,0
				c0.1-0.1,0.2-0.2,0.3-0.2c0.2-0.1,0.3-0.3,0.5-0.4c0,0,0,0,0,0c0.1-0.1,0.3-0.3,0.4-0.4c0.1-0.1,0.2-0.2,0.2-0.3c0,0,0,0,0,0
				c0.2-0.2,0.3-0.4,0.5-0.7c0,0,0.1-0.1,0.1-0.1c0,0,0,0,0,0c0.2-0.3,0.4-0.6,0.5-0.9c0,0,0,0,0,0c0.2-0.3,0.3-0.6,0.4-0.9
				c0,0,0,0,0,0c0.1-0.4,0.3-0.8,0.4-1.2c0,0,0,0,0,0c0.1-0.4,0.2-0.7,0.2-1.1c0-0.1,0-0.2,0-0.3C101.8,78.8,101.9,78.6,101.9,78.3z
				"/>
			<polygon points="118,64 122.9,69.2 117.3,69.4 112.3,64.3 			"/>
			<polygon points="118.7,56.1 123.7,61.2 122.9,69.2 118,64 			"/>
			<polygon points="109.7,82.1 114.7,87.3 106.7,87.7 101.7,82.5 			"/>
			<polygon points="112.3,64.3 117.3,69.4 114.7,87.3 109.7,82.1 			"/>
			<polygon points="128.6,63.3 133.6,68.4 133.2,70.8 128.3,65.6 			"/>
			<polygon points="136.6,62.8 141.6,68 133.6,68.4 128.6,63.3 			"/>
			<polygon points="127.4,71.6 132.4,76.8 132,79.6 127,74.4 			"/>
			<polygon points="133,71.5 138,76.6 132.4,76.8 127.4,71.6 			"/>
			<polygon points="133.9,65.6 138.8,70.8 138,76.6 133,71.5 			"/>
			<g>
				<defs>
					<path id="SVGID_402_" d="M135,74.4l5,5.2c-0.2,1.4-0.3,2.7-0.5,4.1s-0.4,2.7-0.5,4.1l-5-5.2c0.2-1.4,0.3-2.7,0.5-4.1
						S134.8,75.8,135,74.4z"/>
				</defs>
				<use xlink:href="#SVGID_402_"  style="overflow:visible;"/>
				<clipPath id="SVGID_58_">
					<use xlink:href="#SVGID_402_"  style="overflow:visible;"/>
				</clipPath>
				<path style="clip-path:url(#SVGID_58_);" d="M154.1,70.8l6.3,6.5c-0.2,1.7-0.4,3.4-0.6,5.2c-0.2,1.7-0.4,3.4-0.6,5.1l-6.3-6.5
					c0.2-1.7,0.4-3.4,0.6-5.1C153.7,74.2,153.9,72.5,154.1,70.8"/>
			</g>
			<polygon points="134,82.6 138.9,87.7 122.7,88.1 117.7,83 			"/>
			<path d="M150.3,62.7c-0.2-0.2-0.5-0.4-0.8-0.6c-0.4-0.2-0.9-0.3-1.5-0.3c-0.2,0-0.5,0-0.7,0c-0.2,0-0.5,0.1-0.7,0.1v0l0,0l5,5.2
				c0.2-0.1,0.5-0.1,0.7-0.1c0.2,0,0.5,0,0.7,0c0.6,0,1.1,0.1,1.5,0.3c0.3,0.1,0.6,0.3,0.8,0.6L150.3,62.7z"/>
			<polygon points="146.6,62 151.5,67.2 150.8,74.2 145.8,69 			"/>
			<polygon points="147.5,74.8 152.5,79.9 150.1,80 145.1,74.8 			"/>
			<polygon points="144.3,82.7 149.2,87.8 141.2,87.8 136.2,82.7 			"/>
			<polygon points="145.1,74.8 150.1,80 149.2,87.8 144.3,82.7 			"/>
			<polygon points="158.4,81.1 163.4,86.3 154.8,87.9 149.8,82.8 			"/>
			<polygon points="71.7,41.7 76.7,46.9 76.3,53.3 71.3,48.1 			"/>
			<polygon points="71.3,48.1 76.3,53.3 64.2,53.1 59.2,47.9 			"/>
			<g>
				<defs>
					<path id="SVGID_404_" d="M137.6,55.9l5,5.2c-0.2,1.2-0.3,2.3-0.4,3.5c-0.1,1.2-0.3,2.3-0.5,3.5l-5-5.2c0.2-1.2,0.3-2.3,0.5-3.5
						C137.2,58.2,137.4,57,137.6,55.9z"/>
				</defs>
				<use xlink:href="#SVGID_404_"  style="overflow:visible;"/>
				<clipPath id="SVGID_59_">
					<use xlink:href="#SVGID_404_"  style="overflow:visible;"/>
				</clipPath>
				<path style="clip-path:url(#SVGID_59_);" d="M157.4,47.5l6.3,6.5c-0.2,1.5-0.4,2.9-0.6,4.4c-0.2,1.5-0.4,2.9-0.6,4.4l-6.3-6.5
					c0.2-1.5,0.4-2.9,0.6-4.4C157,50.5,157.1,49,157.4,47.5"/>
			</g>
			<g>
				<defs>
					<path id="SVGID_406_" d="M137.6,55.9l5,5.2c-0.2,1.2-0.3,2.3-0.4,3.5c-0.1,1.2-0.3,2.3-0.5,3.5l-5-5.2c0.2-1.2,0.3-2.3,0.5-3.5
						C137.2,58.2,137.4,57,137.6,55.9z"/>
				</defs>
				<use xlink:href="#SVGID_406_"  style="overflow:visible;"/>
				<clipPath id="SVGID_60_">
					<use xlink:href="#SVGID_406_"  style="overflow:visible;"/>
				</clipPath>
				<path style="clip-path:url(#SVGID_60_);" d="M157.4,47.5l6.3,6.5c-0.2,1.5-0.4,2.9-0.6,4.4c-0.2,1.5-0.4,2.9-0.6,4.4l-6.3-6.5
					c0.2-1.5,0.4-2.9,0.6-4.4C157,50.5,157.1,49,157.4,47.5"/>
			</g>
			<polygon points="181.5,61.4 185.5,67.3 184.2,74 180.2,68 			"/>
			<polygon points="180.2,68 184.2,74 173,83.8 168.9,77.9 			"/>
			<polygon points="175.1,87.1 179.2,93 162.5,90.8 158.4,84.9 			"/>
			<polygon points="177.1,79.3 181.2,85.2 179.2,93 175.1,87.1 			"/>
			<polygon points="172.2,66.8 174.5,72.4 167.2,71.8 163.1,65.9 			"/>
			<polygon points="172.2,66.8 174.5,72.4 167.2,71.8 163.1,65.9 			"/>
			<g>
				<polygon points="35.6,8.1 42.5,11.7 39.4,34.7 32.4,31.1 				"/>
			</g>
			<g>
				<polygon points="27,84 34,87.6 13.7,88.4 6.8,84.8 				"/>
			</g>
			<g>
				<polygon points="29.2,61 36.1,64.5 34,87.6 27,84 				"/>
			</g>
			<g>
				<polygon points="73.3,8.8 80.3,12.4 54.8,46.3 47.9,42.7 				"/>
			</g>
			<g>
				<polygon points="65.4,78.8 72.4,82.4 49.6,86.5 42.6,83 				"/>
			</g>
			<g>
				<polygon points="47.9,42.7 54.8,46.3 72.4,82.4 65.4,78.8 				"/>
			</g>
		</g>
		<g>
			<linearGradient id="SVGID_61_" gradientUnits="userSpaceOnUse" x1="94.4619" y1="26.4125" x2="94.4619" y2="54.3812">
				<stop  offset="0" style="stop-color:#837BFF"/>
				<stop  offset="1" style="stop-color:#3129CB"/>
			</linearGradient>
			<polygon class="st78" points="110,26.4 106.3,54 97.7,54.4 98.8,39.8 94.1,51.6 90.8,51.6 88.6,41.1 87.7,53.2 79,53.5 
				81.2,27.5 90.8,27.2 93.8,39.6 99.8,26.4 			"/>
			<linearGradient id="SVGID_62_" gradientUnits="userSpaceOnUse" x1="121.3799" y1="28.5141" x2="121.3799" y2="53.0993">
				<stop  offset="0" style="stop-color:#837BFF"/>
				<stop  offset="1" style="stop-color:#3129CB"/>
			</linearGradient>
			<path class="st79" d="M132.8,35.6c0.5,1.5,0.6,3.1,0.5,5c-0.1,1.1-0.3,2.2-0.6,3.3c-0.3,1.1-0.8,2.1-1.3,3
				c-0.6,0.9-1.2,1.8-2,2.6c-0.8,0.8-1.6,1.4-2.5,2c-0.9,0.5-1.9,1-3,1.3c-1.1,0.3-2.2,0.5-3.3,0.5c-1.1,0-2.2-0.2-3.2-0.4
				c-1-0.3-1.9-0.7-2.8-1.2c-0.9-0.5-1.6-1.2-2.3-1.9c-0.7-0.7-1.2-1.5-1.7-2.4c-0.5-0.9-0.8-1.9-1-2.9c-0.2-1-0.3-2.1-0.2-3.2
				c0.1-1.1,0.3-2.2,0.6-3.2c0.3-1,0.8-2,1.3-3s1.2-1.8,2-2.6c0.8-0.8,1.6-1.5,2.5-2c0.9-0.6,1.9-1,2.9-1.3c1-0.3,2.1-0.5,3.2-0.5
				c1.8,0,3.5,0.3,4.9,0.8c1.5,0.6,2.7,1.4,3.7,2.4C131.6,32.8,132.3,34.1,132.8,35.6z M124.6,42.6c0.2-0.5,0.3-1,0.4-1.6
				c0-0.5,0-1.1-0.1-1.6c-0.1-0.5-0.3-1-0.6-1.4c-0.3-0.4-0.6-0.7-1.1-1c-0.4-0.2-0.9-0.4-1.5-0.4c-0.6,0-1.1,0.1-1.6,0.3
				c-0.5,0.2-0.9,0.5-1.3,0.9c-0.3,0.4-0.6,0.8-0.9,1.3c-0.2,0.5-0.3,1-0.4,1.6c0,0.5,0,1.1,0.1,1.6c0.1,0.5,0.3,1,0.6,1.4
				c0.3,0.4,0.6,0.8,1,1c0.4,0.3,0.9,0.4,1.5,0.4c0.6,0,1.1-0.1,1.6-0.3c0.5-0.2,0.9-0.5,1.3-0.9C124.1,43.6,124.4,43.1,124.6,42.6"
				/>
			<linearGradient id="SVGID_63_" gradientUnits="userSpaceOnUse" x1="147.3586" y1="26.4125" x2="147.3586" y2="53.5151">
				<stop  offset="0" style="stop-color:#837BFF"/>
				<stop  offset="1" style="stop-color:#3129CB"/>
			</linearGradient>
			<polygon class="st80" points="145.5,26.4 151.1,39.9 152.3,27.2 161.2,26.9 158,52.3 148.1,53.2 143.8,39.6 142,53.5 133.6,53.5 
				136.1,26.9 			"/>
			<linearGradient id="SVGID_64_" gradientUnits="userSpaceOnUse" x1="86.805" y1="55.1089" x2="86.805" y2="83.2164">
				<stop  offset="0" style="stop-color:#837BFF"/>
				<stop  offset="1" style="stop-color:#3129CB"/>
			</linearGradient>
			<path class="st81" d="M89.2,55.1c0.6,0,1.2,0,1.9,0.1c0.6,0,1.3,0.1,1.9,0.2c0.6,0.1,1.3,0.3,1.9,0.4c0.6,0.2,1.2,0.4,1.7,0.7
				l-1.2,7.6c-0.8-0.3-1.7-0.5-2.6-0.7c-0.9-0.2-1.8-0.3-2.7-0.3c-0.2,0-0.4,0-0.6,0c-0.3,0-0.5,0-0.8,0.1c-0.3,0-0.6,0.1-0.9,0.1
				c-0.3,0.1-0.6,0.2-0.8,0.3c-0.2,0.1-0.4,0.2-0.6,0.4c-0.2,0.2-0.2,0.4-0.2,0.6c0,0.3,0.1,0.5,0.3,0.7c0.2,0.2,0.4,0.3,0.7,0.4
				c0.3,0.1,0.6,0.2,1,0.2c0.4,0,0.7,0.1,1.1,0.1c0.2,0,0.4,0,0.5,0c0.2,0,0.3,0,0.5,0c0.1,0,0.2,0,0.2,0c0.2,0,0.4,0,0.5,0
				c1,0.1,1.9,0.3,2.7,0.6c0.8,0.4,1.4,0.8,1.9,1.4c0.5,0.6,0.9,1.3,1.1,2.1C96.9,71,97,72,96.9,73c-0.1,1.7-0.5,3.2-1.2,4.5
				c-0.7,1.3-1.6,2.3-2.7,3.2c-1.1,0.9-2.3,1.5-3.8,1.9c-1.4,0.4-2.9,0.6-4.5,0.6c-0.6,0-1.3-0.1-2-0.2c-0.7-0.2-1.5-0.4-2.2-0.6
				c-0.7-0.2-1.4-0.5-2.1-0.8s-1.3-0.5-1.8-0.8L78,73c1,0.6,2.2,1.1,3.4,1.5c1.3,0.3,2.5,0.5,3.8,0.5c0.2,0,0.5,0,0.9,0
				c0.3,0,0.7-0.1,1-0.2c0.3-0.1,0.6-0.2,0.8-0.4c0.2-0.2,0.3-0.5,0.4-0.8c0-0.2,0-0.4-0.2-0.6c-0.1-0.2-0.3-0.3-0.6-0.4
				c-0.2-0.1-0.5-0.2-0.8-0.2c-0.3-0.1-0.6-0.1-0.9-0.1c-0.3,0-0.6,0-0.8,0c-0.3,0-0.5,0-0.6,0c-1.1,0-2.1-0.2-2.9-0.6
				c-0.9-0.4-1.6-0.9-2.2-1.6c-0.6-0.7-1-1.5-1.3-2.4c-0.3-0.9-0.4-1.9-0.3-3c0.1-1.5,0.5-2.8,1.2-4c0.7-1.2,1.5-2.2,2.6-3
				c1-0.8,2.2-1.4,3.6-1.9C86.4,55.3,87.8,55.1,89.2,55.1z"/>
			<linearGradient id="SVGID_65_" gradientUnits="userSpaceOnUse" x1="108.0359" y1="56.0788" x2="108.0359" y2="82.5119">
				<stop  offset="0" style="stop-color:#837BFF"/>
				<stop  offset="1" style="stop-color:#3129CB"/>
			</linearGradient>
			<polygon class="st82" points="118.7,56.1 118,64 112.3,64.3 109.7,82.1 101.7,82.5 103,64.7 97.4,65 98.2,56.1 			"/>
			<linearGradient id="SVGID_66_" gradientUnits="userSpaceOnUse" x1="127.6464" y1="55.8595" x2="127.6464" y2="82.9624">
				<stop  offset="0" style="stop-color:#837BFF"/>
				<stop  offset="1" style="stop-color:#3129CB"/>
			</linearGradient>
			<path class="st85" d="M137.6,55.9c-0.2,1.2-0.3,2.3-0.4,3.5c-0.1,1.2-0.3,2.3-0.5,3.5l-8,0.4l-0.4,2.4h5.6l-0.8,5.8l-5.6,0.2
				l-0.4,2.7h4.7h3.3c-0.2,1.4-0.3,2.7-0.5,4.1s-0.4,2.7-0.5,4.1L117.7,83l2.5-27.1H137.6z"/>
			<linearGradient id="SVGID_67_" gradientUnits="userSpaceOnUse" x1="147.9026" y1="55.409" x2="147.9026" y2="82.7659">
				<stop  offset="0" style="stop-color:#837BFF"/>
				<stop  offset="1" style="stop-color:#3129CB"/>
			</linearGradient>
			<path class="st86" d="M156.7,71.5c-0.6,0.6-1.3,1.1-2.2,1.6l3.9,8l-8.6,1.7l-2.3-8l-2.3,0.1l-0.9,7.8h-8.1
				c0.3-2.9,0.5-5.7,0.8-8.5c0.2-2.8,0.5-5.7,0.8-8.5c0.1-1.4,0.2-2.9,0.4-4.3c0.1-1.4,0.3-2.9,0.4-4.3c0.9-0.3,1.8-0.6,2.7-0.8
				c0.9-0.2,1.7-0.4,2.6-0.5c0.9-0.1,1.7-0.2,2.6-0.3c0.9,0,1.8-0.1,2.7-0.1c1.4,0,2.8,0.2,4.1,0.6c1.3,0.4,2.4,1,3.4,1.8
				c1,0.8,1.7,1.8,2.3,2.9c0.5,1.2,0.8,2.6,0.6,4.1c-0.1,1-0.2,1.9-0.4,2.7c-0.2,0.8-0.5,1.5-1,2.2C157.8,70.4,157.3,71,156.7,71.5z
				 M150.6,67.1c0.3-0.5,0.5-1,0.5-1.6c0-0.5,0-1-0.1-1.5c-0.1-0.4-0.3-0.8-0.6-1.1c-0.3-0.3-0.6-0.6-1-0.8
				c-0.4-0.2-0.9-0.3-1.5-0.3c-0.2,0-0.5,0-0.7,0c-0.2,0-0.5,0.1-0.7,0.2l-0.8,7h0.5c0.5,0,1.1-0.1,1.7-0.2c0.6-0.1,1.1-0.3,1.5-0.6
				C149.9,67.9,150.3,67.5,150.6,67.1"/>
			<linearGradient id="SVGID_68_" gradientUnits="userSpaceOnUse" x1="65.4469" y1="41.6939" x2="65.4469" y2="48.126">
				<stop  offset="0" style="stop-color:#837BFF"/>
				<stop  offset="1" style="stop-color:#3129CB"/>
			</linearGradient>
			<polygon class="st87" points="71.7,41.7 71.3,48.1 59.2,47.9 59.5,42.3 			"/>
			<g>
				<linearGradient id="SVGID_69_" gradientUnits="userSpaceOnUse" x1="40.0506" y1="6.7922" x2="40.0506" y2="84.7971">
					<stop  offset="0" style="stop-color:#FF2333"/>
					<stop  offset="1" style="stop-color:#FF6700"/>
				</linearGradient>
				<polygon class="st88" points="49,6.8 73.3,8.8 47.9,42.7 65.4,78.8 42.6,83 29.2,61 27,84 6.8,84.8 13,6.8 35.6,8.1 32.4,31.1 
									"/>
			</g>
			
				<linearGradient id="SVGID_70_" gradientUnits="userSpaceOnUse" x1="166.7441" y1="62.4078" x2="166.7441" y2="89.4299" gradientTransform="matrix(0.9856 0.1692 -0.1692 0.9856 18.332 -29.927)">
				<stop  offset="5.319149e-03" style="stop-color:#FFA613"/>
				<stop  offset="1" style="stop-color:#EC6E0A"/>
			</linearGradient>
			<polygon class="st89" points="181.5,61.4 180.2,68 168.9,77.9 177.1,79.3 175.1,87.1 158.4,84.9 159.4,77.6 172.2,66.8 
				163.1,65.9 164.9,58.6 			"/>
		</g>
	</g>
</g>
<g>
	<g class="st325">
		
			<image style="overflow:visible;" width="313" height="313" xlink:href="E524AC5E.png"  transform="matrix(0.24 0 0 0.24 54.9083 97.0313)">
		</image>
	</g>
</g>
</svg>
