<?xml version="1.0" encoding="utf-8"?>
<!-- Generator: Adobe Illustrator 23.0.0, SVG Export Plug-In . SVG Version: 6.00 Build 0)  -->
<svg version="1.1" id="레이어_1" xmlns="http://www.w3.org/2000/svg" xmlns:xlink="http://www.w3.org/1999/xlink" x="0px"
	 y="0px" viewBox="0 0 188 100" style="enable-background:new 0 0 188 100;" xml:space="preserve">
<style type="text/css">
	.st0{fill:#FFFFFF;}
	.st1{fill:#606060;}
	.st2{fill:url(#SVGID_1_);}
	.st3{fill:url(#SVGID_2_);}
	.st4{fill:url(#SVGID_3_);}
	.st5{fill:url(#SVGID_4_);}
	.st6{fill:url(#SVGID_5_);}
	.st7{fill:url(#SVGID_6_);}
	.st8{fill:url(#SVGID_7_);}
	.st9{fill:url(#SVGID_8_);}
	.st10{fill:url(#SVGID_9_);}
	.st11{fill:none;}
	.st12{fill:#55BCE3;}
	.st13{fill:none;stroke:#231815;stroke-miterlimit:10;}
	.st14{fill:#49DEB1;}
	.st15{fill:#4E92DD;}
	.st16{fill:#E4E1F2;}
	.st17{fill:#231815;}
	.st18{fill:#3E3A39;}
	.st19{fill:#595757;}
	.st20{fill:#878787;}
	.st21{fill:#6F7DE7;}
	.st22{fill:#6C79E1;}
	.st23{fill:#CED1F4;}
	.st24{fill:#4952B8;}
	.st25{fill:#5267E3;}
	.st26{fill:#A8B4FF;}
	.st27{fill:url(#SVGID_10_);}
	.st28{fill:url(#SVGID_11_);}
	.st29{fill:url(#SVGID_12_);}
	.st30{fill:url(#SVGID_13_);}
	.st31{fill:url(#SVGID_14_);}
	.st32{fill:url(#SVGID_15_);}
	.st33{fill:url(#SVGID_16_);}
	.st34{fill:url(#SVGID_17_);}
	.st35{fill:url(#SVGID_18_);}
	.st36{fill:url(#SVGID_19_);}
	.st37{fill:url(#SVGID_20_);}
	.st38{fill:url(#SVGID_21_);}
	.st39{fill:url(#SVGID_22_);}
	.st40{fill:url(#SVGID_23_);}
	.st41{fill:url(#SVGID_24_);}
	.st42{fill:url(#SVGID_25_);}
	.st43{fill:url(#SVGID_26_);}
	.st44{fill:url(#SVGID_27_);}
	.st45{fill:url(#SVGID_28_);}
	.st46{fill:url(#SVGID_29_);}
	.st47{fill:url(#SVGID_30_);}
	.st48{fill:url(#SVGID_31_);}
	.st49{fill:url(#SVGID_32_);}
	.st50{fill:url(#SVGID_33_);}
	.st51{fill:url(#SVGID_34_);}
	.st52{fill:url(#SVGID_35_);}
	.st53{fill:url(#SVGID_36_);}
	.st54{fill:url(#SVGID_37_);}
	.st55{fill:url(#SVGID_38_);}
	.st56{fill:url(#SVGID_39_);}
	.st57{fill:url(#SVGID_40_);}
	.st58{fill:url(#SVGID_41_);}
	.st59{fill:url(#SVGID_42_);}
	.st60{fill:url(#SVGID_43_);}
	.st61{fill:url(#SVGID_44_);}
	.st62{fill:url(#SVGID_45_);}
	.st63{fill:url(#SVGID_46_);}
	.st64{fill:url(#SVGID_47_);}
	.st65{fill:url(#SVGID_48_);}
	.st66{fill:url(#SVGID_49_);}
	.st67{fill:url(#SVGID_50_);}
	.st68{fill:url(#SVGID_51_);}
	.st69{fill:url(#SVGID_52_);}
	.st70{fill:url(#SVGID_53_);}
	.st71{fill:url(#SVGID_54_);}
	.st72{fill:url(#SVGID_55_);}
	.st73{fill:url(#SVGID_56_);}
	.st74{fill:url(#SVGID_57_);}
	.st75{fill:url(#SVGID_58_);}
	.st76{fill:url(#SVGID_59_);}
	.st77{fill:url(#SVGID_60_);}
	.st78{fill:url(#SVGID_61_);}
	.st79{fill:url(#SVGID_62_);}
	.st80{fill:url(#SVGID_63_);}
	.st81{fill:url(#SVGID_64_);}
	.st82{fill:url(#SVGID_65_);}
	.st83{fill:#666666;}
	.st84{fill:#CBCBCB;}
	.st85{fill:url(#SVGID_66_);}
	.st86{fill:url(#SVGID_67_);}
	.st87{fill:url(#SVGID_68_);}
	.st88{fill:url(#SVGID_69_);}
	.st89{fill:url(#SVGID_70_);}
	.st90{fill:url(#SVGID_71_);}
	.st91{fill:url(#SVGID_72_);}
	.st92{fill:url(#SVGID_73_);}
	.st93{fill:url(#SVGID_74_);}
	.st94{fill:url(#SVGID_75_);}
	.st95{fill:url(#SVGID_76_);}
	.st96{fill:url(#SVGID_77_);}
	.st97{fill:url(#SVGID_78_);}
	.st98{fill:#111111;}
	.st99{fill:url(#SVGID_79_);}
	.st100{fill:url(#SVGID_80_);}
	.st101{fill:url(#SVGID_81_);}
	.st102{fill:url(#SVGID_82_);}
	.st103{fill:url(#SVGID_83_);}
	.st104{fill:url(#SVGID_84_);}
	.st105{fill:url(#SVGID_85_);}
	.st106{fill:url(#SVGID_86_);}
	.st107{fill:url(#SVGID_87_);}
	.st108{fill:url(#SVGID_88_);}
	.st109{fill:url(#SVGID_89_);}
	.st110{fill:url(#SVGID_90_);}
	.st111{fill:url(#SVGID_91_);}
	.st112{fill:url(#SVGID_92_);}
	.st113{fill:url(#SVGID_93_);}
	.st114{fill:url(#SVGID_94_);}
	.st115{fill:url(#SVGID_95_);}
	.st116{fill:url(#SVGID_96_);}
	.st117{fill:#FFEFE5;}
	.st118{fill:#FFC9C9;}
	.st119{fill:url(#SVGID_99_);}
	.st120{fill:url(#SVGID_100_);}
	.st121{fill:#A9A9A9;}
	.st122{fill:url(#SVGID_101_);}
	.st123{fill:url(#SVGID_102_);}
	.st124{fill:url(#SVGID_103_);}
	.st125{fill:url(#SVGID_104_);}
	.st126{fill:url(#SVGID_105_);}
	.st127{fill:url(#SVGID_106_);}
	.st128{fill:url(#SVGID_107_);}
	.st129{fill:url(#SVGID_108_);}
	.st130{fill:url(#SVGID_109_);}
	.st131{fill:url(#SVGID_110_);}
	.st132{fill:url(#SVGID_111_);}
	.st133{fill:url(#SVGID_112_);}
	.st134{fill:url(#SVGID_113_);}
	.st135{fill:url(#SVGID_114_);}
	.st136{fill:url(#SVGID_115_);}
	.st137{fill:url(#SVGID_116_);}
	.st138{fill:url(#SVGID_117_);}
	.st139{fill:url(#SVGID_118_);}
	.st140{fill:url(#SVGID_119_);}
	.st141{fill:url(#SVGID_120_);}
	.st142{fill:url(#SVGID_121_);}
	.st143{fill:url(#SVGID_122_);}
	.st144{fill:url(#SVGID_123_);}
	.st145{fill:url(#SVGID_124_);}
	.st146{fill:url(#SVGID_125_);}
	.st147{fill:url(#SVGID_126_);}
	.st148{fill:url(#SVGID_127_);}
	.st149{fill:url(#SVGID_128_);}
	.st150{fill:url(#SVGID_129_);}
	.st151{fill:url(#SVGID_130_);}
	.st152{fill:url(#SVGID_131_);}
	.st153{fill:url(#SVGID_132_);}
	.st154{fill:url(#SVGID_133_);}
	.st155{fill:url(#SVGID_134_);}
	.st156{fill:url(#SVGID_135_);}
	.st157{fill:url(#SVGID_136_);}
	.st158{fill:url(#SVGID_137_);}
	.st159{fill:url(#SVGID_138_);}
	.st160{fill:url(#SVGID_139_);}
	.st161{fill:url(#SVGID_140_);}
	.st162{fill:url(#SVGID_141_);}
	.st163{fill:url(#SVGID_142_);}
	.st164{fill:url(#SVGID_143_);}
	.st165{fill:url(#SVGID_144_);}
	.st166{fill:url(#SVGID_145_);}
	.st167{clip-path:url(#SVGID_148_);fill:url(#SVGID_149_);}
	.st168{fill:url(#SVGID_150_);}
	.st169{fill:url(#SVGID_151_);}
	.st170{fill:url(#SVGID_152_);}
	.st171{fill:url(#SVGID_153_);}
	.st172{fill:url(#SVGID_154_);}
	.st173{fill:url(#SVGID_155_);}
	.st174{fill:url(#SVGID_156_);}
	.st175{fill:url(#SVGID_157_);}
	.st176{fill:url(#SVGID_158_);}
	.st177{clip-path:url(#SVGID_160_);}
	.st178{clip-path:url(#SVGID_163_);fill:url(#SVGID_164_);}
	.st179{opacity:0.5;}
	.st180{clip-path:url(#SVGID_166_);}
	.st181{clip-path:url(#SVGID_168_);}
	.st182{fill:url(#SVGID_169_);}
	.st183{fill:url(#SVGID_170_);}
	.st184{fill:url(#SVGID_171_);}
	.st185{fill:url(#SVGID_172_);}
	.st186{fill:url(#SVGID_173_);}
	.st187{fill:url(#SVGID_174_);}
	.st188{fill:url(#SVGID_175_);}
	.st189{fill:url(#SVGID_176_);}
	.st190{fill:url(#SVGID_177_);}
	.st191{enable-background:new    ;}
	.st192{fill:url(#SVGID_178_);}
	.st193{fill:url(#SVGID_179_);}
	.st194{fill:url(#SVGID_180_);}
	.st195{fill:url(#SVGID_181_);}
	.st196{fill:url(#SVGID_182_);}
	.st197{fill:url(#SVGID_183_);}
	.st198{fill:url(#SVGID_184_);}
	.st199{fill:url(#SVGID_185_);}
	.st200{fill:url(#SVGID_186_);}
	.st201{fill:url(#SVGID_187_);}
	.st202{fill:url(#SVGID_188_);}
	.st203{fill:url(#SVGID_189_);}
	.st204{fill:url(#SVGID_190_);}
	.st205{fill:url(#SVGID_191_);}
	.st206{fill:url(#SVGID_192_);}
	.st207{fill:url(#SVGID_193_);}
	.st208{fill:url(#SVGID_194_);}
	.st209{fill:url(#SVGID_195_);}
	.st210{fill:url(#SVGID_196_);}
	.st211{fill:url(#SVGID_197_);}
	.st212{fill:url(#SVGID_198_);}
	.st213{fill:url(#SVGID_199_);}
	.st214{fill:url(#SVGID_200_);}
	.st215{fill:url(#SVGID_201_);}
	.st216{fill:url(#SVGID_202_);}
	.st217{fill:url(#SVGID_203_);}
	.st218{fill:url(#SVGID_204_);}
	.st219{fill:url(#SVGID_205_);}
	.st220{fill:url(#SVGID_206_);}
	.st221{fill:url(#SVGID_207_);}
	.st222{fill:url(#SVGID_208_);}
	.st223{fill:url(#SVGID_209_);}
	.st224{fill:url(#SVGID_210_);}
	.st225{fill:url(#SVGID_211_);}
	.st226{fill:url(#SVGID_212_);}
	.st227{fill:url(#SVGID_213_);}
	.st228{fill:url(#SVGID_214_);}
	.st229{fill:url(#SVGID_215_);}
	.st230{fill:url(#SVGID_216_);}
	.st231{fill:url(#SVGID_217_);}
	.st232{fill:url(#SVGID_218_);}
	.st233{fill:url(#SVGID_219_);}
	.st234{fill:url(#SVGID_220_);}
	.st235{fill:url(#SVGID_221_);}
	.st236{clip-path:url(#SVGID_224_);fill:url(#SVGID_225_);}
	.st237{fill:url(#SVGID_226_);}
	.st238{fill:url(#SVGID_227_);}
	.st239{fill:url(#SVGID_228_);}
	.st240{fill:url(#SVGID_229_);}
	.st241{fill:url(#SVGID_230_);}
	.st242{fill:url(#SVGID_231_);}
	.st243{fill:url(#SVGID_232_);}
	.st244{fill:url(#SVGID_233_);}
	.st245{fill:url(#SVGID_234_);}
	.st246{clip-path:url(#SVGID_236_);}
	.st247{clip-path:url(#SVGID_239_);fill:url(#SVGID_240_);}
	.st248{fill:url(#SVGID_241_);}
	.st249{fill:url(#SVGID_242_);}
	.st250{fill:url(#SVGID_243_);}
	.st251{fill:url(#SVGID_244_);}
	.st252{fill:url(#SVGID_245_);}
	.st253{fill:url(#SVGID_246_);}
	.st254{fill:url(#SVGID_247_);}
	.st255{fill:url(#SVGID_248_);}
	.st256{fill:url(#SVGID_249_);}
	.st257{fill:url(#SVGID_250_);}
	.st258{fill:url(#SVGID_251_);}
	.st259{fill:url(#SVGID_252_);}
	.st260{fill:url(#SVGID_253_);}
	.st261{fill:url(#SVGID_254_);}
	.st262{fill:url(#SVGID_255_);}
	.st263{fill:url(#SVGID_256_);}
	.st264{fill:url(#SVGID_257_);}
	.st265{fill:url(#SVGID_258_);}
	.st266{fill:url(#SVGID_259_);}
	.st267{fill:url(#SVGID_260_);}
	.st268{fill:url(#SVGID_261_);}
	.st269{fill:url(#SVGID_262_);}
	.st270{fill:url(#SVGID_263_);}
	.st271{fill:url(#SVGID_264_);}
	.st272{fill:url(#SVGID_265_);}
	.st273{fill:url(#SVGID_266_);}
	.st274{fill:url(#SVGID_267_);}
	.st275{fill:url(#SVGID_268_);}
	.st276{fill:url(#SVGID_269_);}
	.st277{fill:url(#SVGID_270_);}
	.st278{fill:url(#SVGID_271_);}
	.st279{fill:url(#SVGID_272_);}
	.st280{fill:url(#SVGID_273_);}
	.st281{fill:url(#SVGID_274_);}
	.st282{fill:url(#SVGID_275_);}
	.st283{clip-path:url(#SVGID_278_);fill:url(#SVGID_279_);}
	.st284{fill:url(#SVGID_280_);}
	.st285{fill:url(#SVGID_281_);}
	.st286{fill:url(#SVGID_282_);}
	.st287{fill:url(#SVGID_283_);}
	.st288{fill:url(#SVGID_284_);}
	.st289{fill:url(#SVGID_285_);}
	.st290{fill:url(#SVGID_286_);}
	.st291{fill:url(#SVGID_287_);}
	.st292{fill:url(#SVGID_288_);}
	.st293{clip-path:url(#SVGID_290_);}
	.st294{clip-path:url(#SVGID_293_);fill:url(#SVGID_294_);}
	.st295{clip-path:url(#SVGID_296_);}
	.st296{clip-path:url(#SVGID_298_);}
	.st297{fill:url(#SVGID_299_);}
	.st298{fill:url(#SVGID_300_);}
	.st299{fill:url(#SVGID_301_);}
	.st300{fill:url(#SVGID_302_);}
	.st301{fill:url(#SVGID_303_);}
	.st302{fill:url(#SVGID_304_);}
	.st303{fill:url(#SVGID_305_);}
	.st304{fill:url(#SVGID_306_);}
	.st305{fill:url(#SVGID_307_);}
	.st306{fill:url(#SVGID_308_);}
	.st307{fill:url(#SVGID_309_);}
	.st308{fill:url(#SVGID_310_);}
	.st309{fill:url(#SVGID_311_);}
	.st310{fill:url(#SVGID_312_);}
	.st311{fill:url(#SVGID_313_);}
	.st312{opacity:0.7;}
	.st313{fill:url(#SVGID_314_);}
	.st314{fill:url(#SVGID_315_);}
	.st315{fill:url(#SVGID_316_);}
	.st316{fill:url(#SVGID_317_);}
	.st317{fill:url(#SVGID_318_);}
	.st318{fill:url(#SVGID_319_);}
	.st319{fill:url(#SVGID_320_);}
	.st320{fill:url(#SVGID_321_);}
	.st321{fill:url(#SVGID_322_);}
	.st322{fill:url(#SVGID_323_);}
	.st323{fill:url(#SVGID_324_);}
	.st324{fill:url(#SVGID_325_);}
	.st325{opacity:0.6;}
	.st326{clip-path:url(#SVGID_327_);}
	.st327{clip-path:url(#SVGID_329_);}
	.st328{clip-path:url(#SVGID_331_);}
	.st329{fill:url(#SVGID_332_);}
	.st330{fill:url(#SVGID_333_);}
	.st331{fill:url(#SVGID_334_);}
	.st332{fill:url(#SVGID_335_);}
	.st333{fill:url(#SVGID_336_);}
	.st334{fill:url(#SVGID_337_);}
	.st335{fill:url(#SVGID_338_);}
	.st336{fill:url(#SVGID_339_);}
	.st337{fill:url(#SVGID_340_);}
	.st338{fill:url(#SVGID_341_);}
	.st339{fill:url(#SVGID_342_);}
	.st340{fill:url(#SVGID_343_);}
	.st341{fill:url(#SVGID_344_);}
	.st342{fill:url(#SVGID_345_);}
	.st343{fill:url(#SVGID_346_);}
	.st344{fill:url(#SVGID_347_);}
	.st345{fill:url(#SVGID_348_);}
	.st346{fill:url(#SVGID_349_);}
	.st347{fill:url(#SVGID_350_);}
	.st348{fill:url(#SVGID_351_);}
	.st349{fill:url(#SVGID_352_);}
	.st350{fill:url(#SVGID_353_);}
	.st351{fill:url(#SVGID_354_);}
	.st352{fill:url(#SVGID_355_);}
	.st353{fill:url(#SVGID_356_);}
	.st354{fill:url(#SVGID_357_);}
	.st355{fill:url(#SVGID_358_);}
	.st356{fill:url(#SVGID_359_);}
	.st357{fill:url(#SVGID_360_);}
	.st358{fill:url(#SVGID_361_);}
	.st359{fill:url(#SVGID_362_);}
	.st360{fill:url(#SVGID_363_);}
	.st361{fill:url(#SVGID_364_);}
	.st362{fill:url(#SVGID_365_);}
	.st363{fill:url(#SVGID_366_);}
	.st364{fill:url(#SVGID_367_);}
	.st365{fill:url(#SVGID_368_);}
	.st366{fill:url(#SVGID_369_);}
	.st367{fill:url(#SVGID_370_);}
	.st368{fill:url(#SVGID_371_);}
	.st369{clip-path:url(#SVGID_374_);fill:url(#SVGID_375_);}
	.st370{fill:url(#SVGID_376_);}
	.st371{fill:url(#SVGID_377_);}
	.st372{fill:url(#SVGID_378_);}
	.st373{fill:url(#SVGID_379_);}
	.st374{fill:url(#SVGID_380_);}
	.st375{fill:url(#SVGID_381_);}
	.st376{fill:url(#SVGID_382_);}
	.st377{fill:url(#SVGID_383_);}
	.st378{fill:url(#SVGID_384_);}
	.st379{clip-path:url(#SVGID_386_);}
	.st380{clip-path:url(#SVGID_389_);fill:url(#SVGID_390_);}
	.st381{fill:url(#SVGID_391_);}
	.st382{fill:url(#SVGID_392_);}
	.st383{fill:url(#SVGID_393_);}
	.st384{fill:url(#SVGID_394_);}
	.st385{fill:url(#SVGID_395_);}
	.st386{fill:url(#SVGID_396_);}
	.st387{fill:url(#SVGID_397_);}
	.st388{fill:url(#SVGID_398_);}
	.st389{fill:url(#SVGID_399_);}
	.st390{fill:url(#SVGID_400_);}
	.st391{fill:url(#SVGID_401_);}
	.st392{clip-path:url(#SVGID_403_);}
	.st393{clip-path:url(#SVGID_405_);}
	.st394{clip-path:url(#SVGID_407_);}
	.st395{fill:url(#SVGID_408_);}
	.st396{fill:url(#SVGID_409_);}
	.st397{fill:url(#SVGID_410_);}
	.st398{fill:url(#SVGID_411_);}
	.st399{fill:url(#SVGID_412_);}
	.st400{fill:url(#SVGID_413_);}
	.st401{fill:url(#SVGID_414_);}
	.st402{fill:url(#SVGID_415_);}
	.st403{fill:url(#SVGID_416_);}
	.st404{fill:url(#SVGID_417_);}
	.st405{fill:#DDDDDD;}
	.st406{clip-path:url(#SVGID_419_);fill:#DDDDDD;}
	.st407{clip-path:url(#SVGID_421_);fill:#DDDDDD;}
	.st408{clip-path:url(#SVGID_423_);fill:#DDDDDD;}
	.st409{clip-path:url(#SVGID_425_);fill:#DDDDDD;}
	.st410{clip-path:url(#SVGID_427_);fill:#DDDDDD;}
	.st411{clip-path:url(#SVGID_429_);fill:#DDDDDD;}
</style>
<g>
	<g class="st325">
		
			<image style="overflow:visible;" width="1085" height="701" xlink:href="9F3300A0.png"  transform="matrix(0.24 0 0 0.24 -36.6049 -151.9661)">
		</image>
	</g>
</g>
<g>
	<g class="st325">
		
			<image style="overflow:visible;" width="313" height="313" xlink:href="9F3300A1.png"  transform="matrix(0.24 0 0 0.24 52.3551 -20.9261)">
		</image>
	</g>
	<g>
		<path class="st121" d="M188.2,66.3l-6.2-9.1l-16-2.7l0.3-2.1l-0.2-0.2l2.7-21.8l-7.8-8.1l-0.2-0.5c0,0,1.1,0,1.2-0.2
			c0-0.2-0.5-0.3-0.5-0.3s0.4-0.3,0-0.7c-0.3-0.4-1.4-0.4-1.4-0.4c0.1-0.1-0.2-0.7-0.2-0.7s0.7,0.1,0.7,0c0.1-0.1-1.1-1.2-1.1-1.2
			l-0.3-0.8c0,0,1.3,0.6,1.4,0.4c0.1-0.2-0.9-0.8-0.9-0.8s0.4,0,0.5-0.1c0.1-0.1-0.9-0.7-0.9-0.7s-0.3-4.1-0.4-3.4
			c-0.2,0.7-0.2,2.9-0.2,2.9s-2,0.6-1.9,0.9c0.2,0.3,0.6,0.1,0.6,0.1s-0.3,0.6,0.2,0.9c0.5,0.3,0.7,0,0.7,0c0.1,0.4-0.3,1.6-0.3,1.6
			s-0.8-0.1-1.1,0.1c-0.3,0.2-0.7,1.1-0.7,1.1c0-0.1-0.8-0.6-0.8-0.6s0.5-0.2,0.5-0.4c0-0.2-1.4-0.7-1.7-1.2c-0.4-0.4-1.1-2-1.1-2
			c0.3,0.1,0.4-0.2,0.4-0.2s0.5,0.5,0.9,0.6c0.4,0.1,0-0.3,0-0.3c0.1,0,0.5-0.2,0.5-0.2c0.4,0.1,0.6-0.3,0.1-0.5
			c-0.5-0.2-1.7-0.6-1.9-0.9c-0.2-0.3-0.2-0.9-0.2-0.9s0.4,0.3,0.5,0.1c0.1-0.3-0.5-1-0.6-1.4c-0.1-0.4,0.7-0.6,0.7-0.6
			c1.8,1.1,1,0.1,1,0.1c0.6,0.1,0.8-0.3,0.8-0.3c0.5,0.1,1.1-0.3,0.4-0.5c-0.6-0.2-2.6-1.1-2.7-1.7c-0.2-1.3-0.3-5.7-0.4-7.5
			c0-0.9-0.6,3.6-0.6,3.6s-0.5,0.5-0.3,0.9c0.1,0.3,0.3,0.3,0.3,0.3c-0.7,1.3-0.2,1.4-0.2,1.4c-0.3,0.9-2.4,1.3-2.4,1.3
			s-1.3,0.3-1.1,0.5c0.1,0.2,0.4,0.3,0.4,0.3s-1.7,1-1.1,1.3c0.6,0.3,0.8-0.1,0.8-0.1c0.4,0.2,0.9,0.1,0.9,0.1s0.1,0.6,0.4,0.7
			c0.4,0.2,0.4-0.3,0.4-0.3c0.1,0.1,0.7,0.3,0.7,0.3s-0.4,0.6-0.3,0.7c0.1,0.1,0.6,0,0.6,0c-0.1,0.5-0.7,0.8-0.8,0.9
			c0,0.1-2.3,0.5-2.4,0.8s0.5,0.3,0.5,0.3s-1.5,0.8-1.4,0.9c0.1,0.1,0.5,0,0.5,0s-0.3,0.7-0.1,0.7c0.2,0,0.4-0.3,0.4-0.3
			c0.3,0.1,0.7,0.1,0.7,0.1s-0.1,0.4,0.2,0.6c0.3,0.2,0.6-0.2,0.6-0.2c0.3,0,0.7,0.4,0.7,0.4s-3.4,1.7-3.2,1.9
			c0.1,0.3,0.7-0.1,0.7-0.1c0.4,0.1,0.6,0,0.6,0c0.2,0.4,0.4,0.5,0.4,0.5s-1.1,0.8-0.8,0.9c0.4,0.1,0.6-0.1,0.6-0.1s-0.6,2-1.3,1.8
			c-0.7-0.1-2-1-2-1s0.6,0,0.8,0c0.2-0.1-0.3-0.4-0.6-0.7c0,0,0.6-0.1,0.4-0.4s-1.4-1.2-1.7-1.9c-0.3-0.7-0.3-1.4-0.3-1.4
			s0.6,0.5,1.1,0.5c0.4,0.1,0.2-0.3,0.2-0.3s0.6,0.5,1,0.5c0.5,0-0.2-0.5-0.2-0.5c0.6-0.1,0.3-0.3,0.3-0.3s-0.7-0.2-1.5-0.7
			c-0.8-0.5-1.2-1.4-1.2-1.4c0.5,0.1,0.6-0.2,0.6-0.2s0.4,0.5,0.7,0.4c0.3-0.1-0.3-0.5-0.3-0.5c0.4,0.2,0.6-0.2,0.4-0.2
			c-0.1,0-1.3-1.1-1.5-1.5c-0.2-0.4-0.4-2.1-0.4-2.1s-0.1,2.1-0.2,2.7s-1.9,1.1-1.9,1.3c0.1,0.2,0.4,0.1,0.4,0.1s-0.1,0.6,0.1,0.7
			c0.2,0.1,0.3-0.3,0.3-0.3c0.2,0.1,0.8,0,0.8,0c-0.1,0.4-0.8,0.8-0.8,0.8s-0.7,0.2-0.7,0.4c0,0.2,0.5,0.4,0.5,0.4s-0.9,0.1-1,0.3
			c-0.1,0.2,0.5,0.2,0.5,0.2s-0.7,0.3-1.2,0c-0.5-0.3-0.5-0.6-0.5-0.6c0.4,0.1,0.1-0.4,0.1-0.4c-0.6-0.4-1-1.3-1-1.3s0.8,0.5,1,0.2
			c0.1-0.3-0.5-0.6-0.5-0.6c0.1-0.3-0.9-0.9-0.9-0.9c-0.1-0.4,0.2-0.7,0.2-0.7s0.8,0.3,1,0.1c0.2-0.3-0.7-0.9-0.7-0.9
			c0.1-0.1-0.7-0.8-0.7-0.8s0.5,0.1,0.7,0c0.2-0.1-0.4-0.5-0.4-0.5c0.3-0.2-1.1-0.7-1.1-0.8c-0.1-0.1-0.4-1.8-0.3-2.2
			c0.1-0.3,0.1-1.1,0.1-1.1s-0.2,0.7-0.4,0.9c-0.2,0.2-0.1,3.3-0.1,3.3s-1,0.6-1,0.9c0,0.3,0.5,0.2,0.5,0.2
			c-0.5,0.5-2.3,1.4-2.1,1.6c0.1,0.2,0.6-0.2,0.6-0.2s0.3,0.5,0.6,0.5c0.3,0.1,0.3-0.3,0.3-0.3c0.4,0.3,1.2,0.2,1.2,0.2
			s-0.4,0.5-0.4,0.7c0.1,0.2,0.6,0,0.6,0c-0.2,0.5-1.9,1-1.9,1s-1.7,0.1-1.7,0.2c0,0.1,0.8,0.2,0.8,0.2s-0.9,0.3-0.7,0.4
			c0.3,0.1,0.9,0.1,0.9,0.1s-0.2,0.5,0,0.6c0.2,0.2,0.6-0.1,0.6-0.1c0.2,0.1,0.5,0.2,0.5,0.2s-0.9,0.5-1,0.8c0,0.2,0.4,0.3,0.4,0.3
			s-2.2,0.9-2.6,0.6c-0.4-0.3-0.4-0.7-0.4-0.7c0.4-0.1,0.2-0.5-0.2-0.6c-0.6-0.2-1.5-0.8-1.5-0.8c-0.3-0.3-0.5-1.2-0.5-1.2
			s0.4,0.2,0.8,0.1c0,0,0.3,0.5,0.8,0.5s-0.1-0.4-0.1-0.4s0.6-0.1,0.1-0.3c-0.7-0.3-1.1-1.4-1.1-1.4s1.8,0.8,1.9,0.6
			c0-0.3-0.6-0.4-0.6-0.4c0.1-0.1-0.3-0.3-0.3-0.3s0.5,0.1,0.7,0c0.3-0.1,0.1-0.3,0.1-0.3c-0.8-0.2-2.4-1.2-2.4-1.2
			c0.2,0,0.3-0.2,0.3-0.2s0.5,0.3,0.6,0.2c0.2-0.1,0-0.5,0-0.5c0.6,0.1,0.2-0.4,0.2-0.4s-1-0.7-1.3-1.2c-0.3-0.5-0.3-1.1-0.3-1.1
			s0.2,0.2,0.6,0.4c0.3,0.2,0.4,0,0.4,0s0.5,0.3,0.6,0.2s-0.2-0.5-0.2-0.5c-0.4-0.4-1.5-1.6-1.5-1.6s-0.2-3-0.3-3.3
			c-0.1-0.2-0.3,3.2-0.3,3.2s-1.8,1.1-1.8,1.4c0,0.2,0.4,0.1,0.4,0.1s-0.2,0.6,0,0.7c0.2,0.1,0.3-0.2,0.3-0.2c0.3,0.3,0.8,0,0.8,0
			c0.2,0.6-0.1,1.6-0.1,1.6c-0.6,0.2-2.9,1.1-2.7,1.2c0.3,0.1,0.4-0.1,0.4-0.1s-0.3,0.6-0.2,0.6c0.1,0,0.7-0.2,0.7-0.2
			s0.1,0.6,0.4,0.6c0.4,0,0.3-0.3,0.3-0.3c0.3,0.1,0.7,0.1,0.7,0.1c-0.1,0.6-1.1,0.9-1.1,0.9s-1,0.3-1,0.5c-0.1,0.2,0.6,0.4,0.6,0.4
			s-1.9,0.9-1.8,1c0.1,0.1,0.5,0,0.5,0c-0.1,0.2-1.1,0.7-1.1,0.7c0.2,0.2,0.9,0,0.9,0s0.2,0.3,0.6,0.4c0.4,0.1,0.6-0.2,0.6-0.2
			c0.4,0.1,0.7,0,0.7,0c-0.1,0.6-1.1,2.3-1.1,2.3c-0.8,0.3-1.9,0.4-1.9,0.4c0.1,0.1,0.2,0.1,0.3,0.1c0,0-0.1,0.2,0.1,0.3
			c0.2,0.1,0.7,0,0.7,0s-0.1,0.3,0.1,0.4c0.2,0.1,0.8,0.1,0.8,0.1c0,0.5-0.5,1.3-0.5,1.3c-1.2,0-3.4-0.9-3.4-0.9s0.7,0.2,0.9,0.2
			c0.2,0,0-0.3,0-0.3s0.3,0.1,0.3,0c0-0.1-0.9-0.7-1-0.9c-0.4-0.6-0.6-1.9-0.6-1.9c0.2,0.1,0.3-0.1,0.3-0.1s0.3,0.6,0.6,0.7
			c0.2,0.1,0.2-0.2,0.2-0.2s0.4,0.3,0.6,0.2c0.2,0-0.1-0.4-0.1-0.4c-0.9-0.9-1.2-1.5-1.2-1.5s-0.1-1.2-0.1-1.7
			c0-0.5-0.1-0.7-0.1-0.2c0,0.5,0,1.8-0.9,2c-0.9,0.1-1.3,0.9-1.1,1c0.2,0.1,0.4-0.1,0.4-0.1s0.1,0.4,0.2,0.4c0.2,0,0.1-0.2,0.1-0.2
			c0.3,0.1,0.6-0.1,0.6-0.1c0,0.5-0.1,1.9-0.1,1.9c-0.1,0-1.6,0.7-1.4,0.8c0.2,0.1,0.4,0,0.4,0s0,0.1,0.2,0.3c0.1,0.1,0.5,0,0.5,0
			c-0.1,0.3-0.6,0.7-0.6,0.7s-1.8-0.9-2.2-1.3c-0.4-0.4-0.7-1.8-0.7-1.8s0.6,0.4,0.8,0.5c0.2,0.1,0.3-0.2,0.3-0.2s0.5,0.5,0.7,0.5
			c0.2,0-0.1-0.4-0.1-0.4s0.4,0.1,0.3-0.2c-0.5-0.8-1.8-1.9-1.8-1.9l-0.2-0.7c0,0,0.2,0.2,0.5,0.3c0.3,0.1,0.3-0.2,0.3-0.2
			s0.3,0.3,0.4,0c0.1-0.2-0.7-0.7-0.7-0.7s0.2,0.1,0.4,0c0.3-0.1-0.5-0.8-0.5-0.8s-0.1-0.9-0.2-1.8c0-0.9-0.2-2.1-0.2-1.7
			c0,1-0.5,2.7-0.5,2.7s-1,0.1-1,0.3c0,0.1,0.5,0.1,0.5,0.1c-0.6,0-1.1,0.6-1,0.6c0.2,0.1,0.3,0,0.3,0s0,0.5,0.1,0.4
			c0.2,0,0.3-0.1,0.3-0.1s0.1,0.1,0.3,0.2c0.2,0,0.5-0.2,0.5-0.2c0,0.3-0.1,1.2-0.1,1.2c-0.7,0.2-1.9,0.8-1.8,1c0.1,0.1,0.4,0,0.5,0
			c0.1,0-0.1,0.4,0.1,0.5c0.2,0.1,0.3-0.1,0.3-0.1c0.2,0.2,0.9,0,0.9,0c0,0.5-0.1,1.6-0.1,1.6s-1.3,0.5-1.2,0.6
			c0.1,0.1,0.3,0.1,0.3,0.1s0,0.3,0.2,0.4c0.2,0.1,0.4-0.1,0.4-0.1c0,0.5-0.5,1.4-0.5,1.4c-0.6,0.2-1.8-0.2-1.8-0.2s0.4-0.1,0.4-0.2
			c0-0.1-0.5-0.4-0.5-0.4c-0.8-0.7-0.8-1.4-0.8-1.4s0.3,0.3,0.7,0.3c0.4,0,0.1-0.3,0.1-0.3s0.7,0.3,0.8,0.2c0-0.1-0.6-0.5-0.6-0.5
			s0.5-0.1,0.3-0.2c-0.2-0.2-0.8-0.7-0.9-1c-0.1-0.2-0.2-2.6-0.2-2.6s0-0.6,0,0.1c-0.1,0.7-0.5,2.5-0.5,2.5c-0.1,0-1.8,1.1-1.7,1.2
			c0.1,0.1,0.3-0.1,0.3-0.1s0,0.4,0.2,0.4c0.2,0.1,0.4,0,0.4,0c0.2,0.1,0.5,0,0.5,0c-0.3,1.4-2,1.9-2,1.9c-0.2-0.1-0.4-0.5-0.4-0.5
			s0.5,0,0.5-0.1c0-0.1-0.4-0.6-0.5-0.8c-0.3-0.5-0.5-2.6-0.5-2.6s-0.1,2-0.9,2.4c-0.8,0.4-1.2,0.4-1.2,0.4c0.3,0.3,0.7,0.2,0.7,0.2
			s-0.3,0.2-0.1,0.4c0.2,0.2,0.5,0,0.5,0c-0.1,0.3-0.6,0.8-0.6,0.8c-0.1-0.3-1-0.7-1.4-1.3c-0.4-0.6-0.3-1.3-0.3-1.3
			s0.3,0.1,0.5,0.1c0.2,0,0.2-0.2,0.2-0.2s0.4,0.2,0.6,0.1c0.2-0.1-0.1-0.3-0.1-0.3c0.2-0.3-0.4-0.5-0.7-0.7c-0.3-0.2-0.8-1-0.9-1.7
			c0-0.7,0-1.1,0-1.1c0.4,0.1,0.4-0.3,0.4-0.3s0.8,0.1,0.8,0c-0.1-0.1-1.1-1-1.2-1.3c-0.1-0.2-0.1-1.1-0.1-1.5
			c0,0.5-0.1,1.2-0.2,1.3c-0.1,0.2-1.6,0.5-1.5,0.7c0,0.2,0.7,0.1,0.7,0.1s-0.2,0.2,0.1,0.2c0.3,0,0.5-0.2,0.5-0.2
			c0,0.7-0.8,2.1-0.8,2.1s-0.6,0.3-0.6,0.5c0,0.1,0.3,0.3,0.3,0.3s-0.1,0.1-0.5,0.2c-0.4,0.1-0.2,0.4-0.2,0.4s-0.3,0.1-0.2,0.2
			c0.1,0.1,0.6,0.2,0.6,0.2s-0.1,0.2,0.2,0.3c0.5,0.1,0.8-0.1,0.8-0.1c0.1,0.5-0.1,1.1-0.1,1.1s-1,0.4-0.8,0.5
			c0.2,0.1,0.4,0.1,0.4,0.1s-0.7,0.4-0.7,0.5c0,0.1,0.5,0.2,0.5,0.2c-0.3,0.3-1.9,0.6-1.9,0.6c-0.2-0.4-0.6-1.3-0.6-1.3
			s0.8,0.7,1,0.6c0.2,0,0-0.2,0-0.2s0.5,0,0.4-0.2c-0.1-0.2-0.4-0.3-0.9-0.9c-0.5-0.6-0.6-1.3-0.6-1.3s0.4,0,0.5-0.1
			c0.1-0.1,0.1-0.2,0.1-0.2s0.3,0.2,0.3,0c0-0.2-0.8-1-0.8-1c-0.1-0.3-0.2-1.7-0.2-1.7s0,1.3-0.1,1.4c-0.1,0.1-0.8,0.4-0.7,0.5
			c0.1,0.1,0.4,0.2,0.4,0.2s-0.6,0.3-0.5,0.4c0.1,0.1,0.6,0,0.6,0c0.1,0.3-0.1,1-0.1,1c-0.5,0.2-1.1,0.4-1,0.6
			c0.1,0.1,0.4,0.1,0.4,0.1c0,0.3,0.6,0.5,0.6,0.5c-0.3,0.3-1.6,0.3-1.6,0.3c0-0.3-0.4-0.4-0.4-0.4s0.4-0.1,0.4-0.3
			c0-0.2-1-0.7-1.2-1c-0.4-0.4-0.4-1.7-0.4-1.7s0.8,0.3,1,0.2c0.2,0-0.4-0.6-0.4-0.6s0.4-0.1,0.4-0.3c0-0.2-0.8-0.9-0.9-1.1
			s-0.3-1.8-0.3-1.8s0,2.1-0.2,2.5c-0.2,0.4-1.3,0.5-1.2,0.8c0.2,0.3,0.5,0.2,0.5,0.2s-0.9,0.7-0.7,0.8c0.2,0.1,0.5-0.1,0.5-0.1
			c0.1,0.1-0.3,0.8-0.3,0.8l-1.6,0.1c0.2-0.1-0.3-0.6-0.3-0.6s0.5,0.1,0.6-0.2c0.1-0.3-1.2-1.4-1.2-1.4s0.7,0.2,0.7,0
			c0.1-0.2-1-2-1-2c0.4,0,0.2-0.6,0.2-0.6s0.2,0.1,0.5-0.1c0.2-0.2-0.7-1.7-0.8-1.9c0.1,0.1,0.7,0.2,0.6-0.1
			C92.7,10.4,92,9.7,92,9.7l-0.1-2l-0.3,1.3c0,0-0.5,0.7-0.5,0.9c0,0.2,0.4,0.2,0.4,0.2l-0.2,0.5c0,0-2.1,0.9-1.9,1.1
			c0.2,0.2,0.5,0.1,0.5,0.1s0.3,0.6,0.5,0.6c0.2,0,1-0.1,1-0.1c0.1,0.3-0.4,2-0.4,2c-0.3,0.4-1.1,0.6-1.5,0.7c-0.5-0.6-0.8-1-0.8-1
			s-0.1-1.3-0.1-1.9c0-0.5-0.1-0.8-0.1-0.2c0,0.5,0,2-1,2.1c-1,0.1-1.4,1-1.2,1.1c0.2,0.1,0.4-0.1,0.4-0.1s0.1,0.4,0.3,0.5
			c0.2,0,0.2-0.2,0.2-0.2c0.3,0.1,0.6-0.1,0.6-0.1c0,0.5-0.1,2.1-0.1,2.1c-0.1,0-1.8,0.8-1.6,0.9c0.2,0.1,0.4-0.1,0.4-0.1
			s0,0.2,0.2,0.3c0.2,0.1,0.6,0.1,0.6,0.1c-0.2,0.4-0.6,0.8-0.6,0.8s-2-0.9-2.4-1.4c-0.4-0.5-0.8-1.9-0.8-1.9s0.7,0.5,0.9,0.5
			c0.3,0.1,0.3-0.2,0.3-0.2s0.6,0.5,0.7,0.5c0.2,0-0.1-0.4-0.1-0.4s0.5,0.1,0.3-0.2c-0.5-0.8-2-2.1-2-2.1l-0.2-0.8
			c0,0,0.2,0.2,0.5,0.3c0.3,0.1,0.3-0.2,0.3-0.2s0.3,0.3,0.4,0c0.1-0.3-0.7-0.7-0.7-0.7s0.2,0.1,0.4,0c0.2-0.1-0.1-0.5-0.4-0.7
			l1-1.3L72.5,4.4L44.6,2l-3.4,5l-6.5-3.4L6.7,2l-6.9,85.4L10.5,93l25.4-1l0.6-6.6l0.7,1.1l9.4,4.9l26.9-4.9l3.2,3.3l0.7,0.3
			c0.6,0.3,1.3,0.6,2.1,0.9c0.8,0.3,1.6,0.6,2.4,0.9c0.8,0.3,1.7,0.5,2.7,0.8c1,0.2,2.1,0.4,3,0.4c2,0,4-0.3,5.8-0.8
			c0.5-0.2,1.1-0.4,1.6-0.6c0.1-0.1,0.3-0.1,0.5-0.2c0.4-0.2,0.7-0.3,1.1-0.5c0.1-0.1,0.2-0.1,0.4-0.2c0.1-0.1,0.2-0.1,0.3-0.2
			c0.5-0.3,0.9-0.6,1.4-0.9l0.1-0.1c0.1-0.1,0.3-0.2,0.4-0.4c0,0,0.2-0.1,0.2-0.2l3.4,3.5l13.7-0.7l0.2-1l2.1,2.2l18.3-0.4l0.1,0.1
			h13.5l0.5,0.5l3.9-0.8l2.4,2.5l0.4,0.5l2.8,0.4l19.8,2.6l3.5-13.6l-2.6-3.8l4.9-4.3L188.2,66.3z M88.8,15.3c0,0,0.4,0.7,0.6,0.8
			c0.2,0.1,0.2-0.2,0.2-0.2s0.1,0.1,0.3,0.2c0,0,0,0.1,0,0.1c0.2,0.5,1.5,0.1,1.5,0.1c0,0.5-1.1,1.7-1.1,1.7s-0.2,0.1-0.4,0.2
			c-0.3-0.2-0.6-0.5-0.7-0.6c-0.4-0.7-0.7-2-0.7-2C88.7,15.5,88.8,15.3,88.8,15.3z"/>
		<path class="st121" d="M173.1,12.5c-0.8-0.9-1.4-2.1-1.5-3.7c0,0-0.3,2.6-3.8,4.5c0,0,3.7,0.5,2.3,2.1c3.2,0.6,1.1,2.8,1,2.9
			c0,0,3,0.9,0.4,2.9c0,0,2.9,0.9-0.5,5.5l0,0l0,0l0,0l0,0c5.4-1.8,5.4,1.2,5.4,1.2c2.7-1.8,2.6,1.3,2.6,1.3
			c0.1-0.1,2.8-1.4,2.4,1.9c2-0.9,1.2,2.8,1.2,2.8c2.9-2.7,5.5-2.2,5.5-2.2c-4.3-1.8-4.1-6.6-4.1-6.6c-2.3,0.9-5.2,0-6.8-0.7
			c0.3-0.2,0.6-0.5,0.8-0.8c0.2,0,1.2-0.3,2.1-1.7c0,0-0.5-0.4-1.5,0.2c0-0.3-0.1-0.5-0.2-0.7c-0.2-0.2-0.4-0.4-0.6-0.5
			c1-0.9,0.7-1.4,0.7-1.4c-1.6,0.4-2.2,1.3-2.2,1.4c-0.4,0.1-0.7,0.3-1.1,0.5c-0.3-1.7-0.1-4.9,1.4-6.8
			C176.6,14.7,174.6,14.2,173.1,12.5 M178,23c0,0-0.3,0.4-0.4,0.3c-0.1-0.1-0.1-0.1-0.4-0.4C176.7,22.5,177.7,22.8,178,23z
			 M176.8,21.3c0.1,0.3,0,1.3-0.1,0.9c-0.2-0.4-0.3-0.4-0.3-0.5C176.3,21.4,176.8,21.3,176.8,21.3z"/>
		<polygon class="st405" points="143.4,26.4 148.3,31.6 153.9,45.1 148.9,39.9 		"/>
		<polygon class="st405" points="159,26.9 164,32 160.9,57.5 155.9,52.3 		"/>
		<path class="st405" d="M162.4,68.9c0-0.1,0-0.2,0-0.3c0-0.2,0-0.5-0.1-0.7c0-0.1-0.1-0.3-0.1-0.4c0-0.2-0.1-0.4-0.1-0.6
			c0-0.1-0.1-0.3-0.1-0.4c0-0.1-0.1-0.3-0.1-0.4c0-0.1-0.1-0.2-0.1-0.3c-0.2-0.4-0.4-0.8-0.6-1.1c0,0,0,0,0-0.1
			c-0.1-0.1-0.1-0.2-0.2-0.2c-0.1-0.2-0.3-0.4-0.5-0.6c-0.1-0.1-0.2-0.2-0.3-0.3l-5-5.2c0.3,0.3,0.5,0.6,0.7,0.9
			c0.1,0.1,0.1,0.1,0.2,0.2c0.2,0.4,0.5,0.8,0.7,1.2c0.1,0.2,0.2,0.4,0.2,0.6c0,0.1,0.1,0.3,0.1,0.4c0.1,0.2,0.1,0.4,0.1,0.6
			c0,0.1,0.1,0.3,0.1,0.4c0,0.2,0,0.5,0.1,0.7c0,0.1,0,0.2,0,0.3c0,0.4,0,0.7,0,1.1c0,0.4-0.1,0.9-0.1,1.3c0,0,0,0.1,0,0.1
			c-0.1,0.4-0.2,0.9-0.3,1.3c-0.1,0.4-0.2,0.7-0.4,1c0,0.1-0.1,0.2-0.1,0.3c-0.1,0.3-0.3,0.6-0.5,0.9c-0.2,0.3-0.4,0.6-0.7,0.9
			c0,0-0.1,0.1-0.1,0.1c-0.2,0.3-0.5,0.5-0.7,0.8c-0.3,0.2-0.5,0.5-0.8,0.7c-0.4,0.3-0.9,0.6-1.4,0.9l5,5.2c0.5-0.3,0.9-0.6,1.4-0.9
			c0,0,0.1-0.1,0.1-0.1c0.2-0.2,0.5-0.4,0.7-0.6c0.1-0.1,0.2-0.2,0.3-0.3c0.2-0.2,0.3-0.3,0.5-0.5c0,0,0.1-0.1,0.1-0.1c0,0,0,0,0,0
			c0.2-0.2,0.3-0.4,0.5-0.6c0.1-0.1,0.1-0.2,0.2-0.3c0.1-0.2,0.2-0.3,0.3-0.5c0.1-0.1,0.1-0.3,0.2-0.4c0-0.1,0.1-0.2,0.1-0.3
			c0,0,0-0.1,0.1-0.1c0.1-0.3,0.2-0.6,0.3-0.9c0,0,0-0.1,0-0.1c0.1-0.4,0.2-0.7,0.2-1.1c0,0,0-0.1,0-0.1c0.1-0.3,0.1-0.7,0.1-1.1
			c0-0.1,0-0.1,0-0.2C162.5,69.6,162.5,69.3,162.4,68.9z"/>
		<polygon class="st405" points="152.3,73.1 157.3,78.3 161.2,86.3 156.2,81.1 		"/>
		<polygon class="st405" points="88.7,27.2 93.7,32.3 96.6,44.8 91.7,39.6 		"/>
		<polygon class="st405" points="86.4,41.1 91.4,46.2 90.5,58.4 85.5,53.2 		"/>
		<polygon class="st405" points="85.5,53.2 90.5,58.4 81.8,58.7 76.8,53.5 		"/>
		<polygon class="st405" points="92,51.6 96.9,56.7 93.6,56.7 88.7,51.6 		"/>
		<polygon class="st405" points="96.6,39.8 101.6,45 96.9,56.7 92,51.6 		"/>
		<polygon class="st405" points="104.2,54 109.1,59.2 100.5,59.5 95.6,54.4 		"/>
		<polygon class="st405" points="107.8,26.4 112.8,31.6 109.1,59.2 104.2,54 		"/>
		<path class="st405" d="M126.7,42.9l-5-5.2c-0.2-0.2-0.4-0.4-0.7-0.6c-0.4-0.2-0.9-0.4-1.5-0.4c-0.6,0-1.1,0.1-1.6,0.3
			c-0.1,0.1-0.3,0.1-0.4,0.2c-0.1,0-0.1,0.1-0.2,0.1c-0.1,0-0.1,0.1-0.2,0.1c0,0-0.1,0.1-0.1,0.1c-0.1,0.1-0.3,0.2-0.4,0.3
			c0,0,0,0,0,0c-0.1,0.1-0.1,0.1-0.2,0.2c-0.1,0.1-0.2,0.2-0.3,0.4c0,0,0,0,0,0c0,0,0,0,0,0.1c-0.1,0.1-0.1,0.2-0.2,0.3
			c-0.1,0.1-0.1,0.2-0.2,0.3c0,0,0,0,0,0.1c-0.1,0.2-0.1,0.4-0.2,0.6c0,0,0,0,0,0.1c0,0.2-0.1,0.4-0.1,0.6c0,0.1,0,0.1,0,0.2
			c0,0,0,0,0,0.1c0,0.5,0,1.1,0.1,1.6c0.1,0.3,0.1,0.5,0.2,0.8c0,0,0,0,0,0c0.1,0.2,0.2,0.5,0.3,0.7c0,0,0,0,0,0
			c0.1,0.1,0.2,0.3,0.3,0.4c0,0,0.1,0.1,0.1,0.1l5,5.2c-0.2-0.2-0.3-0.3-0.4-0.5c-0.1-0.2-0.3-0.4-0.3-0.7c-0.1-0.2-0.2-0.5-0.2-0.8
			c-0.1-0.5-0.1-1.1-0.1-1.6c0-0.1,0-0.2,0-0.3c0-0.2,0.1-0.4,0.1-0.6c0.1-0.2,0.1-0.5,0.2-0.7c0.1-0.2,0.2-0.4,0.4-0.7
			c0,0,0,0,0-0.1c0.1-0.2,0.3-0.4,0.5-0.6c0.2-0.2,0.3-0.3,0.5-0.4c0.1,0,0.1-0.1,0.2-0.1c0.2-0.1,0.4-0.2,0.6-0.3
			c0.5-0.2,1-0.3,1.6-0.3c0.6,0,1.1,0.1,1.5,0.4C126.3,42.5,126.5,42.6,126.7,42.9L126.7,42.9C126.7,42.9,126.7,42.9,126.7,42.9z"/>
		<path class="st405" d="M135.6,40.7c-0.1-0.3-0.2-0.5-0.3-0.8c0,0,0-0.1,0-0.1c-0.2-0.5-0.5-1-0.8-1.5c0,0,0-0.1-0.1-0.1
			c0-0.1-0.1-0.1-0.1-0.2c-0.2-0.2-0.3-0.4-0.5-0.6c-0.1-0.1-0.1-0.2-0.2-0.2c-0.1-0.1-0.1-0.2-0.2-0.3c0,0-0.1-0.1-0.1-0.1l-5-5.2
			c0,0,0.1,0.1,0.1,0.1c0.1,0.2,0.3,0.3,0.4,0.5c0.2,0.2,0.3,0.4,0.5,0.6c0.1,0.1,0.1,0.2,0.2,0.3c0.3,0.5,0.6,1,0.8,1.5
			c0.1,0.3,0.2,0.6,0.3,0.9c0.5,1.5,0.6,3.1,0.5,5c0,0.5-0.1,1-0.2,1.6c0,0.1-0.1,0.2-0.1,0.4c-0.1,0.5-0.2,0.9-0.3,1.4
			c-0.1,0.4-0.3,0.9-0.5,1.3c-0.1,0.2-0.2,0.4-0.3,0.6c-0.2,0.4-0.4,0.7-0.6,1.1c-0.2,0.4-0.5,0.7-0.7,1.1c-0.1,0.1-0.2,0.3-0.3,0.4
			c-0.3,0.4-0.6,0.8-1,1.1c-0.4,0.4-0.8,0.7-1.2,1.1c-0.4,0.3-0.9,0.6-1.3,0.9c-0.3,0.2-0.6,0.3-1,0.5c-0.2,0.1-0.3,0.2-0.5,0.2
			c-0.5,0.2-1,0.4-1.5,0.5c-1.1,0.3-2.2,0.5-3.3,0.5c-1.1,0-2.2-0.2-3.2-0.4c-1-0.3-1.9-0.7-2.8-1.2c-0.8-0.5-1.5-1-2.1-1.7l5,5.2
			c0.6,0.6,1.3,1.2,2.1,1.7c0.9,0.5,1.8,0.9,2.8,1.2c1,0.3,2.1,0.4,3.2,0.4c1.2,0,2.3-0.1,3.3-0.5c0.5-0.2,1-0.3,1.5-0.5
			c0.2-0.1,0.3-0.2,0.5-0.2c0.3-0.1,0.6-0.3,0.9-0.5c0,0,0,0,0.1,0c0.5-0.3,0.9-0.6,1.3-0.9c0,0,0,0,0,0c0.4-0.3,0.7-0.6,1.1-0.9
			c0,0,0.1-0.1,0.1-0.1c0.3-0.3,0.6-0.6,0.9-0.9c0-0.1,0.1-0.1,0.1-0.2c0.1-0.1,0.2-0.3,0.3-0.4c0.1-0.2,0.3-0.3,0.4-0.5
			c0.1-0.2,0.2-0.4,0.4-0.6c0.1-0.2,0.2-0.4,0.4-0.6c0.1-0.2,0.1-0.3,0.2-0.5c0.1-0.2,0.2-0.4,0.3-0.6c0-0.1,0.1-0.2,0.1-0.3
			c0.1-0.3,0.3-0.7,0.4-1c0.1-0.2,0.1-0.5,0.2-0.7c0.1-0.2,0.1-0.5,0.1-0.7c0-0.1,0.1-0.2,0.1-0.4c0.1-0.5,0.1-0.9,0.2-1.4
			c0-0.1,0-0.1,0-0.2C136.3,43.9,136.1,42.2,135.6,40.7z"/>
		<polygon class="st405" points="141.7,39.6 146.6,44.8 144.8,58.7 139.9,53.5 		"/>
		<polygon class="st405" points="139.9,53.5 144.8,58.7 136.4,58.7 131.4,53.5 		"/>
		<polygon class="st405" points="155.9,52.3 160.9,57.5 151,58.4 146,53.2 		"/>
		<polygon class="st405" points="94.4,56.5 99.4,61.7 98.1,69.3 93.2,64.1 		"/>
		<path class="st405" d="M98.1,69.3l-5-5.2c-0.8-0.3-1.7-0.5-2.6-0.7c-0.9-0.2-1.8-0.3-2.7-0.3c-0.2,0-0.4,0-0.6,0
			c-0.3,0-0.5,0-0.8,0.1c-0.3,0-0.6,0.1-0.9,0.1c-0.3,0.1-0.6,0.2-0.8,0.3c-0.1,0-0.1,0.1-0.2,0.1c-0.1,0-0.1,0.1-0.2,0.1
			c0,0-0.1,0.1-0.1,0.1c0,0-0.1,0.1-0.1,0.1c0,0,0,0.1-0.1,0.1c0,0,0,0.1-0.1,0.1c0,0,0,0.1,0,0.1c0,0,0,0,0,0c0,0,0,0,0,0
			c0,0,0,0,0,0.1c0,0.1,0,0.1,0,0.2c0,0,0,0,0,0.1c0,0.1,0,0.3,0.1,0.4c0,0,0,0,0,0c0,0,0,0.1,0.1,0.1c0,0,0,0.1,0.1,0.1
			c0,0,0,0,0,0v0l5,5.2c-0.1-0.1-0.1-0.2-0.2-0.3c0-0.1-0.1-0.2-0.1-0.4c0-0.1,0-0.2,0.1-0.3c0,0,0,0,0,0c0-0.1,0.1-0.2,0.2-0.3
			c0.2-0.2,0.3-0.3,0.6-0.4c0.2-0.1,0.5-0.2,0.8-0.3c0.3-0.1,0.6-0.1,0.9-0.1c0.3,0,0.6-0.1,0.8-0.1c0.3,0,0.5,0,0.6,0
			c0.9,0,1.8,0.1,2.7,0.3C96.4,68.8,97.3,69,98.1,69.3L98.1,69.3L98.1,69.3z"/>
		<path class="st405" d="M85.9,72.9c-0.1-0.1-0.3-0.2-0.5-0.3c-0.2-0.1-0.5-0.2-0.8-0.2c-0.3-0.1-0.6-0.1-0.9-0.1
			c-0.3,0-0.6,0-0.8,0c-0.3,0-0.5,0-0.6,0c-1.1,0-2.1-0.2-2.9-0.6c-0.8-0.3-1.4-0.8-2-1.3l5,5.2c0.6,0.6,1.2,1,2,1.3
			c0.9,0.4,1.8,0.6,2.9,0.6c0.2,0,0.3,0,0.6,0c0.2,0,0.5,0,0.8,0c0.3,0,0.6,0.1,0.9,0.1c0.3,0.1,0.6,0.1,0.8,0.2
			c0.2,0.1,0.4,0.2,0.5,0.3L85.9,72.9z"/>
		<polygon class="st405" points="100.8,64.7 105.8,69.9 100.2,70.2 95.2,65 		"/>
		<path class="st405" d="M99.7,78.3c0-0.1,0-0.1,0-0.2c0.1-1,0-1.9-0.2-2.8c-0.1-0.2-0.1-0.5-0.2-0.7c0-0.1-0.1-0.2-0.1-0.3
			c-0.1-0.1-0.1-0.3-0.2-0.4c0-0.1-0.1-0.2-0.1-0.3c-0.1-0.2-0.3-0.4-0.4-0.6c0,0,0,0,0,0c-0.1-0.1-0.1-0.2-0.2-0.2l-5-5.2
			c0.1,0.1,0.1,0.2,0.2,0.2c0.2,0.2,0.4,0.5,0.6,0.8c0.1,0.1,0.1,0.2,0.2,0.4c0.1,0.3,0.3,0.6,0.4,1c0.2,0.8,0.3,1.8,0.2,2.8
			c0,0.3-0.1,0.6-0.1,1c0,0.1,0,0.2,0,0.3c-0.1,0.4-0.1,0.8-0.2,1.1c-0.1,0.4-0.2,0.8-0.4,1.2c-0.1,0.3-0.3,0.7-0.4,1
			c-0.2,0.3-0.4,0.6-0.6,0.9c0,0-0.1,0.1-0.1,0.1c-0.2,0.2-0.3,0.5-0.5,0.7c-0.1,0.1-0.2,0.2-0.2,0.3c-0.1,0.2-0.3,0.3-0.4,0.5
			c-0.2,0.2-0.3,0.3-0.5,0.4c-0.1,0.1-0.2,0.2-0.3,0.3c-0.3,0.3-0.7,0.5-1.1,0.7c-0.1,0.1-0.2,0.1-0.3,0.2c-0.3,0.1-0.5,0.3-0.8,0.4
			c-0.1,0.1-0.2,0.1-0.3,0.2c-0.4,0.2-0.8,0.3-1.2,0.4c-1.4,0.4-2.9,0.6-4.5,0.6c-0.6,0-1.3-0.1-2-0.2c-0.7-0.2-1.5-0.4-2.2-0.6
			c-0.7-0.2-1.4-0.5-2.1-0.8c-0.7-0.3-1.3-0.5-1.8-0.8l5,5.2c0.5,0.3,1.1,0.5,1.8,0.8c0.7,0.3,1.4,0.5,2.1,0.8
			c0.7,0.3,1.5,0.5,2.2,0.6c0.7,0.2,1.4,0.2,2,0.2c1.6,0,3.1-0.2,4.5-0.6c0.4-0.1,0.8-0.3,1.2-0.4c0.1,0,0.2-0.1,0.3-0.2
			c0.3-0.1,0.6-0.3,0.8-0.4c0.1,0,0.1-0.1,0.2-0.1c0,0,0.1-0.1,0.1-0.1c0.4-0.2,0.7-0.5,1.1-0.7c0,0,0,0,0,0
			c0.1-0.1,0.2-0.2,0.3-0.2c0.2-0.1,0.3-0.3,0.5-0.4c0,0,0,0,0,0c0.1-0.1,0.3-0.3,0.4-0.4c0.1-0.1,0.2-0.2,0.2-0.3c0,0,0,0,0,0
			c0.2-0.2,0.3-0.4,0.5-0.7c0,0,0.1-0.1,0.1-0.1c0,0,0,0,0,0c0.2-0.3,0.4-0.6,0.5-0.9c0,0,0,0,0,0c0.2-0.3,0.3-0.6,0.4-0.9
			c0,0,0,0,0,0c0.1-0.4,0.3-0.8,0.4-1.2c0,0,0,0,0,0c0.1-0.4,0.2-0.7,0.2-1.1c0-0.1,0-0.2,0-0.3C99.7,78.8,99.7,78.6,99.7,78.3z"/>
		<polygon class="st405" points="115.8,64 120.8,69.2 115.2,69.4 110.2,64.3 		"/>
		<polygon class="st405" points="116.6,56.1 121.5,61.2 120.8,69.2 115.8,64 		"/>
		<polygon class="st405" points="107.5,82.1 112.5,87.3 104.5,87.7 99.6,82.5 		"/>
		<polygon class="st405" points="110.2,64.3 115.2,69.4 112.5,87.3 107.5,82.1 		"/>
		<polygon class="st405" points="126.5,63.3 131.4,68.4 131.1,70.8 126.1,65.6 		"/>
		<polygon class="st405" points="134.5,62.8 139.4,68 131.4,68.4 126.5,63.3 		"/>
		<polygon class="st405" points="125.2,71.6 130.2,76.8 129.8,79.6 124.9,74.4 		"/>
		<polygon class="st405" points="130.9,71.5 135.9,76.6 130.2,76.8 125.2,71.6 		"/>
		<polygon class="st405" points="131.7,65.6 136.7,70.8 135.9,76.6 130.9,71.5 		"/>
		<g>
			<defs>
				<path id="SVGID_418_" d="M132.8,74.4l5,5.2c-0.2,1.4-0.3,2.7-0.5,4.1c-0.2,1.4-0.4,2.7-0.5,4.1l-5-5.2c0.2-1.4,0.3-2.7,0.5-4.1
					S132.7,75.8,132.8,74.4z"/>
			</defs>
			<use xlink:href="#SVGID_418_"  style="overflow:visible;fill:#DDDDDD;"/>
			<clipPath id="SVGID_1_">
				<use xlink:href="#SVGID_418_"  style="overflow:visible;"/>
			</clipPath>
			<path style="clip-path:url(#SVGID_1_);fill:#DDDDDD;" d="M152,70.8l6.3,6.5c-0.2,1.7-0.4,3.4-0.6,5.2c-0.2,1.7-0.4,3.4-0.6,5.1
				l-6.3-6.5c0.2-1.7,0.4-3.4,0.6-5.1C151.5,74.2,151.8,72.5,152,70.8"/>
		</g>
		<polygon class="st405" points="131.8,82.6 136.8,87.7 120.6,88.1 115.6,83 		"/>
		<path class="st405" d="M148.1,62.7c-0.2-0.2-0.5-0.4-0.8-0.6c-0.4-0.2-0.9-0.3-1.5-0.3c-0.2,0-0.5,0-0.7,0c-0.2,0-0.5,0.1-0.7,0.1
			v0l0,0l5,5.2c0.2-0.1,0.5-0.1,0.7-0.1c0.2,0,0.5,0,0.7,0c0.6,0,1.1,0.1,1.5,0.3c0.3,0.1,0.6,0.3,0.8,0.6L148.1,62.7z"/>
		<polygon class="st405" points="144.4,62 149.4,67.2 148.6,74.2 143.6,69 		"/>
		<polygon class="st405" points="145.3,74.8 150.3,79.9 148,80 143,74.8 		"/>
		<polygon class="st405" points="142.1,82.7 147.1,87.8 139,87.8 134,82.7 		"/>
		<polygon class="st405" points="143,74.8 148,80 147.1,87.8 142.1,82.7 		"/>
		<polygon class="st405" points="156.2,81.1 161.2,86.3 152.7,87.9 147.7,82.8 		"/>
		<polygon class="st405" points="69.5,41.7 74.5,46.9 74.1,53.3 69.2,48.1 		"/>
		<polygon class="st405" points="69.2,48.1 74.1,53.3 62,53.1 57,47.9 		"/>
		<g>
			<defs>
				<path id="SVGID_420_" d="M135.4,55.9l5,5.2c-0.2,1.2-0.3,2.3-0.4,3.5c-0.1,1.2-0.3,2.3-0.5,3.5l-5-5.2c0.2-1.2,0.3-2.3,0.5-3.5
					C135.1,58.2,135.2,57,135.4,55.9z"/>
			</defs>
			<use xlink:href="#SVGID_420_"  style="overflow:visible;fill:#DDDDDD;"/>
			<clipPath id="SVGID_2_">
				<use xlink:href="#SVGID_420_"  style="overflow:visible;"/>
			</clipPath>
			<path style="clip-path:url(#SVGID_2_);fill:#DDDDDD;" d="M155.2,47.5l6.3,6.5c-0.2,1.5-0.4,2.9-0.6,4.4c-0.2,1.5-0.4,2.9-0.6,4.4
				l-6.3-6.5c0.2-1.5,0.4-2.9,0.6-4.4C154.8,50.5,155,49,155.2,47.5"/>
		</g>
		<g>
			<defs>
				<path id="SVGID_422_" d="M135.4,55.9l5,5.2c-0.2,1.2-0.3,2.3-0.4,3.5c-0.1,1.2-0.3,2.3-0.5,3.5l-5-5.2c0.2-1.2,0.3-2.3,0.5-3.5
					C135.1,58.2,135.2,57,135.4,55.9z"/>
			</defs>
			<use xlink:href="#SVGID_422_"  style="overflow:visible;fill:#DDDDDD;"/>
			<clipPath id="SVGID_3_">
				<use xlink:href="#SVGID_422_"  style="overflow:visible;"/>
			</clipPath>
			<path style="clip-path:url(#SVGID_3_);fill:#DDDDDD;" d="M155.2,47.5l6.3,6.5c-0.2,1.5-0.4,2.9-0.6,4.4c-0.2,1.5-0.4,2.9-0.6,4.4
				l-6.3-6.5c0.2-1.5,0.4-2.9,0.6-4.4C154.8,50.5,155,49,155.2,47.5"/>
		</g>
		<polygon class="st405" points="179.3,61.4 183.3,67.3 182.1,74 178,68 		"/>
		<polygon class="st405" points="178,68 182.1,74 170.8,83.8 166.8,77.9 		"/>
		<polygon class="st405" points="173,87.1 177,93 160.3,90.8 156.3,84.9 		"/>
		<polygon class="st405" points="175,79.3 179,85.2 177,93 173,87.1 		"/>
		<polygon class="st405" points="170,66.8 172.4,72.4 165,71.8 161,65.9 		"/>
		<polygon class="st405" points="170,66.8 172.4,72.4 165,71.8 161,65.9 		"/>
		<g>
			<polygon class="st405" points="33.4,8.1 40.4,11.7 37.2,34.7 30.3,31.1 			"/>
		</g>
		<g>
			<polygon class="st405" points="24.9,84 31.8,87.6 11.6,88.4 4.6,84.8 			"/>
		</g>
		<g>
			<polygon class="st405" points="27,61 34,64.5 31.8,87.6 24.9,84 			"/>
		</g>
		<g>
			<polygon class="st405" points="71.2,8.8 78.1,12.4 52.7,46.3 45.7,42.7 			"/>
		</g>
		<g>
			<polygon class="st405" points="63.3,78.8 70.2,82.4 47.4,86.5 40.5,83 			"/>
		</g>
		<g>
			<polygon class="st405" points="45.7,42.7 52.7,46.3 70.2,82.4 63.3,78.8 			"/>
		</g>
		<g class="st325">
			<polygon class="st405" points="143.4,26.4 148.3,31.6 153.9,45.1 148.9,39.9 			"/>
			<polygon class="st405" points="159,26.9 164,32 160.9,57.5 155.9,52.3 			"/>
			<path class="st405" d="M162.4,68.9c0-0.1,0-0.2,0-0.3c0-0.2,0-0.5-0.1-0.7c0-0.1-0.1-0.3-0.1-0.4c0-0.2-0.1-0.4-0.1-0.6
				c0-0.1-0.1-0.3-0.1-0.4c0-0.1-0.1-0.3-0.1-0.4c0-0.1-0.1-0.2-0.1-0.3c-0.2-0.4-0.4-0.8-0.6-1.1c0,0,0,0,0-0.1
				c-0.1-0.1-0.1-0.2-0.2-0.2c-0.1-0.2-0.3-0.4-0.5-0.6c-0.1-0.1-0.2-0.2-0.3-0.3l-5-5.2c0.3,0.3,0.5,0.6,0.7,0.9
				c0.1,0.1,0.1,0.1,0.2,0.2c0.2,0.4,0.5,0.8,0.7,1.2c0.1,0.2,0.2,0.4,0.2,0.6c0,0.1,0.1,0.3,0.1,0.4c0.1,0.2,0.1,0.4,0.1,0.6
				c0,0.1,0.1,0.3,0.1,0.4c0,0.2,0,0.5,0.1,0.7c0,0.1,0,0.2,0,0.3c0,0.4,0,0.7,0,1.1c0,0.4-0.1,0.9-0.1,1.3c0,0,0,0.1,0,0.1
				c-0.1,0.4-0.2,0.9-0.3,1.3c-0.1,0.4-0.2,0.7-0.4,1c0,0.1-0.1,0.2-0.1,0.3c-0.1,0.3-0.3,0.6-0.5,0.9c-0.2,0.3-0.4,0.6-0.7,0.9
				c0,0-0.1,0.1-0.1,0.1c-0.2,0.3-0.5,0.5-0.7,0.8c-0.3,0.2-0.5,0.5-0.8,0.7c-0.4,0.3-0.9,0.6-1.4,0.9l5,5.2
				c0.5-0.3,0.9-0.6,1.4-0.9c0,0,0.1-0.1,0.1-0.1c0.2-0.2,0.5-0.4,0.7-0.6c0.1-0.1,0.2-0.2,0.3-0.3c0.2-0.2,0.3-0.3,0.5-0.5
				c0,0,0.1-0.1,0.1-0.1c0,0,0,0,0,0c0.2-0.2,0.3-0.4,0.5-0.6c0.1-0.1,0.1-0.2,0.2-0.3c0.1-0.2,0.2-0.3,0.3-0.5
				c0.1-0.1,0.1-0.3,0.2-0.4c0-0.1,0.1-0.2,0.1-0.3c0,0,0-0.1,0.1-0.1c0.1-0.3,0.2-0.6,0.3-0.9c0,0,0-0.1,0-0.1
				c0.1-0.4,0.2-0.7,0.2-1.1c0,0,0-0.1,0-0.1c0.1-0.3,0.1-0.7,0.1-1.1c0-0.1,0-0.1,0-0.2C162.5,69.6,162.5,69.3,162.4,68.9z"/>
			<polygon class="st405" points="152.3,73.1 157.3,78.3 161.2,86.3 156.2,81.1 			"/>
			<polygon class="st405" points="88.7,27.2 93.7,32.3 96.6,44.8 91.7,39.6 			"/>
			<polygon class="st405" points="86.4,41.1 91.4,46.2 90.5,58.4 85.5,53.2 			"/>
			<polygon class="st405" points="85.5,53.2 90.5,58.4 81.8,58.7 76.8,53.5 			"/>
			<polygon class="st405" points="92,51.6 96.9,56.7 93.6,56.7 88.7,51.6 			"/>
			<polygon class="st405" points="96.6,39.8 101.6,45 96.9,56.7 92,51.6 			"/>
			<polygon class="st405" points="104.2,54 109.1,59.2 100.5,59.5 95.6,54.4 			"/>
			<polygon class="st405" points="107.8,26.4 112.8,31.6 109.1,59.2 104.2,54 			"/>
			<path class="st405" d="M126.7,42.9l-5-5.2c-0.2-0.2-0.4-0.4-0.7-0.6c-0.4-0.2-0.9-0.4-1.5-0.4c-0.6,0-1.1,0.1-1.6,0.3
				c-0.1,0.1-0.3,0.1-0.4,0.2c-0.1,0-0.1,0.1-0.2,0.1c-0.1,0-0.1,0.1-0.2,0.1c0,0-0.1,0.1-0.1,0.1c-0.1,0.1-0.3,0.2-0.4,0.3
				c0,0,0,0,0,0c-0.1,0.1-0.1,0.1-0.2,0.2c-0.1,0.1-0.2,0.2-0.3,0.4c0,0,0,0,0,0c0,0,0,0,0,0.1c-0.1,0.1-0.1,0.2-0.2,0.3
				c-0.1,0.1-0.1,0.2-0.2,0.3c0,0,0,0,0,0.1c-0.1,0.2-0.1,0.4-0.2,0.6c0,0,0,0,0,0.1c0,0.2-0.1,0.4-0.1,0.6c0,0.1,0,0.1,0,0.2
				c0,0,0,0,0,0.1c0,0.5,0,1.1,0.1,1.6c0.1,0.3,0.1,0.5,0.2,0.8c0,0,0,0,0,0c0.1,0.2,0.2,0.5,0.3,0.7c0,0,0,0,0,0
				c0.1,0.1,0.2,0.3,0.3,0.4c0,0,0.1,0.1,0.1,0.1l5,5.2c-0.2-0.2-0.3-0.3-0.4-0.5c-0.1-0.2-0.3-0.4-0.3-0.7
				c-0.1-0.2-0.2-0.5-0.2-0.8c-0.1-0.5-0.1-1.1-0.1-1.6c0-0.1,0-0.2,0-0.3c0-0.2,0.1-0.4,0.1-0.6c0.1-0.2,0.1-0.5,0.2-0.7
				c0.1-0.2,0.2-0.4,0.4-0.7c0,0,0,0,0-0.1c0.1-0.2,0.3-0.4,0.5-0.6c0.2-0.2,0.3-0.3,0.5-0.4c0.1,0,0.1-0.1,0.2-0.1
				c0.2-0.1,0.4-0.2,0.6-0.3c0.5-0.2,1-0.3,1.6-0.3c0.6,0,1.1,0.1,1.5,0.4C126.3,42.5,126.5,42.6,126.7,42.9L126.7,42.9
				C126.7,42.9,126.7,42.9,126.7,42.9z"/>
			<path class="st405" d="M135.6,40.7c-0.1-0.3-0.2-0.5-0.3-0.8c0,0,0-0.1,0-0.1c-0.2-0.5-0.5-1-0.8-1.5c0,0,0-0.1-0.1-0.1
				c0-0.1-0.1-0.1-0.1-0.2c-0.2-0.2-0.3-0.4-0.5-0.6c-0.1-0.1-0.1-0.2-0.2-0.2c-0.1-0.1-0.1-0.2-0.2-0.3c0,0-0.1-0.1-0.1-0.1l-5-5.2
				c0,0,0.1,0.1,0.1,0.1c0.1,0.2,0.3,0.3,0.4,0.5c0.2,0.2,0.3,0.4,0.5,0.6c0.1,0.1,0.1,0.2,0.2,0.3c0.3,0.5,0.6,1,0.8,1.5
				c0.1,0.3,0.2,0.6,0.3,0.9c0.5,1.5,0.6,3.1,0.5,5c0,0.5-0.1,1-0.2,1.6c0,0.1-0.1,0.2-0.1,0.4c-0.1,0.5-0.2,0.9-0.3,1.4
				c-0.1,0.4-0.3,0.9-0.5,1.3c-0.1,0.2-0.2,0.4-0.3,0.6c-0.2,0.4-0.4,0.7-0.6,1.1c-0.2,0.4-0.5,0.7-0.7,1.1
				c-0.1,0.1-0.2,0.3-0.3,0.4c-0.3,0.4-0.6,0.8-1,1.1c-0.4,0.4-0.8,0.7-1.2,1.1c-0.4,0.3-0.9,0.6-1.3,0.9c-0.3,0.2-0.6,0.3-1,0.5
				c-0.2,0.1-0.3,0.2-0.5,0.2c-0.5,0.2-1,0.4-1.5,0.5c-1.1,0.3-2.2,0.5-3.3,0.5c-1.1,0-2.2-0.2-3.2-0.4c-1-0.3-1.9-0.7-2.8-1.2
				c-0.8-0.5-1.5-1-2.1-1.7l5,5.2c0.6,0.6,1.3,1.2,2.1,1.7c0.9,0.5,1.8,0.9,2.8,1.2c1,0.3,2.1,0.4,3.2,0.4c1.2,0,2.3-0.1,3.3-0.5
				c0.5-0.2,1-0.3,1.5-0.5c0.2-0.1,0.3-0.2,0.5-0.2c0.3-0.1,0.6-0.3,0.9-0.5c0,0,0,0,0.1,0c0.5-0.3,0.9-0.6,1.3-0.9c0,0,0,0,0,0
				c0.4-0.3,0.7-0.6,1.1-0.9c0,0,0.1-0.1,0.1-0.1c0.3-0.3,0.6-0.6,0.9-0.9c0-0.1,0.1-0.1,0.1-0.2c0.1-0.1,0.2-0.3,0.3-0.4
				c0.1-0.2,0.3-0.3,0.4-0.5c0.1-0.2,0.2-0.4,0.4-0.6c0.1-0.2,0.2-0.4,0.4-0.6c0.1-0.2,0.1-0.3,0.2-0.5c0.1-0.2,0.2-0.4,0.3-0.6
				c0-0.1,0.1-0.2,0.1-0.3c0.1-0.3,0.3-0.7,0.4-1c0.1-0.2,0.1-0.5,0.2-0.7c0.1-0.2,0.1-0.5,0.1-0.7c0-0.1,0.1-0.2,0.1-0.4
				c0.1-0.5,0.1-0.9,0.2-1.4c0-0.1,0-0.1,0-0.2C136.3,43.9,136.1,42.2,135.6,40.7z"/>
			<polygon class="st405" points="141.7,39.6 146.6,44.8 144.8,58.7 139.9,53.5 			"/>
			<polygon class="st405" points="139.9,53.5 144.8,58.7 136.4,58.7 131.4,53.5 			"/>
			<polygon class="st405" points="155.9,52.3 160.9,57.5 151,58.4 146,53.2 			"/>
			<polygon class="st405" points="94.4,56.5 99.4,61.7 98.1,69.3 93.2,64.1 			"/>
			<path class="st405" d="M98.1,69.3l-5-5.2c-0.8-0.3-1.7-0.5-2.6-0.7c-0.9-0.2-1.8-0.3-2.7-0.3c-0.2,0-0.4,0-0.6,0
				c-0.3,0-0.5,0-0.8,0.1c-0.3,0-0.6,0.1-0.9,0.1c-0.3,0.1-0.6,0.2-0.8,0.3c-0.1,0-0.1,0.1-0.2,0.1c-0.1,0-0.1,0.1-0.2,0.1
				c0,0-0.1,0.1-0.1,0.1c0,0-0.1,0.1-0.1,0.1c0,0,0,0.1-0.1,0.1c0,0,0,0.1-0.1,0.1c0,0,0,0.1,0,0.1c0,0,0,0,0,0c0,0,0,0,0,0
				c0,0,0,0,0,0.1c0,0.1,0,0.1,0,0.2c0,0,0,0,0,0.1c0,0.1,0,0.3,0.1,0.4c0,0,0,0,0,0c0,0,0,0.1,0.1,0.1c0,0,0,0.1,0.1,0.1
				c0,0,0,0,0,0v0l5,5.2c-0.1-0.1-0.1-0.2-0.2-0.3c0-0.1-0.1-0.2-0.1-0.4c0-0.1,0-0.2,0.1-0.3c0,0,0,0,0,0c0-0.1,0.1-0.2,0.2-0.3
				c0.2-0.2,0.3-0.3,0.6-0.4c0.2-0.1,0.5-0.2,0.8-0.3c0.3-0.1,0.6-0.1,0.9-0.1c0.3,0,0.6-0.1,0.8-0.1c0.3,0,0.5,0,0.6,0
				c0.9,0,1.8,0.1,2.7,0.3C96.4,68.8,97.3,69,98.1,69.3L98.1,69.3L98.1,69.3z"/>
			<path class="st405" d="M85.9,72.9c-0.1-0.1-0.3-0.2-0.5-0.3c-0.2-0.1-0.5-0.2-0.8-0.2c-0.3-0.1-0.6-0.1-0.9-0.1
				c-0.3,0-0.6,0-0.8,0c-0.3,0-0.5,0-0.6,0c-1.1,0-2.1-0.2-2.9-0.6c-0.8-0.3-1.4-0.8-2-1.3l5,5.2c0.6,0.6,1.2,1,2,1.3
				c0.9,0.4,1.8,0.6,2.9,0.6c0.2,0,0.3,0,0.6,0c0.2,0,0.5,0,0.8,0c0.3,0,0.6,0.1,0.9,0.1c0.3,0.1,0.6,0.1,0.8,0.2
				c0.2,0.1,0.4,0.2,0.5,0.3L85.9,72.9z"/>
			<polygon class="st405" points="100.8,64.7 105.8,69.9 100.2,70.2 95.2,65 			"/>
			<path class="st405" d="M99.7,78.3c0-0.1,0-0.1,0-0.2c0.1-1,0-1.9-0.2-2.8c-0.1-0.2-0.1-0.5-0.2-0.7c0-0.1-0.1-0.2-0.1-0.3
				c-0.1-0.1-0.1-0.3-0.2-0.4c0-0.1-0.1-0.2-0.1-0.3c-0.1-0.2-0.3-0.4-0.4-0.6c0,0,0,0,0,0c-0.1-0.1-0.1-0.2-0.2-0.2l-5-5.2
				c0.1,0.1,0.1,0.2,0.2,0.2c0.2,0.2,0.4,0.5,0.6,0.8c0.1,0.1,0.1,0.2,0.2,0.4c0.1,0.3,0.3,0.6,0.4,1c0.2,0.8,0.3,1.8,0.2,2.8
				c0,0.3-0.1,0.6-0.1,1c0,0.1,0,0.2,0,0.3c-0.1,0.4-0.1,0.8-0.2,1.1c-0.1,0.4-0.2,0.8-0.4,1.2c-0.1,0.3-0.3,0.7-0.4,1
				c-0.2,0.3-0.4,0.6-0.6,0.9c0,0-0.1,0.1-0.1,0.1c-0.2,0.2-0.3,0.5-0.5,0.7c-0.1,0.1-0.2,0.2-0.2,0.3c-0.1,0.2-0.3,0.3-0.4,0.5
				c-0.2,0.2-0.3,0.3-0.5,0.4c-0.1,0.1-0.2,0.2-0.3,0.3c-0.3,0.3-0.7,0.5-1.1,0.7c-0.1,0.1-0.2,0.1-0.3,0.2
				c-0.3,0.1-0.5,0.3-0.8,0.4c-0.1,0.1-0.2,0.1-0.3,0.2c-0.4,0.2-0.8,0.3-1.2,0.4c-1.4,0.4-2.9,0.6-4.5,0.6c-0.6,0-1.3-0.1-2-0.2
				c-0.7-0.2-1.5-0.4-2.2-0.6c-0.7-0.2-1.4-0.5-2.1-0.8c-0.7-0.3-1.3-0.5-1.8-0.8l5,5.2c0.5,0.3,1.1,0.5,1.8,0.8
				c0.7,0.3,1.4,0.5,2.1,0.8c0.7,0.3,1.5,0.5,2.2,0.6c0.7,0.2,1.4,0.2,2,0.2c1.6,0,3.1-0.2,4.5-0.6c0.4-0.1,0.8-0.3,1.2-0.4
				c0.1,0,0.2-0.1,0.3-0.2c0.3-0.1,0.6-0.3,0.8-0.4c0.1,0,0.1-0.1,0.2-0.1c0,0,0.1-0.1,0.1-0.1c0.4-0.2,0.7-0.5,1.1-0.7c0,0,0,0,0,0
				c0.1-0.1,0.2-0.2,0.3-0.2c0.2-0.1,0.3-0.3,0.5-0.4c0,0,0,0,0,0c0.1-0.1,0.3-0.3,0.4-0.4c0.1-0.1,0.2-0.2,0.2-0.3c0,0,0,0,0,0
				c0.2-0.2,0.3-0.4,0.5-0.7c0,0,0.1-0.1,0.1-0.1c0,0,0,0,0,0c0.2-0.3,0.4-0.6,0.5-0.9c0,0,0,0,0,0c0.2-0.3,0.3-0.6,0.4-0.9
				c0,0,0,0,0,0c0.1-0.4,0.3-0.8,0.4-1.2c0,0,0,0,0,0c0.1-0.4,0.2-0.7,0.2-1.1c0-0.1,0-0.2,0-0.3C99.7,78.8,99.7,78.6,99.7,78.3z"/>
			<polygon class="st405" points="115.8,64 120.8,69.2 115.2,69.4 110.2,64.3 			"/>
			<polygon class="st405" points="116.6,56.1 121.5,61.2 120.8,69.2 115.8,64 			"/>
			<polygon class="st405" points="107.5,82.1 112.5,87.3 104.5,87.7 99.6,82.5 			"/>
			<polygon class="st405" points="110.2,64.3 115.2,69.4 112.5,87.3 107.5,82.1 			"/>
			<polygon class="st405" points="126.5,63.3 131.4,68.4 131.1,70.8 126.1,65.6 			"/>
			<polygon class="st405" points="134.5,62.8 139.4,68 131.4,68.4 126.5,63.3 			"/>
			<polygon class="st405" points="125.2,71.6 130.2,76.8 129.8,79.6 124.9,74.4 			"/>
			<polygon class="st405" points="130.9,71.5 135.9,76.6 130.2,76.8 125.2,71.6 			"/>
			<polygon class="st405" points="131.7,65.6 136.7,70.8 135.9,76.6 130.9,71.5 			"/>
			<g>
				<defs>
					<path id="SVGID_424_" d="M132.8,74.4l5,5.2c-0.2,1.4-0.3,2.7-0.5,4.1c-0.2,1.4-0.4,2.7-0.5,4.1l-5-5.2c0.2-1.4,0.3-2.7,0.5-4.1
						S132.7,75.8,132.8,74.4z"/>
				</defs>
				<use xlink:href="#SVGID_424_"  style="overflow:visible;fill:#DDDDDD;"/>
				<clipPath id="SVGID_4_">
					<use xlink:href="#SVGID_424_"  style="overflow:visible;"/>
				</clipPath>
				<path style="clip-path:url(#SVGID_4_);fill:#DDDDDD;" d="M152,70.8l6.3,6.5c-0.2,1.7-0.4,3.4-0.6,5.2c-0.2,1.7-0.4,3.4-0.6,5.1
					l-6.3-6.5c0.2-1.7,0.4-3.4,0.6-5.1C151.5,74.2,151.8,72.5,152,70.8"/>
			</g>
			<polygon class="st405" points="131.8,82.6 136.8,87.7 120.6,88.1 115.6,83 			"/>
			<path class="st405" d="M148.1,62.7c-0.2-0.2-0.5-0.4-0.8-0.6c-0.4-0.2-0.9-0.3-1.5-0.3c-0.2,0-0.5,0-0.7,0
				c-0.2,0-0.5,0.1-0.7,0.1v0l0,0l5,5.2c0.2-0.1,0.5-0.1,0.7-0.1c0.2,0,0.5,0,0.7,0c0.6,0,1.1,0.1,1.5,0.3c0.3,0.1,0.6,0.3,0.8,0.6
				L148.1,62.7z"/>
			<polygon class="st405" points="144.4,62 149.4,67.2 148.6,74.2 143.6,69 			"/>
			<polygon class="st405" points="145.3,74.8 150.3,79.9 148,80 143,74.8 			"/>
			<polygon class="st405" points="142.1,82.7 147.1,87.8 139,87.8 134,82.7 			"/>
			<polygon class="st405" points="143,74.8 148,80 147.1,87.8 142.1,82.7 			"/>
			<polygon class="st405" points="156.2,81.1 161.2,86.3 152.7,87.9 147.7,82.8 			"/>
			<polygon class="st405" points="69.5,41.7 74.5,46.9 74.1,53.3 69.2,48.1 			"/>
			<polygon class="st405" points="69.2,48.1 74.1,53.3 62,53.1 57,47.9 			"/>
			<g>
				<defs>
					<path id="SVGID_426_" d="M135.4,55.9l5,5.2c-0.2,1.2-0.3,2.3-0.4,3.5c-0.1,1.2-0.3,2.3-0.5,3.5l-5-5.2c0.2-1.2,0.3-2.3,0.5-3.5
						C135.1,58.2,135.2,57,135.4,55.9z"/>
				</defs>
				<use xlink:href="#SVGID_426_"  style="overflow:visible;fill:#DDDDDD;"/>
				<clipPath id="SVGID_5_">
					<use xlink:href="#SVGID_426_"  style="overflow:visible;"/>
				</clipPath>
				<path style="clip-path:url(#SVGID_5_);fill:#DDDDDD;" d="M155.2,47.5l6.3,6.5c-0.2,1.5-0.4,2.9-0.6,4.4
					c-0.2,1.5-0.4,2.9-0.6,4.4l-6.3-6.5c0.2-1.5,0.4-2.9,0.6-4.4C154.8,50.5,155,49,155.2,47.5"/>
			</g>
			<g>
				<defs>
					<path id="SVGID_428_" d="M135.4,55.9l5,5.2c-0.2,1.2-0.3,2.3-0.4,3.5c-0.1,1.2-0.3,2.3-0.5,3.5l-5-5.2c0.2-1.2,0.3-2.3,0.5-3.5
						C135.1,58.2,135.2,57,135.4,55.9z"/>
				</defs>
				<use xlink:href="#SVGID_428_"  style="overflow:visible;fill:#DDDDDD;"/>
				<clipPath id="SVGID_6_">
					<use xlink:href="#SVGID_428_"  style="overflow:visible;"/>
				</clipPath>
				<path style="clip-path:url(#SVGID_6_);fill:#DDDDDD;" d="M155.2,47.5l6.3,6.5c-0.2,1.5-0.4,2.9-0.6,4.4
					c-0.2,1.5-0.4,2.9-0.6,4.4l-6.3-6.5c0.2-1.5,0.4-2.9,0.6-4.4C154.8,50.5,155,49,155.2,47.5"/>
			</g>
			<polygon class="st405" points="179.3,61.4 183.3,67.3 182.1,74 178,68 			"/>
			<polygon class="st405" points="178,68 182.1,74 170.8,83.8 166.8,77.9 			"/>
			<polygon class="st405" points="173,87.1 177,93 160.3,90.8 156.3,84.9 			"/>
			<polygon class="st405" points="175,79.3 179,85.2 177,93 173,87.1 			"/>
			<polygon class="st405" points="170,66.8 172.4,72.4 165,71.8 161,65.9 			"/>
			<polygon class="st405" points="170,66.8 172.4,72.4 165,71.8 161,65.9 			"/>
			<g>
				<polygon class="st405" points="33.4,8.1 40.4,11.7 37.2,34.7 30.3,31.1 				"/>
			</g>
			<g>
				<polygon class="st405" points="24.9,84 31.8,87.6 11.6,88.4 4.6,84.8 				"/>
			</g>
			<g>
				<polygon class="st405" points="27,61 34,64.5 31.8,87.6 24.9,84 				"/>
			</g>
			<g>
				<polygon class="st405" points="71.2,8.8 78.1,12.4 52.7,46.3 45.7,42.7 				"/>
			</g>
			<g>
				<polygon class="st405" points="63.3,78.8 70.2,82.4 47.4,86.5 40.5,83 				"/>
			</g>
			<g>
				<polygon class="st405" points="45.7,42.7 52.7,46.3 70.2,82.4 63.3,78.8 				"/>
			</g>
		</g>
		<g>
			<polygon class="st0" points="107.8,26.4 104.2,54 95.6,54.4 96.6,39.8 92,51.6 88.7,51.6 86.4,41.1 85.5,53.2 76.8,53.5 79,27.5 
				88.7,27.2 91.7,39.6 97.7,26.4 			"/>
			<path class="st0" d="M130.7,35.6c0.5,1.5,0.6,3.1,0.5,5c-0.1,1.1-0.3,2.2-0.6,3.3c-0.3,1.1-0.8,2.1-1.3,3c-0.6,0.9-1.2,1.8-2,2.6
				c-0.8,0.8-1.6,1.4-2.5,2c-0.9,0.5-1.9,1-3,1.3c-1.1,0.3-2.2,0.5-3.3,0.5c-1.1,0-2.2-0.2-3.2-0.4c-1-0.3-1.9-0.7-2.8-1.2
				c-0.9-0.5-1.6-1.2-2.3-1.9c-0.7-0.7-1.2-1.5-1.7-2.4c-0.5-0.9-0.8-1.9-1-2.9c-0.2-1-0.3-2.1-0.2-3.2c0.1-1.1,0.3-2.2,0.6-3.2
				c0.3-1,0.8-2,1.3-3s1.2-1.8,2-2.6c0.8-0.8,1.6-1.5,2.5-2c0.9-0.6,1.9-1,2.9-1.3c1-0.3,2.1-0.5,3.2-0.5c1.8,0,3.5,0.3,4.9,0.8
				c1.5,0.6,2.7,1.4,3.7,2.4C129.4,32.8,130.2,34.1,130.7,35.6z M122.4,42.6c0.2-0.5,0.3-1,0.4-1.6c0-0.5,0-1.1-0.1-1.6
				c-0.1-0.5-0.3-1-0.6-1.4c-0.3-0.4-0.6-0.7-1.1-1c-0.4-0.2-0.9-0.4-1.5-0.4c-0.6,0-1.1,0.1-1.6,0.3c-0.5,0.2-0.9,0.5-1.3,0.9
				c-0.3,0.4-0.6,0.8-0.9,1.3c-0.2,0.5-0.3,1-0.4,1.6c0,0.5,0,1.1,0.1,1.6c0.1,0.5,0.3,1,0.6,1.4c0.3,0.4,0.6,0.8,1,1
				c0.4,0.3,0.9,0.4,1.5,0.4c0.6,0,1.1-0.1,1.6-0.3c0.5-0.2,0.9-0.5,1.3-0.9C121.9,43.6,122.2,43.1,122.4,42.6"/>
			<polygon class="st0" points="143.4,26.4 148.9,39.9 150.1,27.2 159,26.9 155.9,52.3 146,53.2 141.7,39.6 139.9,53.5 131.4,53.5 
				133.9,26.9 			"/>
			<path class="st0" d="M87,55.1c0.6,0,1.2,0,1.9,0.1c0.6,0,1.3,0.1,1.9,0.2c0.6,0.1,1.3,0.3,1.9,0.4c0.6,0.2,1.2,0.4,1.7,0.7
				l-1.2,7.6c-0.8-0.3-1.7-0.5-2.6-0.7c-0.9-0.2-1.8-0.3-2.7-0.3c-0.2,0-0.4,0-0.6,0c-0.3,0-0.5,0-0.8,0.1c-0.3,0-0.6,0.1-0.9,0.1
				c-0.3,0.1-0.6,0.2-0.8,0.3c-0.2,0.1-0.4,0.2-0.6,0.4c-0.2,0.2-0.2,0.4-0.2,0.6c0,0.3,0.1,0.5,0.3,0.7c0.2,0.2,0.4,0.3,0.7,0.4
				c0.3,0.1,0.6,0.2,1,0.2c0.4,0,0.7,0.1,1.1,0.1c0.2,0,0.4,0,0.5,0c0.2,0,0.3,0,0.5,0c0.1,0,0.2,0,0.2,0c0.2,0,0.4,0,0.5,0
				c1,0.1,1.9,0.3,2.7,0.6c0.8,0.4,1.4,0.8,1.9,1.4c0.5,0.6,0.9,1.3,1.1,2.1c0.2,0.8,0.3,1.8,0.2,2.8c-0.1,1.7-0.5,3.2-1.2,4.5
				c-0.7,1.3-1.6,2.3-2.7,3.2c-1.1,0.9-2.3,1.5-3.8,1.9c-1.4,0.4-2.9,0.6-4.5,0.6c-0.6,0-1.3-0.1-2-0.2c-0.7-0.2-1.5-0.4-2.2-0.6
				c-0.7-0.2-1.4-0.5-2.1-0.8S75,81,74.5,80.8l1.4-7.7c1,0.6,2.2,1.1,3.4,1.5c1.3,0.3,2.5,0.5,3.8,0.5c0.2,0,0.5,0,0.9,0
				c0.3,0,0.7-0.1,1-0.2c0.3-0.1,0.6-0.2,0.8-0.4c0.2-0.2,0.3-0.5,0.4-0.8c0-0.2,0-0.4-0.2-0.6c-0.1-0.2-0.3-0.3-0.6-0.4
				c-0.2-0.1-0.5-0.2-0.8-0.2c-0.3-0.1-0.6-0.1-0.9-0.1c-0.3,0-0.6,0-0.8,0c-0.3,0-0.5,0-0.6,0c-1.1,0-2.1-0.2-2.9-0.6
				c-0.9-0.4-1.6-0.9-2.2-1.6c-0.6-0.7-1-1.5-1.3-2.4c-0.3-0.9-0.4-1.9-0.3-3c0.1-1.5,0.5-2.8,1.2-4c0.7-1.2,1.5-2.2,2.6-3
				c1-0.8,2.2-1.4,3.6-1.9C84.3,55.3,85.6,55.1,87,55.1z"/>
			<polygon class="st0" points="116.6,56.1 115.8,64 110.2,64.3 107.5,82.1 99.6,82.5 100.8,64.7 95.2,65 96.1,56.1 			"/>
			<path class="st0" d="M135.4,55.9c-0.2,1.2-0.3,2.3-0.4,3.5c-0.1,1.2-0.3,2.3-0.5,3.5l-8,0.4l-0.4,2.4h5.6l-0.8,5.8l-5.6,0.2
				l-0.4,2.7h4.7h3.3c-0.2,1.4-0.3,2.7-0.5,4.1s-0.4,2.7-0.5,4.1L115.6,83l2.5-27.1H135.4z"/>
			<path class="st0" d="M154.5,71.5c-0.6,0.6-1.3,1.1-2.2,1.6l3.9,8l-8.6,1.7l-2.3-8l-2.3,0.1l-0.9,7.8H134c0.3-2.9,0.5-5.7,0.8-8.5
				c0.2-2.8,0.5-5.7,0.8-8.5c0.1-1.4,0.2-2.9,0.4-4.3c0.1-1.4,0.3-2.9,0.4-4.3c0.9-0.3,1.8-0.6,2.7-0.8c0.9-0.2,1.7-0.4,2.6-0.5
				c0.9-0.1,1.7-0.2,2.6-0.3c0.9,0,1.8-0.1,2.7-0.1c1.4,0,2.8,0.2,4.1,0.6c1.3,0.4,2.4,1,3.4,1.8c1,0.8,1.7,1.8,2.3,2.9
				c0.5,1.2,0.8,2.6,0.6,4.1c-0.1,1-0.2,1.9-0.4,2.7c-0.2,0.8-0.5,1.5-1,2.2C155.6,70.4,155.1,71,154.5,71.5z M148.4,67.1
				c0.3-0.5,0.5-1,0.5-1.6c0-0.5,0-1-0.1-1.5c-0.1-0.4-0.3-0.8-0.6-1.1c-0.3-0.3-0.6-0.6-1-0.8c-0.4-0.2-0.9-0.3-1.5-0.3
				c-0.2,0-0.5,0-0.7,0c-0.2,0-0.5,0.1-0.7,0.2l-0.8,7h0.5c0.5,0,1.1-0.1,1.7-0.2c0.6-0.1,1.1-0.3,1.5-0.6
				C147.7,67.9,148.1,67.5,148.4,67.1"/>
			<polygon class="st0" points="69.5,41.7 69.2,48.1 57,47.9 57.4,42.3 			"/>
			<g>
				<polygon class="st0" points="46.8,6.8 71.2,8.8 45.7,42.7 63.3,78.8 40.5,83 27,61 24.9,84 4.6,84.8 10.9,6.8 33.4,8.1 
					30.3,31.1 				"/>
			</g>
			<polygon class="st0" points="179.3,61.4 178,68 166.8,77.9 175,79.3 173,87.1 156.3,84.9 157.3,77.6 170,66.8 161,65.9 
				162.7,58.6 			"/>
		</g>
	</g>
</g>
</svg>
