<?xml version="1.0" encoding="utf-8"?>
<!-- Generator: Adobe Illustrator 23.0.0, SVG Export Plug-In . SVG Version: 6.00 Build 0)  -->
<svg version="1.1" id="레이어_1" xmlns="http://www.w3.org/2000/svg" xmlns:xlink="http://www.w3.org/1999/xlink" x="0px"
	 y="0px" viewBox="0 0 180 180" style="enable-background:new 0 0 180 180;" xml:space="preserve">
<style type="text/css">
	.st0{fill:#1D9BF0;}
	.st1{fill:#FFFFFF;}
</style>
<g>
	<path id="XMLID_2_" class="st0" d="M179,90c0-49.1-39.8-89-89-89S1,40.9,1,90s39.8,89,89,89S179,139.1,179,90z"/>
	<path id="XMLID_1_" class="st1" d="M141.9,63.3c-3.6,1.4-7.4,2.4-11.4,2.9c4.2-2.5,7.5-6.3,9.2-10.9c0.1-0.3-0.2-0.6-0.5-0.4
		c-4,2.2-8.3,3.8-13,4.7c-3.9-4.1-9.6-6.7-15.8-6.7c-11.9,0-21.6,9.5-21.6,21.3c0,1.7,0.2,3.3,0.6,4.9c-17.8-1-33.7-9.4-44.4-22.2
		c-0.1-0.1-0.2-0.1-0.2,0C43,60,42,63.6,42,67.5c0,7.2,3.7,13.6,9.2,17.5c0.1,0.1,0.1,0.2-0.1,0.2c-3.3-0.2-6.4-1.1-9.2-2.5
		c-0.1,0-0.2,0-0.2,0.1c0.1,0.9,0.4,5.1,1.5,7.8c2.7,6.6,8.6,11.7,15.9,13.2c-1.8,0.5-3.7,0.8-5.7,0.8c-1.3,0-2.6-0.1-3.9-0.4
		c-0.1,0-0.2,0.1-0.1,0.2c2.8,8.2,10.5,14.3,19.8,14.6c0.1,0,0.2,0.2,0.1,0.2c-7.4,5.6-16.6,8.9-26.6,8.9c-1.7,0-3.4-0.1-5.1-0.3
		c9.6,6,20.9,9.6,33.1,9.6c16.8,0,30.4-5.8,40.5-14.6c10.2-8.9,16.8-20.9,19.6-33.1c1-4.3,1.5-8.6,1.5-12.9c0-0.9,0-1.8-0.1-2.8
		c3.9-2.8,7.3-6.2,10.1-10.1C142.5,63.5,142.3,63.2,141.9,63.3z"/>
</g>
</svg>
